<?xml version="1.0" standalone="no"?>
<!DOCTYPE svg PUBLIC "-//W3C//DTD SVG 1.1//EN" "http://www.w3.org/Graphics/SVG/1.1/DTD/svg11.dtd" >
<svg>
<metadata>
Created by FontForge 20090622 at Wed Jun 21 19:37:10 2017
 By deploy user
Copyright (c) 2016 by Lucas LE BIHAN. All rights reserved.
</metadata>
<defs>
<font id="SportingGrotesque-Normal" horiz-adv-x="800" >
  <font-face 
    font-family="Sporting Grotesque"
    font-weight="500"
    font-stretch="normal"
    units-per-em="1000"
    panose-1="0 0 0 0 0 0 0 0 0 0"
    ascent="777"
    descent="-223"
    x-height="555"
    cap-height="777"
    bbox="-90 -571 1309 1062"
    underline-thickness="72"
    underline-position="-73"
    unicode-range="U+000D-U+FB02"
  />
<missing-glyph horiz-adv-x="434" 
 />
    <glyph glyph-name="f_f" unicode="ff" horiz-adv-x="844" 
d="M678 712q-52 0 -82 -23t-30 -63q0 -20 7.5 -37.5t14.5 -25.5l8 -8h204v-75h-198v-480h-120v480h-228v-480h-120v480h-124v75h159q-4 1 -8.5 3t-16.5 9.5t-20.5 17t-15.5 26t-7 35.5q0 56 51 100.5t146 44.5q116 0 171 -79q55 79 205 79q66 0 120 -17t84.5 -41.5t51 -48.5
t27.5 -41l7 -17l-124 -36q-1 5 -4 13t-15 29t-28 37.5t-46.5 29.5t-68.5 13zM322 712q-47 0 -75.5 -22.5t-28.5 -61.5q0 -20 7.5 -38t14.5 -26l8 -9h269q-4 1 -8.5 3t-16.5 9.5t-20.5 17t-15.5 26t-7 35.5v2q-44 64 -127 64z" />
    <glyph glyph-name="f_i" unicode="fi" horiz-adv-x="706" 
d="M330 712q-52 0 -82 -23t-30 -63q0 -20 7.5 -37.5t14.5 -25.5l8 -8h234h120v-555h-120v480h-228v-480h-120v480h-124v75h159q-4 1 -8.5 3t-16.5 9.5t-20.5 17t-15.5 26t-7 35.5q0 57 55.5 101t169.5 44q66 0 120 -17t84.5 -41.5t51 -48.5t27.5 -41l7 -17l-124 -36
q-1 5 -4 13t-15 29t-28 37.5t-46.5 29.5t-68.5 13z" />
    <glyph glyph-name="f_l" unicode="fl" horiz-adv-x="692" 
d="M482 0v480h-228v-480h-120v480h-124v75h158q-6 2 -13.5 6t-21.5 14t-23 29t-9 42q0 56 51 100.5t146 44.5q40 0 73.5 -10t53 -24.5t33.5 -29.5t19 -25l5 -10v74q28 0 58 3t46 5l16 3v-777h-120zM248 555h234q0 6 -1.5 17t-11.5 38t-25.5 47.5t-47.5 37.5t-74 17
q-47 0 -75.5 -22.5t-28.5 -61.5q0 -20 7.5 -38t14.5 -26z" />
    <glyph glyph-name=".notdef" horiz-adv-x="434" 
 />
    <glyph glyph-name=".null" horiz-adv-x="0" 
 />
    <glyph glyph-name="nonmarkingreturn" horiz-adv-x="333" 
 />
    <glyph glyph-name="NULL" horiz-adv-x="0" 
 />
    <glyph glyph-name="NULL" horiz-adv-x="0" 
 />
    <glyph glyph-name="CR" unicode="&#xd;" horiz-adv-x="434" 
 />
    <glyph glyph-name="space" unicode=" " horiz-adv-x="434" 
 />
    <glyph glyph-name="exclam" unicode="!" horiz-adv-x="290" 
d="M80 777h130l-10 -537h-110zM80 0v145h130v-145h-130z" />
    <glyph glyph-name="quotedbl" unicode="&#x22;" horiz-adv-x="440" 
d="M90 480v297h80v-297h-80zM270 480v297h80v-297h-80z" />
    <glyph glyph-name="numbersign" unicode="#" horiz-adv-x="650" 
d="M557 283v-50h-122l-51 -233h-54l51 233h-178l-51 -233h-55l51 233h-108v50h119l32 150h-100v50h111l51 232h56l-51 -232h177l51 232h56l-52 -232h120v-50h-131l-33 -150h111zM247 433l-33 -150h178l32 150h-177z" />
    <glyph glyph-name="dollar" unicode="$" 
d="M421 -223h-43v212q-74 5 -134.5 26.5t-98 50t-63.5 64.5t-37 68.5t-12 64.5l134 39q0 -4 -0.5 -11t2 -27t8.5 -38.5t21 -42.5t36.5 -42t59 -33t84.5 -20v256l-111 26q-98 23 -148 75t-50 123q0 94 78.5 158t230.5 65v221h43v-222q84 -5 147 -30.5t92.5 -58.5t47 -65.5
t20.5 -54.5l2 -22l-134 -36v16t-8 36t-24 47.5t-53.5 41.5t-89.5 26v-232l118 -26q228 -51 228 -224q0 -106 -93 -164t-240 -58q-3 0 -7 0.5t-6 0.5v-210zM456 326l-35 8v-249h10q92 0 146.5 33.5t54.5 83.5q0 52 -40 76.5t-136 47.5zM341 476l37 -8v224h-2q-78 0 -125 -31
t-47 -81q0 -42 34 -65.5t103 -38.5z" />
    <glyph glyph-name="percent" unicode="%" horiz-adv-x="924" 
d="M20 590q0 90 59.5 146t151.5 56t151.5 -56t59.5 -146t-59.5 -145.5t-151.5 -55.5t-151.5 55.5t-59.5 145.5zM81 590q0 -68 39 -111t111 -43t111 43t39 111t-39 111t-111 43t-111 -43t-39 -111zM482 190q0 90 59.5 146t151.5 56t151.5 -56t59.5 -146t-59.5 -145.5
t-151.5 -55.5t-151.5 55.5t-59.5 145.5zM543 190q0 -68 39 -111t111 -43t111 43t39 111t-39 111t-111 43t-111 -43t-39 -111zM644 784l48 -24l-413 -763l-46 23z" />
    <glyph glyph-name="ampersand" unicode="&#x26;" horiz-adv-x="843" 
d="M60 682v95h673v-95l-278 -287q115 -143 220 -310h168v-85h-116q31 -52 57.5 -101.5t37.5 -72.5l12 -24l-132 -40q-36 97 -112 238h-570v95l301 311q-121 151 -261 276zM542 85q-74 125 -157 238l-230 -238h387zM598 692h-429q110 -93 219 -217z" />
    <glyph glyph-name="quotesingle" unicode="'" horiz-adv-x="260" 
d="M90 480v297h80v-297h-80z" />
    <glyph glyph-name="parenleft" unicode="(" horiz-adv-x="381" 
d="M40 339q0 95 32.5 179t82.5 139t104 89t102 41v-41q-28 -6 -61 -24.5t-68.5 -53.5t-64.5 -80t-47.5 -110.5t-18.5 -138.5t18.5 -138.5t47.5 -110.5t64.5 -80t68.5 -53.5t61 -24.5v-41q-48 7 -102 41t-104 89t-82.5 139t-32.5 179z" />
    <glyph glyph-name="parenright" unicode=")" horiz-adv-x="381" 
d="M341 339q0 -95 -32.5 -179t-82.5 -139t-104 -89t-102 -41v41q28 6 61 24.5t68.5 53.5t64.5 80t47.5 110.5t18.5 138.5t-18.5 138.5t-47.5 110.5t-64.5 80t-68.5 53.5t-61 24.5v41q48 -7 102 -41t104 -89t82.5 -139t32.5 -179z" />
    <glyph glyph-name="asterisk" unicode="*" horiz-adv-x="434" 
d="M241 639h-43l9 111l-77 -84l-30 31l84 69l-113 -2v44l113 -10l-84 79l30 31l74 -89l-6 116h43l-5 -116l73 87l31 -30l-84 -77l111 9v-44l-113 8l86 -74l-31 -30l-73 83z" />
    <glyph glyph-name="plus" unicode="+" horiz-adv-x="650" 
d="M300 580h50v-280h280v-50h-280v-280h-50v280h-280v50h280v280z" />
    <glyph glyph-name="comma" unicode="," horiz-adv-x="310" 
d="M220 145v-120q0 -55 -20 -105t-40 -73l-20 -23l-88 26q4 2 10 6t22.5 18.5t30 30.5t27 42t19.5 53h-71v145h130z" />
    <glyph glyph-name="hyphen" unicode="-" horiz-adv-x="502" 
d="M462 260h-422v75h422v-75z" />
    <glyph glyph-name="period" unicode="." horiz-adv-x="310" 
d="M90 0v145h130v-145h-130z" />
    <glyph glyph-name="slash" unicode="/" horiz-adv-x="245" 
d="M233 729l51 -16l-274 -823l-49 15z" />
    <glyph glyph-name="zero" unicode="0" 
d="M740 389q0 -182 -87.5 -292.5t-252.5 -110.5t-252.5 110.5t-87.5 292.5q0 181 87.5 291.5t252.5 110.5t252.5 -110.5t87.5 -291.5zM603 389q0 138 -48.5 220.5t-154.5 82.5t-154.5 -82.5t-48.5 -220.5q0 -139 48.5 -221.5t154.5 -82.5t154.5 82.5t48.5 221.5z" />
    <glyph glyph-name="one" unicode="1" 
d="M750 0h-640v85h300l-1 607q0 -60 -12 -97t-44.5 -64.5t-91 -39t-151.5 -11.5v99q156 0 228 44t72 154h130v-692h210v-85z" />
    <glyph glyph-name="two" unicode="2" 
d="M715 536q0 -57 -25 -112t-58.5 -94.5t-87.5 -82t-91.5 -66l-92.5 -55.5l-70 -41h440v-85h-640v75q10 4 27.5 12t68.5 34t97 54t102 70.5t96.5 85t68.5 96t28 105.5q0 70 -44.5 115t-133.5 45q-86 0 -128.5 -45t-42.5 -113q0 -29 10 -56.5t23.5 -46t27.5 -32.5t24 -21
l10 -6l-134 -39q-4 3 -10.5 9t-22.5 25.5t-28.5 42t-23 57.5t-10.5 72q0 99 81 175.5t227 76.5q150 0 231 -71t81 -184z" />
    <glyph glyph-name="three" unicode="3" 
d="M387 356h-50v85h50q89 0 142.5 34.5t53.5 93.5q0 54 -45.5 88.5t-120.5 34.5q-58 0 -99 -19t-58 -46t-26 -53.5t-9 -45.5v-19l-134 40q1 5 2.5 13.5t10.5 34t22 48t39 50.5t59 48t84.5 34t113.5 14q132 0 215 -58.5t83 -145.5q0 -43 -18.5 -76t-42.5 -50t-56 -27.5
t-51 -13.5t-34 -3q17 0 37 -3t55.5 -15t62 -31.5t47 -57.5t20.5 -89q0 -78 -46.5 -132.5t-119.5 -78.5t-164 -24q-71 0 -129.5 15t-95 38.5t-64 52t-40.5 57.5t-20.5 52.5t-8.5 38.5l-2 15l134 39q-1 -8 -0.5 -22.5t11 -50.5t31 -63.5t67.5 -50t114 -22.5q92 0 144 35.5
t52 101.5q0 134 -216 134z" />
    <glyph glyph-name="four" unicode="4" 
d="M40 188v125l422 464h172v-504h156v-85h-156v-188h-130v188h-464zM504 682l-363 -409h363v409z" />
    <glyph glyph-name="five" unicode="5" 
d="M740 255q0 -126 -91 -197.5t-243 -71.5q-71 0 -128.5 15t-93.5 38.5t-63 52t-40 57.5t-20.5 52.5t-8.5 38.5l-2 15l134 39q2 -1 0 -12t2.5 -29.5l10 -40.5t22.5 -44.5t39 -41t60.5 -30t87.5 -11.5q89 0 143 47t54 123t-54 122.5t-143 46.5q-52 0 -93 -12t-56 -24l-15 -12
h-133l71 401h524v-85h-413l-47 -270q2 4 6.5 11t22 24.5t39.5 30.5t61 24t84 11q115 0 199 -75.5t84 -192.5z" />
    <glyph glyph-name="six" unicode="6" 
d="M468 500q112 0 192 -65.5t80 -191.5q0 -112 -91.5 -184.5t-232.5 -72.5q-167 0 -261.5 111.5t-94.5 291.5q0 178 96.5 290t263.5 112q73 0 132 -23t91 -55.5t53 -65t28 -55.5l6 -23l-133 -40q-1 7 -3 18t-13 39t-28.5 49.5t-52.5 39t-80 17.5q-108 0 -165.5 -84.5
t-57.5 -218.5q0 -18 2 -54q22 80 95 122.5t174 42.5zM416 85q93 0 140 43.5t47 114.5t-47 114.5t-140 43.5q-78 0 -132 -42t-69 -108q23 -78 73.5 -122t127.5 -44z" />
    <glyph glyph-name="seven" unicode="7" 
d="M770 777v-115q-7 0 -19 -2.5t-48.5 -17t-72 -38t-83.5 -74t-90 -117.5t-84.5 -174.5t-72.5 -238.5h-140q28 129 70.5 236.5t85.5 176t94.5 123t90 81.5t80.5 46t56.5 23t26.5 6h-634v85h740z" />
    <glyph glyph-name="eight" unicode="8" 
d="M730 574q0 -40 -18.5 -73t-41.5 -51.5t-53.5 -32.5t-46 -18t-26.5 -6q14 -1 28.5 -3t52 -13.5t64.5 -29t49 -52.5t22 -81q0 -77 -51.5 -129.5t-130.5 -75.5t-178 -23t-178 23t-130.5 75.5t-51.5 129.5q0 43 19.5 78t44.5 54.5t57.5 33.5t49 18.5t28.5 6.5q-10 2 -24.5 6
t-42 17t-48.5 30t-37.5 48t-16.5 68q0 96 95 156.5t235 60.5t235 -60.5t95 -156.5zM623 214q0 36 -18.5 63.5t-43.5 42t-58.5 23t-57 11t-45.5 2.5q-98 0 -160.5 -33.5t-62.5 -108.5q0 -66 62 -97.5t161 -31.5t161 31.5t62 97.5zM207 574q0 -39 21 -66t54.5 -39t61.5 -16
t56 -4q193 0 193 125q0 50 -48.5 84t-144.5 34t-144.5 -34t-48.5 -84z" />
    <glyph glyph-name="nine" unicode="9" 
d="M332 277q-112 0 -192 65.5t-80 191.5q0 112 91.5 184.5t232.5 72.5q167 0 261.5 -111.5t94.5 -291.5q0 -178 -96.5 -290t-263.5 -112q-73 0 -132 23t-91 55.5t-53 65t-28 55.5l-6 23l133 40q1 -7 3 -18t13 -39t28.5 -49.5t52.5 -39t80 -17.5q108 0 165.5 84.5t57.5 218.5
q0 27 -3 54q-20 -73 -87 -119t-181 -46zM384 692q-93 0 -140 -43.5t-47 -114.5t47 -114.5t140 -43.5q78 0 131.5 43t69.5 107q-23 78 -74 122t-127 44z" />
    <glyph glyph-name="colon" unicode=":" horiz-adv-x="310" 
d="M90 0v145h130v-145h-130zM90 410v145h130v-145h-130z" />
    <glyph glyph-name="semicolon" unicode=";" horiz-adv-x="310" 
d="M220 145v-120q0 -55 -20 -105t-40 -73l-20 -23l-88 26q4 2 10 6t22.5 18.5t30 30.5t27 42t19.5 53h-71v145h130zM90 410v145h130v-145h-130z" />
    <glyph glyph-name="less" unicode="&#x3c;" horiz-adv-x="650" 
d="M75 287l454 250l26 -46l-419 -230l418 -230l-26 -45l-453 249v52z" />
    <glyph glyph-name="equal" unicode="=" horiz-adv-x="650" 
d="M610 180v-50h-570v50h570zM610 420v-50h-570v50h570z" />
    <glyph glyph-name="greater" unicode="&#x3e;" horiz-adv-x="650" 
d="M121 537l454 -250v-52l-453 -249l-26 45l418 230l-418 230z" />
    <glyph glyph-name="question" unicode="?" horiz-adv-x="760" 
d="M700 566q0 -50 -28.5 -89t-69 -63.5l-81 -47.5t-69 -54.5t-28.5 -71.5h-110q0 44 18.5 77.5t46 51.5t60 37l60 35t46 45.5t18.5 68.5q0 56 -43 96.5t-123 40.5q-47 0 -84 -13t-58 -33.5t-35 -45t-19 -49.5t-7 -45.5t-1 -33.5l1 -13l-134 40q0 6 1.5 16.5t9.5 41t20 58
t38 61t60 58t88 41t120 16.5q83 0 145 -21.5t95 -57t48 -72t15 -74.5zM304 0v145h130v-145h-130z" />
    <glyph glyph-name="at" unicode="@" horiz-adv-x="1146" 
d="M792 0q-54 0 -73.5 28.5t-19.5 102.5q-5 -9 -11 -18.5t-29 -35t-48.5 -43.5t-67 -33t-87.5 -15q-56 0 -98 18.5t-66 49.5t-35.5 68t-11.5 79q0 106 53 192.5t132 131t163 44.5q42 0 75 -12t49.5 -29.5t27 -34.5t13.5 -29l3 -12l79 103h68l-103 -460q-9 -43 20 -43
q26 0 72 33q58 42 98 110.5t40 151.5q0 120 -61.5 211t-160.5 136t-219 45q-119 0 -225 -58.5t-173 -166.5t-67 -239q0 -211 132 -336t347 -125q110 0 211.5 47.5t159.5 129.5h63q-76 -109 -190 -168t-255 -59q-240 0 -388.5 139t-148.5 361q0 233 153 379.5t392 146.5
q126 0 235.5 -52t177.5 -150t68 -219q0 -77 -22 -142t-56 -105.5t-75 -69t-76.5 -40.5t-64.5 -12zM514 75q77 0 139.5 58.5t85.5 143.5q23 86 -11 144.5t-121 58.5q-92 0 -162 -73t-70 -185q0 -63 36 -105t103 -42z" />
    <glyph glyph-name="A" unicode="A" horiz-adv-x="974" 
d="M815 0l-111 247h-435l-111 -247h-138l360 777h214l360 -777h-139zM470 692l-162 -360h358l-161 360h-35z" />
    <glyph glyph-name="B" unicode="B" horiz-adv-x="849" 
d="M789 221q0 -111 -85 -166t-264 -55h-350v777h330q349 0 349 -190q0 -40 -16.5 -72.5t-37 -49t-48 -28.5t-41 -15t-23.5 -4q8 -1 13.5 -1.5t27 -6t37 -13t37.5 -23t36 -35t24.5 -50.5t10.5 -68zM440 356h-220v-271h220q48 0 84 6t66.5 20.5t46 42t15.5 67.5q0 53 -29.5 84
t-73 41t-109.5 10zM220 692v-251h200q100 0 156 28t56 98t-56 97.5t-156 27.5h-200z" />
    <glyph glyph-name="C" unicode="C" horiz-adv-x="984" 
d="M790 332l134 -39zM903 469l-134 -40zM903 469l-134 -40q0 5 -1 14.5t-7.5 37t-16.5 52.5t-31 55t-49 52t-72.5 37t-98.5 15q-137 0 -216.5 -85.5t-79.5 -218.5q0 -131 84 -217t222 -86q57 0 104 13.5t76 35.5t50.5 48t32 52.5t16.5 48.5t7 35l1 14l134 -39l-3 -17.5
t-12.5 -43t-27 -60.5t-49.5 -64.5t-75 -61t-108 -43t-146 -17.5q-204 0 -323.5 112t-119.5 290q0 180 115 291.5t318 111.5q77 0 141.5 -18t105.5 -46t73 -62.5t48 -69t26.5 -62.5t12.5 -46z" />
    <glyph glyph-name="D" unicode="D" horiz-adv-x="923" 
d="M90 777h350q195 0 309 -104.5t114 -284.5t-114 -284t-309 -104h-350v777zM380 692h-160v-607h160q167 0 256.5 77t89.5 226t-90 226.5t-256 77.5z" />
    <glyph glyph-name="E" unicode="E" horiz-adv-x="745" 
d="M90 0v777h586v-85h-456v-260h428v-85h-428v-262h485v-85h-615z" />
    <glyph glyph-name="F" unicode="F" horiz-adv-x="696" 
d="M90 0v777h586v-85h-456v-260h428v-85h-428v-347h-130z" />
    <glyph glyph-name="G" unicode="G" horiz-adv-x="983" 
d="M900 499l-134 -40zM900 499l-134 -40q0 5 -1.5 13.5t-9 32.5t-18 46t-32 49t-49 46t-70 32.5t-93.5 13.5q-137 0 -216.5 -85.5t-79.5 -218.5q0 -131 77.5 -217t208.5 -86q53 0 96.5 12.5t71 32t48.5 43.5t31.5 48t17 43.5t8.5 31.5l1 13h-293v85h423v-394h-130v149
l-9.5 -20.5t-28 -39.5t-52.5 -48.5t-84 -37.5t-120 -17q-182 0 -292.5 112.5t-110.5 289.5q0 180 115 291.5t318 111.5q74 0 136 -16t102.5 -42t72.5 -57t49.5 -62t28.5 -57t14 -42z" />
    <glyph glyph-name="H" unicode="H" horiz-adv-x="930" 
d="M710 0v347h-490v-347h-130v777h130v-345h490v345h130v-777h-130z" />
    <glyph glyph-name="I" unicode="I" horiz-adv-x="310" 
d="M90 777h130v-777h-130v777z" />
    <glyph glyph-name="J" unicode="J" horiz-adv-x="774" 
d="M194 332q-4 -15 -4 -33q0 -96 46 -155t136 -59t136 59t46 155v478h130v-478q0 -156 -82.5 -234.5t-229.5 -78.5q-145 0 -228 77t-84 230z" />
    <glyph glyph-name="K" unicode="K" horiz-adv-x="862" 
d="M692 0l-345 392l-127 -112v-280h-130v777h130v-368l402 368h160l-351 -310l411 -467h-150z" />
    <glyph glyph-name="L" unicode="L" horiz-adv-x="665" 
d="M90 0v777h130v-692h445v-85h-575z" />
    <glyph glyph-name="M" unicode="M" horiz-adv-x="1222" 
d="M611 85l321 692h200v-777h-130v642l-306 -642h-170l-306 642v-642h-130v777h200z" />
    <glyph glyph-name="N" unicode="N" horiz-adv-x="931" 
d="M841 777v-777h-160l-461 642v-642h-130v777h160l461 -642v642h130z" />
    <glyph glyph-name="O" unicode="O" horiz-adv-x="1027" 
d="M967 388q0 -177 -124.5 -289.5t-329.5 -112.5t-329 112.5t-124 289.5q0 178 124 290.5t329 112.5t329.5 -113t124.5 -290zM830 388q0 131 -88.5 217.5t-228.5 86.5q-139 0 -227.5 -86.5t-88.5 -217.5q0 -130 88.5 -216.5t227.5 -86.5q140 0 228.5 86.5t88.5 216.5z" />
    <glyph glyph-name="P" unicode="P" horiz-adv-x="789" 
d="M220 692v-251v251zM90 0v777h330q180 0 264.5 -51t84.5 -159t-85 -159.5t-264 -51.5h-200v-356h-130zM220 692v-251h200q100 0 156 28t56 98t-56 97.5t-156 27.5h-200z" />
    <glyph glyph-name="Q" unicode="Q" horiz-adv-x="1027" 
d="M893 -46l29 -107q-1 -3 -4.5 -7t-16 -14.5t-29.5 -19t-46.5 -15t-65.5 -6.5q-89 0 -131 42.5t-43 100.5q0 41 13 64q-41 -6 -86 -6q-205 0 -329 112.5t-124 289.5q0 178 124 290.5t329 112.5t329.5 -113t124.5 -290q0 -136 -76.5 -237t-209.5 -141h1q-28 -10 -28 -46
q0 -81 105 -81q34 0 60 7.5t39.5 17.5t22 20.5t10.5 17.5zM830 388q0 131 -88.5 217.5t-228.5 86.5q-139 0 -227.5 -86.5t-88.5 -217.5q0 -130 88.5 -216.5t227.5 -86.5q140 0 228.5 86.5t88.5 216.5z" />
    <glyph glyph-name="R" unicode="R" horiz-adv-x="849" 
d="M220 692v-251v251zM90 0v777h330q180 0 264.5 -51t84.5 -159q0 -86 -64.5 -131t-170.5 -45q64 -8 113 -39.5t65 -93.5q42 -160 54 -202t23 -56h-135q-11 14 -21.5 53t-44.5 183q-16 67 -66.5 93.5t-171.5 26.5h-130v-356h-130zM220 692v-251h200q100 0 156 28t56 98
t-56 97.5t-156 27.5h-200z" />
    <glyph glyph-name="S" unicode="S" horiz-adv-x="814" 
d="M348 476l198 -44q228 -51 228 -224q0 -106 -93 -164t-240 -58q-107 0 -188.5 28t-125 72t-64.5 88.5t-23 88.5l134 39q0 -5 -0.5 -12.5t2.5 -30t11 -43t26.5 -45.5t46 -43t73.5 -30.5t105 -12.5q92 0 146.5 33.5t54.5 83.5q0 52 -40 76.5t-136 47.5l-189 44
q-98 23 -148 75t-50 123q0 95 79.5 159t233.5 64q69 0 126 -13t92 -33.5t61.5 -45t39 -49t20 -45t8.5 -33.5l1 -13l-134 -36q1 7 0.5 18.5t-11 40.5t-30.5 51t-66.5 40.5t-112.5 18.5q-78 0 -125 -31t-47 -81q0 -42 34 -65.5t103 -38.5z" />
    <glyph glyph-name="T" unicode="T" horiz-adv-x="787" 
d="M0 692v85h787v-85h-330v-692h-127v692h-330z" />
    <glyph glyph-name="U" unicode="U" horiz-adv-x="916" 
d="M696 777h130v-456q0 -335 -368 -335t-368 335v456h130v-456q0 -74 15.5 -122t49 -72t73.5 -33t100 -9t100 9t73.5 33t49 72t15.5 122v456z" />
    <glyph glyph-name="V" unicode="V" horiz-adv-x="914" 
d="M894 777l-345 -777h-184l-345 777h139l298 -692l298 692h139z" />
    <glyph glyph-name="W" unicode="W" horiz-adv-x="1329" 
d="M1309 777l-265 -777h-184l-196 642l-195 -642h-184l-265 777h139l218 -692l208 692h159l208 -692l218 692h139z" />
    <glyph glyph-name="X" unicode="X" horiz-adv-x="852" 
d="M10 0l341 388l-341 389h150l266 -303l266 303h150l-341 -389l341 -388h-150l-266 303l-266 -303h-150z" />
    <glyph glyph-name="Y" unicode="Y" horiz-adv-x="852" 
d="M361 377l-351 400h150l266 -303l266 303h150l-351 -400v-377h-130v377z" />
    <glyph glyph-name="Z" unicode="Z" horiz-adv-x="743" 
d="M723 85v-85h-703v95l538 597h-538v85h703v-95l-538 -597h538z" />
    <glyph glyph-name="bracketleft" unicode="[" horiz-adv-x="333" 
d="M313 818v-50h-203v-897h203v-50h-253v997h253z" />
    <glyph glyph-name="backslash" unicode="\" horiz-adv-x="245" 
d="M-39 713l51 16l272 -824l-49 -15z" />
    <glyph glyph-name="bracketright" unicode="]" horiz-adv-x="333" 
d="M20 768v50h253v-997h-253v50h203v897h-203z" />
    <glyph glyph-name="underscore" unicode="_" horiz-adv-x="510" 
d="M490 -60v-50h-470v50h470z" />
    <glyph glyph-name="grave" unicode="`" horiz-adv-x="727" 
d="M400 821h150l116 -188h-67z" />
    <glyph glyph-name="a" unicode="a" horiz-adv-x="704" 
d="M571 366l-6 -233q-2 -58 44 -58q22 0 39.5 12.5t24.5 24.5l7 13l24 -89q-4 -6 -13 -14t-42.5 -22t-74.5 -14q-53 0 -88.5 30.5t-35.5 98.5v94l-9 -21t-20 -40.5t-35.5 -55t-46 -50t-62 -41.5t-73.5 -15q-60 0 -97 34.5t-37 87.5q0 38 18.5 75t59 74.5t118.5 66t184 40.5
q-2 1 0 12t-4.5 28.5t-16.5 34.5t-36 29t-62 12t-66 -11.5t-46 -28t-27 -33t-14 -27.5l-4 -12l-124 36q2 7 7 18t26.5 39.5t49.5 50t80 39.5t114 18q120 0 183 -57t61 -146zM197 133q0 -58 53 -58q48 0 97.5 47t76.5 98t26 75v35q-79 -20 -133 -47t-78 -55.5t-33 -50.5
t-9 -44z" />
    <glyph glyph-name="b" unicode="b" horiz-adv-x="747" 
d="M371 75q87 0 137.5 55.5t50.5 146.5t-50.5 147t-137.5 56t-136.5 -58.5t-49.5 -144.5t49.5 -144t136.5 -58zM210 777v-325q2 5 6 13t21 28t37.5 35.5t56.5 28t78 12.5q124 0 201 -82t77 -210t-77 -209.5t-201 -81.5q-49 0 -89 15t-62 36.5t-37 43t-20 36.5l-5 15
l-38 -132h-68v766q28 0 58 3t46 5z" />
    <glyph glyph-name="c" unicode="c" horiz-adv-x="727" 
d="M543 221l124 -36q-1 -4 -2.5 -11t-10.5 -28t-21.5 -39.5t-36.5 -41.5t-53.5 -39.5t-75 -28t-99.5 -11.5q-128 0 -218 78.5t-90 213.5q0 128 82 209.5t221 81.5q65 0 116.5 -16.5t82 -42.5t51 -61t28.5 -67.5t10 -67.5l-124 -36q7 84 -33 143t-131 59q-83 0 -129 -55.5
t-46 -146.5q0 -95 54 -149t141 -54q45 0 77.5 15t47.5 36.5t24 43t10 36.5z" />
    <glyph glyph-name="d" unicode="d" horiz-adv-x="747" 
d="M537 452v314q28 0 58 3t46 5l16 3v-777h-68l-38 132l-5.5 -16t-19 -35t-37 -44t-62 -35t-89.5 -16q-124 0 -201 81.5t-77 209.5t77 210t201 82q42 0 78 -12t57 -29.5t36.5 -34.5t21.5 -29zM376 75q87 0 136.5 58t49.5 144t-49.5 144.5t-136.5 58.5t-137.5 -56t-50.5 -147
t50.5 -146.5t137.5 -55.5z" />
    <glyph glyph-name="e" unicode="e" horiz-adv-x="727" 
d="M383 75q45 0 78 15t48 36.5t23.5 43t9.5 36.5l1 15l124 -36q-1 -8 -5 -21.5t-24.5 -48t-50 -60.5t-87.5 -47.5t-132 -21.5q-128 0 -218 78.5t-90 213.5q0 128 82.5 209.5t225.5 81.5q64 0 114 -17t79 -44t49.5 -59.5t28 -65t11.5 -59.5t3 -44l-1 -17l-464 10
q1 -93 55 -145.5t140 -52.5zM193 334l332 5q0 6 -1.5 15.5t-11 33.5t-25.5 43t-49 34t-77 15q-69 0 -112 -39.5t-56 -106.5z" />
    <glyph glyph-name="f" unicode="f" horiz-adv-x="496" 
d="M330 712q-52 0 -82 -23t-30 -63q0 -20 7.5 -37.5t14.5 -25.5l8 -8h204v-75h-198v-480h-120v480h-124v75h159q-4 1 -8.5 3t-16.5 9.5t-20.5 17t-15.5 26t-7 35.5q0 57 55.5 101t169.5 44q66 0 120 -17t84.5 -41.5t51 -48.5t27.5 -41l7 -17l-124 -36q-1 5 -4 13t-15 29
t-28 37.5t-46.5 29.5t-68.5 13z" />
    <glyph glyph-name="g" unicode="g" horiz-adv-x="727" 
d="M367 182q-58 0 -97 8q-72 -9 -72 -60q0 -55 86 -55h190q120 0 171.5 -42t51.5 -107q0 -159 -294 -159h-130q-124 0 -173.5 38t-49.5 88q0 52 48 82t121 32q-15 1 -34.5 4.5t-48 13t-47.5 30.5t-19 51q0 26 16.5 45.5t43.5 29.5t49 14.5t45 6.5q-73 23 -109.5 69.5
t-36.5 103.5q0 82 72.5 138t213.5 56q125 0 200 -47q-22 44 -19 75.5t41.5 46.5t106.5 7l24 -89q-89 16 -118 -21q-18 -23 5 -52q46 -49 46 -114q0 -82 -72 -137.5t-211 -55.5zM206 375q0 -51 38.5 -84.5t119.5 -33.5t119 33.5t38 84.5q0 52 -38 85.5t-119 33.5
q-82 0 -120 -33.5t-38 -85.5zM465 -13l-170 13q-5 0 -12.5 -0.5t-27.5 -5t-35.5 -13t-28 -26.5t-12.5 -42q0 -47 43.5 -66t155.5 -19q101 0 145.5 19.5t44.5 65.5q0 33 -23.5 51.5t-79.5 22.5z" />
    <glyph glyph-name="h" unicode="h" horiz-adv-x="748" 
d="M210 777v-361q1 8 5.5 21.5t19.5 38t36.5 44t62 34.5t91.5 15q233 0 233 -225v-344h-120v342q0 138 -157 138q-43 0 -75.5 -12.5t-50 -30t-28.5 -40t-14 -38.5t-3 -29v-330h-120v766q32 0 62 3t44 5z" />
    <glyph glyph-name="i" unicode="i" horiz-adv-x="300" 
d="M90 0v555h120v-555h-120zM90 681v96h120v-96h-120z" />
    <glyph glyph-name="j" unicode="j" horiz-adv-x="311" 
d="M101 7v548h120v-540q0 -117 -50.5 -184.5t-146.5 -67.5q-36 0 -64.5 11.5t-39.5 23.5l-10 11l24 89q2 -5 7 -12t22.5 -19t38.5 -12q99 0 99 152zM101 681v96h120v-96h-120z" />
    <glyph glyph-name="k" unicode="k" horiz-adv-x="654" 
d="M90 0v766q32 0 62 3t44 5l14 3v-452l244 230h146l-248 -234l302 -321h-155l-232 251l-57 -54v-197h-120z" />
    <glyph glyph-name="l" unicode="l" horiz-adv-x="300" 
d="M90 0v766q28 0 58 3t46 5l16 3v-777h-120z" />
    <glyph glyph-name="m" unicode="m" horiz-adv-x="1136" 
d="M926 0v342q0 138 -137 138q-49 0 -84 -18t-50 -45t-21 -48.5t-6 -38.5v-330h-120v349q-4 131 -137 131q-49 0 -84 -18t-50 -45t-21 -48.5t-6 -38.5v-330h-120v555h58l51 -165q1 7 4 19t18 43t37 54.5t66 43t101 19.5q173 0 198 -154q7 23 19.5 45.5t37 49t67 43
t96.5 16.5q111 0 157 -57t46 -168v-344h-120z" />
    <glyph glyph-name="n" unicode="n" horiz-adv-x="748" 
d="M538 0v342q0 138 -157 138q-43 0 -75.5 -12.5t-50 -30t-28.5 -40t-14 -38.5t-3 -29v-330h-120v555h58l51 -165q1 7 3 19t16 43t35.5 54.5t67 43t104.5 19.5q233 0 233 -225v-344h-120z" />
    <glyph glyph-name="o" unicode="o" horiz-adv-x="750" 
d="M60 278q0 126 85 208.5t230 82.5t230 -82.5t85 -208.5q0 -127 -85 -209.5t-230 -82.5t-230 82.5t-85 209.5zM188 278q0 -91 50.5 -147t136.5 -56q85 0 136 56t51 147t-51 146.5t-136 55.5q-86 0 -136.5 -55.5t-50.5 -146.5z" />
    <glyph glyph-name="p" unicode="p" horiz-adv-x="747" 
d="M90 555h68l38 -132l5.5 16t19 35t37 44t62 35t89.5 16q124 0 201 -81.5t77 -209.5t-77 -210t-201 -82q-43 0 -79 12t-57.5 29.5t-36.5 35t-20 29.5l-6 12v-327h-120v778zM371 480q-87 0 -136.5 -58t-49.5 -144t49.5 -144.5t136.5 -58.5t137.5 56t50.5 147t-50.5 146.5
t-137.5 55.5z" />
    <glyph glyph-name="q" unicode="q" horiz-adv-x="747" 
d="M589 555h68v-778h-120v326q-2 -5 -6 -13t-21 -28t-37.5 -35.5t-56.5 -28t-78 -12.5q-124 0 -201 82t-77 210t77 209.5t201 81.5q49 0 89 -15t62 -36.5t37 -43t20 -36.5l5 -15zM376 480q-87 0 -137.5 -55.5t-50.5 -146.5t50.5 -147t137.5 -56t136.5 58.5t49.5 144.5
t-49.5 144t-136.5 58z" />
    <glyph glyph-name="r" unicode="r" horiz-adv-x="512" 
d="M210 329v-329h-120v555h58l51 -165q1 7 3 19t13.5 43t28.5 54.5t50.5 43t76.5 19.5q121 0 121 -136q0 -32 -5 -61.5t-10 -43.5l-5 -13l-124 -36q21 64 21 128q0 73 -49 73q-35 0 -62 -32t-37.5 -65.5t-10.5 -53.5z" />
    <glyph glyph-name="s" unicode="s" horiz-adv-x="647" 
d="M576 402l-124 -36v12.5t-6.5 27t-20 34.5t-45 27.5t-76.5 12.5q-58 0 -86.5 -19.5t-28.5 -51.5q0 -52 112 -71l136 -24q170 -30 170 -154q0 -78 -71 -126t-176 -48q-81 0 -144 20.5t-95 50t-52 58.5t-25 49l-4 21l124 36q0 -3 -0.5 -8.5t2 -20.5t8 -28.5t19.5 -30.5
t34.5 -29t55 -20.5t78.5 -8.5q55 0 86.5 21t31.5 54q0 60 -116 81l-122 22q-88 16 -129 56t-41 94q0 77 67 121.5t168 44.5q71 0 125 -17t80.5 -42t42.5 -49.5t19 -41.5z" />
    <glyph glyph-name="t" unicode="t" horiz-adv-x="532" 
d="M20 480v75h129v126l115 80v-206h228v-75h-228v-279q0 -126 97 -126q27 0 50 8t36.5 20t23.5 24t13 20l4 8l24 -89q-2 -3 -6.5 -8.5t-20 -19.5t-34 -24.5t-50 -19t-65.5 -8.5q-92 0 -142 50t-50 152v292h-124z" />
    <glyph glyph-name="u" unicode="u" horiz-adv-x="748" 
d="M210 555v-342q0 -138 157 -138q43 0 75.5 12.5t50 30t28.5 40t14 38.5t3 29v330h120v-555h-58l-51 165q-1 -7 -3 -19t-16 -43t-35.5 -54.5t-67 -43t-104.5 -19.5q-233 0 -233 225v344h120z" />
    <glyph glyph-name="v" unicode="v" horiz-adv-x="668" 
d="M658 555l-259 -555h-131l-258 555h138l186 -448l188 448h136z" />
    <glyph glyph-name="w" unicode="w" horiz-adv-x="1011" 
d="M225 0l-215 555h138l149 -448l136 448h145l137 -448l148 448h138l-214 -555h-132l-149 465l-150 -465h-131z" />
    <glyph glyph-name="x" unicode="x" horiz-adv-x="662" 
d="M10 0l252 276l-252 279h149l172 -205l172 205h149l-253 -279l253 -276h-153l-168 204l-167 -204h-154z" />
    <glyph glyph-name="y" unicode="y" horiz-adv-x="636" 
d="M246 -1l16 36l-252 520h138l175 -393l167 393h136l-269 -555q-60 -124 -111 -180.5t-117 -56.5q-33 0 -60.5 11.5t-38.5 23.5l-11 11l14 89q3 -5 8 -12.5t23 -19t40 -11.5q36 0 75 40t67 104z" />
    <glyph glyph-name="z" unicode="z" horiz-adv-x="610" 
d="M40 0v85l380 395h-380v75h530v-85l-375 -395h375v-75h-530z" />
    <glyph glyph-name="braceleft" unicode="{" horiz-adv-x="306" 
d="M30 292v90q40 1 67.5 20.5t20.5 67.5l-21 136q-14 90 38.5 133t145.5 48l5 -41q-72 -7 -106 -40t-25 -109l16 -132q7 -59 -21.5 -91t-68.5 -37q40 -5 68.5 -37t21.5 -91l-16 -132q-9 -76 25 -109t106 -40l-5 -40q-94 5 -146 48t-38 132l21 136q7 48 -20.5 67.5
t-67.5 20.5z" />
    <glyph glyph-name="bar" unicode="|" horiz-adv-x="170" 
d="M60 729h50v-839h-50v839z" />
    <glyph glyph-name="braceright" unicode="}" horiz-adv-x="306" 
d="M276 382v-90q-40 -1 -67.5 -20.5t-20.5 -67.5l21 -136q14 -89 -38 -132t-146 -48l-5 40q72 7 106 40t25 109l-16 132q-7 59 21.5 91t68.5 37q-40 5 -68.5 37t-21.5 91l16 132q9 76 -25 109t-106 40l5 41q93 -5 145.5 -48t38.5 -133l-21 -136q-7 -48 20.5 -67.5
t67.5 -20.5z" />
    <glyph glyph-name="exclamdown" unicode="&#xa1;" horiz-adv-x="290" 
d="M210 -557h-130l10 537h110zM80 75v145h130v-145h-130z" />
    <glyph glyph-name="cent" unicode="&#xa2;" 
d="M421 -223h-43v210q-120 9 -201 86t-81 205q0 123 75.5 203t206.5 87v209h43v-209q74 -3 128 -28.5t82 -65t41 -78.5t15 -82l-124 -36q6 78 -28.5 135.5t-113.5 65.5v-404q44 0 76.5 15.5t47.5 36.5t23.5 42.5t9.5 36.5l1 15l124 -36q-1 -8 -5 -20.5t-23.5 -46t-47.5 -59
t-82.5 -48t-123.5 -24.5v-210zM224 278q0 -84 41.5 -136t112.5 -64v401q-74 -7 -114 -61.5t-40 -139.5z" />
    <glyph glyph-name="sterling" unicode="&#xa3;" 
d="M520 391v-50h-183q42 -56 42 -127q0 -54 -21 -101q34 -28 106 -28q53 0 90.5 25.5t53.5 61.5t24.5 72.5t8.5 61.5v26l134 -39q0 -6 -1 -17.5t-8 -43t-18 -60.5t-33.5 -64.5t-52 -61t-77 -43t-104.5 -17.5q-45 0 -88.5 15.5t-64.5 30.5l-20 16q-2 -3 -5.5 -7t-17 -14.5
t-29.5 -19t-44 -15t-59 -6.5q-73 0 -113 32t-40 92q0 56 34 89.5t96 33.5q76 0 143 -54q3 13 3 28q0 27 -14.5 52.5t-31.5 41.5t-48 40h-182v50h121q-73 68 -73 155q0 100 84 172.5t251 72.5q68 0 122.5 -14.5t87.5 -37.5t57.5 -51t35 -56t16 -51t6.5 -37v-15l-134 -40
q0 4 0.5 11.5t-1.5 28.5t-7.5 40t-19.5 42.5t-35 40.5t-56.5 28.5t-80.5 11.5q-94 0 -141.5 -34.5t-47.5 -97.5q0 -15 3 -29.5t5.5 -24.5t11.5 -23.5l13 -19.5t17.5 -20l16.5 -17t20 -18t19 -17h229zM147 52q28 0 51.5 13.5t33.5 26.5l10 14q-5 5 -19 18t-21 19t-19 14.5
t-23 12t-23 3.5q-30 0 -45 -17t-15 -43t19 -43.5t51 -17.5z" />
    <glyph glyph-name="yen" unicode="&#xa5;" 
d="M685 172v-50h-220v-122h-130v122h-220v50h220v110h-220v50h220v45l-325 400h160l230 -303l230 303h160l-325 -400v-45h220v-50h-220v-110h220z" />
    <glyph glyph-name="brokenbar" unicode="&#xa6;" horiz-adv-x="170" 
d="M60 225h50v-335h-50v335zM60 729h50v-335h-50v335z" />
    <glyph glyph-name="section" unicode="&#xa7;" horiz-adv-x="647" 
d="M407 130q95 -28 147.5 -82t52.5 -111q0 -78 -71 -126t-176 -48q-81 0 -144 20.5t-95 49.5t-52 58.5t-25 50.5l-4 20l124 36q0 -3 -0.5 -8.5t2 -20.5t8 -28.5t19.5 -30.5t34.5 -29t55 -20.5t78.5 -8.5q55 0 86.5 22.5t31.5 58.5q0 66 -96 112l-142 68q-84 40 -127 79.5
t-43 87.5q0 51 49.5 87.5t117.5 55.5q-91 38 -144.5 89t-53.5 105q0 78 71 126t176 48q81 0 144 -20.5t95 -49.5t52 -58.5t24 -50.5l5 -20l-124 -36q0 3 0.5 8.5t-2 20.5t-8 28.5t-19.5 30.5t-34.5 29t-55 20.5t-78.5 8.5q-54 0 -86 -23t-32 -57q0 -65 98 -113l146 -71
q101 -49 132.5 -87t31.5 -82q0 -48 -50 -83.5t-119 -55.5zM304 347q-47 0 -76.5 -14t-29.5 -39q0 -30 36.5 -58.5t108.5 -28.5q46 0 77 15t31 39q-2 35 -43 60.5t-104 25.5z" />
    <glyph glyph-name="dieresis" unicode="&#xa8;" horiz-adv-x="358" 
d="M19 681v96h120v-96h-120zM219 681v96h120v-96h-120z" />
    <glyph glyph-name="copyright" unicode="&#xa9;" horiz-adv-x="1064" 
d="M60 311q0 199 136.5 335.5t335.5 136.5t335.5 -136.5t136.5 -335.5t-136.5 -335.5t-335.5 -136.5t-335.5 136.5t-136.5 335.5zM116 310q0 -173 121.5 -294.5t294.5 -121.5t294.5 121.5t121.5 294.5t-121.5 294.5t-294.5 121.5t-294.5 -121.5t-121.5 -294.5zM835 377
l-122 -36q0 7 -1 18t-10.5 40t-27 51t-56.5 40t-92 18q-88 0 -139.5 -55.5t-51.5 -141.5q0 -85 54 -141.5t143 -56.5q37 0 67.5 10t49 25.5t33 34.5t21 37.5t10.5 34t5 25.5v10l122 -34q-1 -5 -2.5 -13.5t-9.5 -34t-20 -48t-36 -50.5t-55 -48t-79 -34t-106 -14
q-146 0 -233 83.5t-87 213.5q0 131 83.5 213.5t230.5 82.5q60 0 109.5 -12.5t81 -33t55 -45t35 -49t18.5 -45t9 -32.5z" />
    <glyph glyph-name="guillemotleft" unicode="&#xab;" horiz-adv-x="551" 
d="M30 277l181 219h90l-151 -219l151 -219h-90zM250 277l181 219h90l-151 -219l151 -219h-90z" />
    <glyph glyph-name="registered" unicode="&#xae;" horiz-adv-x="1064" 
d="M60 311q0 199 136.5 335.5t335.5 136.5t335.5 -136.5t136.5 -335.5t-136.5 -335.5t-335.5 -136.5t-335.5 136.5t-136.5 335.5zM116 310q0 -173 121.5 -294.5t294.5 -121.5t294.5 121.5t121.5 294.5t-121.5 294.5t-294.5 121.5t-294.5 -121.5t-121.5 -294.5zM292 595v-569
h118v247h75q74 0 107.5 -17t43.5 -55l8 -31q19 -80 26 -105t18 -39h130q-17 24 -29 58.5t-38 137.5q-8 33 -30.5 56t-55.5 27q59 3 92 39t33 89q0 162 -255 162h-243zM410 360v146h125q132 0 132 -73t-132 -73h-125z" />
    <glyph glyph-name="degree" unicode="&#xb0;" horiz-adv-x="348" 
d="M40 597q0 54 39.5 93t93.5 39q55 0 95 -39t40 -93t-40 -92t-95 -38q-54 0 -93.5 38t-39.5 92zM96 597q0 -35 22 -57t55 -22q34 0 56.5 22t22.5 57q0 36 -22.5 58.5t-56.5 22.5q-33 0 -55 -22.5t-22 -58.5z" />
    <glyph glyph-name="plusminus" unicode="&#xb1;" horiz-adv-x="650" 
d="M300 696h50v-280h280v-50h-280v-280h-50v280h-280v50h280v280zM630 50v-50h-610v50h610z" />
    <glyph glyph-name="acute" unicode="&#xb4;" horiz-adv-x="727" 
d="M650 821h150l-199 -188h-67z" />
    <glyph glyph-name="paragraph" unicode="&#xb6;" horiz-adv-x="714" 
d="M299 -223v561q-124 0 -201.5 56t-77.5 161q0 115 76.5 168.5t202.5 53.5h325v-1000h-118v915h-87v-915h-120z" />
    <glyph glyph-name="periodcentered" unicode="&#xb7;" horiz-adv-x="545" 
d="M72 280q0 84 58.5 142.5t141.5 58.5t142 -58.5t59 -142.5q0 -82 -59 -140.5t-142 -58.5q-82 0 -141 58.5t-59 140.5z" />
    <glyph glyph-name="cedilla" unicode="&#xb8;" horiz-adv-x="833" 
d="M382 22l-30 -87q20 17 54 17q35 0 57 -21.5t22 -61.5q0 -49 -37.5 -77.5t-94.5 -28.5q-35 0 -65 11.5t-42 23.5l-12 12l18 68q4 -6 11 -15.5t32 -25.5t53 -16q31 0 49 13.5t18 37.5q0 21 -11.5 32.5t-30.5 11.5q-12 0 -21.5 -5.5t-13.5 -10.5l-4 -6l-43 3l43 125h48z" />
    <glyph glyph-name="guillemotright" unicode="&#xbb;" horiz-adv-x="551" 
d="M120 496l181 -219l-181 -219h-90l151 219l-151 219h90zM340 496l181 -219l-181 -219h-90l151 219l-151 219h90z" />
    <glyph glyph-name="onequarter" unicode="&#xbc;" horiz-adv-x="778" 
d="M403 94v62l211 232h86v-252h78v-42h-78v-94h-65v94h-232zM582 784l48 -24l-413 -763l-46 23zM320 390h-320v42h150l-1 304q0 -59 -30 -82.5t-119 -23.5v49q78 0 114 22t36 77h65v-346h105v-42zM635 341l-182 -205h182v205z" />
    <glyph glyph-name="onehalf" unicode="&#xbd;" horiz-adv-x="778" 
d="M770 268q0 -29 -12.5 -56.5t-29 -47t-43.5 -41t-46 -33l-46.5 -27.5t-34.5 -21h220v-42h-320v37q10 4 26.5 11.5t58.5 32t74 50t58.5 62.5t26.5 73q0 35 -22.5 57.5t-66.5 22.5q-43 0 -64.5 -22.5t-21.5 -56.5q0 -22 11.5 -42.5t21 -28t14.5 -10.5l-66 -20q-5 4 -13 12
t-21.5 35t-13.5 56q0 50 40.5 88t113.5 38q75 0 115.5 -35.5t40.5 -91.5zM582 784l48 -24l-413 -763l-46 23zM320 390h-320v42h150l-1 304q0 -59 -30 -82.5t-119 -23.5v49q78 0 114 22t36 77h65v-346h105v-42z" />
    <glyph glyph-name="threequarters" unicode="&#xbe;" horiz-adv-x="778" 
d="M403 94v62l211 232h86v-252h78v-42h-78v-94h-65v94h-232zM168 574h-25v42h25q45 0 71.5 17t26.5 47q0 27 -23 44.5t-60 17.5q-29 0 -49.5 -9.5t-29 -23t-13 -27t-4.5 -22.5v-10l-67 20l2.5 13t12.5 29t27 37t49 29t75 13q66 0 107.5 -29t41.5 -73q0 -26 -12 -44.5
t-31 -26.5t-32 -10.5t-25 -3.5q10 -1 18 -2t27 -7t31.5 -15t23 -28.5t10.5 -45.5q0 -58 -47 -87.5t-118 -29.5q-49 0 -85.5 14t-53.5 33.5t-27.5 39t-11.5 33.5l-2 14l67 20v-11t5 -25.5t15 -32t34 -25t57 -11.5q46 0 72 18t26 51q0 67 -108 67zM582 784l48 -24l-413 -763
l-46 23zM635 341l-182 -205h182v205z" />
    <glyph glyph-name="questiondown" unicode="&#xbf;" horiz-adv-x="760" 
d="M304 75v145h130v-145h-130zM700 -346q0 -38 -15 -74.5t-48 -72t-95 -57t-145 -21.5q-66 0 -120 16t-88 42t-59.5 57t-38.5 62t-20.5 57t-8.5 42l-2 16l134 40q-1 -5 -1.5 -13.5t1 -32.5t7 -46t19.5 -49t35 -46t58 -32.5t84 -13.5q80 0 123 40.5t43 96.5q0 39 -18.5 68.5
t-46 45.5l-60 35t-60 37t-46 51.5t-18.5 77.5h110q0 -40 28.5 -71.5t69 -54.5l81 -47.5t69 -63.5t28.5 -89z" />
    <glyph glyph-name="Agrave" unicode="&#xc0;" horiz-adv-x="974" 
d="M815 0l-111 247h-435l-111 -247h-138l360 777h214l360 -777h-139zM470 692l-162 -360h358l-161 360h-35zM296 1043h150l116 -188h-67z" />
    <glyph glyph-name="Aacute" unicode="&#xc1;" horiz-adv-x="974" 
d="M815 0l-111 247h-435l-111 -247h-138l360 777h214l360 -777h-139zM470 692l-162 -360h358l-161 360h-35zM526 1043h150l-199 -188h-67z" />
    <glyph glyph-name="Acircumflex" unicode="&#xc2;" horiz-adv-x="974" 
d="M815 0l-111 247h-435l-111 -247h-138l360 777h214l360 -777h-139zM470 692l-162 -360h358l-161 360h-35zM412 1043h90l176 -188h-67l-154 106l-154 -106h-67z" />
    <glyph glyph-name="Atilde" unicode="&#xc3;" horiz-adv-x="974" 
d="M815 0l-111 247h-435l-111 -247h-138l360 777h214l360 -777h-139zM470 692l-162 -360h358l-161 360h-35zM568 957q22 0 38 14t20 28l5 14l40 -36q-1 -4 -3 -10.5t-10.5 -23t-19.5 -29t-30.5 -23t-42.5 -10.5q-41 0 -85.5 28t-72.5 28q-21 0 -36.5 -14t-20.5 -28l-5 -14
l-40 36q1 4 3 10.5t10.5 23t19.5 29t30.5 23t42.5 10.5q40 0 85.5 -28t71.5 -28z" />
    <glyph glyph-name="Adieresis" unicode="&#xc4;" horiz-adv-x="974" 
d="M815 0l-111 247h-435l-111 -247h-138l360 777h214l360 -777h-139zM470 692l-162 -360h358l-161 360h-35zM327 903v96h120v-96h-120zM527 903v96h120v-96h-120z" />
    <glyph glyph-name="Aring" unicode="&#xc5;" horiz-adv-x="974" 
d="M815 0l-111 247h-435l-111 -247h-138l360 777h214l360 -777h-139zM470 692l-162 -360h358l-161 360h-35zM378 951q0 45 32 78t77 33q47 0 79 -31.5t32 -79.5q0 -44 -33 -76.5t-78 -32.5q-44 0 -76.5 32.5t-32.5 76.5zM439 952q0 -21 14 -35t35 -14t35 14.5t14 34.5
q0 19 -14.5 34t-34.5 15q-21 0 -35 -14t-14 -35z" />
    <glyph glyph-name="AE" unicode="&#xc6;" horiz-adv-x="1169" 
d="M584 0v347h-280l-156 -347h-138l360 777h730v-85h-386v-260h358v-85h-358v-262h415v-85h-545zM460 692l-117 -260h241v260h-124z" />
    <glyph glyph-name="Ccedilla" unicode="&#xc7;" horiz-adv-x="984" 
d="M790 332l134 -39zM903 469l-134 -40zM903 469l-134 -40q0 5 -1 14.5t-7.5 37t-16.5 52.5t-31 55t-49 52t-72.5 37t-98.5 15q-137 0 -216.5 -85.5t-79.5 -218.5q0 -131 84 -217t222 -86q57 0 104 13.5t76 35.5t50.5 48t32 52.5t16.5 48.5t7 35l1 14l134 -39l-3 -17.5
t-12.5 -43t-27 -60.5t-49.5 -64.5t-75 -61t-108 -43t-146 -17.5h-2l-17 -51q20 17 54 17q35 0 57 -21.5t22 -61.5q0 -49 -37.5 -77.5t-94.5 -28.5q-35 0 -65 11.5t-42 23.5l-12 12l18 68q4 -6 11 -15.5t32 -25.5t53 -16q31 0 49 13.5t18 37.5q0 21 -11.5 32.5t-30.5 11.5
q-12 0 -21.5 -5.5t-13.5 -10.5l-4 -6l-43 3l31 91q-183 14 -288.5 123.5t-105.5 276.5q0 180 115 291.5t318 111.5q77 0 141.5 -18t105.5 -46t73 -62.5t48 -69t26.5 -62.5t12.5 -46z" />
    <glyph glyph-name="Egrave" unicode="&#xc8;" horiz-adv-x="745" 
d="M90 0v777h586v-85h-456v-260h428v-85h-428v-262h485v-85h-615zM206 1043h150l116 -188h-67z" />
    <glyph glyph-name="Eacute" unicode="&#xc9;" horiz-adv-x="745" 
d="M90 0v777h586v-85h-456v-260h428v-85h-428v-262h485v-85h-615zM436 1043h150l-199 -188h-67z" />
    <glyph glyph-name="Ecircumflex" unicode="&#xca;" horiz-adv-x="745" 
d="M90 0v777h586v-85h-456v-260h428v-85h-428v-262h485v-85h-615zM352 1043h90l176 -188h-67l-154 106l-154 -106h-67z" />
    <glyph glyph-name="Edieresis" unicode="&#xcb;" horiz-adv-x="745" 
d="M90 0v777h586v-85h-456v-260h428v-85h-428v-262h485v-85h-615zM267 903v96h120v-96h-120zM467 903v96h120v-96h-120z" />
    <glyph glyph-name="Igrave" unicode="&#xcc;" horiz-adv-x="310" 
d="M90 777h130v-777h-130v777zM-56 1043h150l116 -188h-67z" />
    <glyph glyph-name="Iacute" unicode="&#xcd;" horiz-adv-x="310" 
d="M90 777h130v-777h-130v777zM174 1043h150l-199 -188h-67z" />
    <glyph glyph-name="Icircumflex" unicode="&#xce;" horiz-adv-x="310" 
d="M90 777h130v-777h-130v777zM90 1043h90l176 -188h-67l-154 106l-154 -106h-67z" />
    <glyph glyph-name="Idieresis" unicode="&#xcf;" horiz-adv-x="310" 
d="M90 777h130v-777h-130v777zM5 903v96h120v-96h-120zM205 903v96h120v-96h-120z" />
    <glyph glyph-name="Ntilde" unicode="&#xd1;" horiz-adv-x="931" 
d="M841 777v-777h-160l-461 642v-642h-130v777h160l461 -642v642h130zM546 955q22 0 38 14t20 28l5 14l40 -36q-1 -4 -3 -10.5t-10.5 -23t-19.5 -29t-30.5 -23t-42.5 -10.5q-41 0 -85.5 28t-72.5 28q-21 0 -36.5 -14t-20.5 -28l-5 -14l-40 36q1 4 3 10.5t10.5 23t19.5 29
t30.5 23t42.5 10.5q40 0 85.5 -28t71.5 -28z" />
    <glyph glyph-name="Ograve" unicode="&#xd2;" horiz-adv-x="1027" 
d="M967 388q0 -177 -124.5 -289.5t-329.5 -112.5t-329 112.5t-124 289.5q0 178 124 290.5t329 112.5t329.5 -113t124.5 -290zM830 388q0 131 -88.5 217.5t-228.5 86.5q-139 0 -227.5 -86.5t-88.5 -217.5q0 -130 88.5 -216.5t227.5 -86.5q140 0 228.5 86.5t88.5 216.5z
M293 1043h150l116 -188h-67z" />
    <glyph glyph-name="Oacute" unicode="&#xd3;" horiz-adv-x="1027" 
d="M967 388q0 -177 -124.5 -289.5t-329.5 -112.5t-329 112.5t-124 289.5q0 178 124 290.5t329 112.5t329.5 -113t124.5 -290zM830 388q0 131 -88.5 217.5t-228.5 86.5q-139 0 -227.5 -86.5t-88.5 -217.5q0 -130 88.5 -216.5t227.5 -86.5q140 0 228.5 86.5t88.5 216.5z
M523 1043h150l-199 -188h-67z" />
    <glyph glyph-name="Ocircumflex" unicode="&#xd4;" horiz-adv-x="1027" 
d="M967 388q0 -177 -124.5 -289.5t-329.5 -112.5t-329 112.5t-124 289.5q0 178 124 290.5t329 112.5t329.5 -113t124.5 -290zM830 388q0 131 -88.5 217.5t-228.5 86.5q-139 0 -227.5 -86.5t-88.5 -217.5q0 -130 88.5 -216.5t227.5 -86.5q140 0 228.5 86.5t88.5 216.5z
M467 1043h90l176 -188h-67l-154 106l-154 -106h-67z" />
    <glyph glyph-name="Odieresis" unicode="&#xd6;" horiz-adv-x="1027" 
d="M967 388q0 -177 -124.5 -289.5t-329.5 -112.5t-329 112.5t-124 289.5q0 178 124 290.5t329 112.5t329.5 -113t124.5 -290zM830 388q0 131 -88.5 217.5t-228.5 86.5q-139 0 -227.5 -86.5t-88.5 -217.5q0 -130 88.5 -216.5t227.5 -86.5q140 0 228.5 86.5t88.5 216.5z
M354 903v96h120v-96h-120zM554 903v96h120v-96h-120z" />
    <glyph glyph-name="multiply" unicode="&#xd7;" horiz-adv-x="650" 
d="M60 502l36 36l229 -229l229 229l36 -36l-229 -229l229 -229l-36 -36l-229 229l-229 -229l-36 36l229 229z" />
    <glyph glyph-name="Oslash" unicode="&#xd8;" horiz-adv-x="1027" 
d="M967 388q0 -177 -124.5 -289.5t-329.5 -112.5q-55 0 -103 9l-33 -100l-49 15l31 95q-139 38 -219 140.5t-80 242.5q0 178 124 290.5t329 112.5q53 0 103 -9l33 100l51 -16l-32 -95q139 -39 219 -141t80 -242zM197 388q0 -98 52.5 -174t142.5 -109l192 580q-32 7 -71 7
q-139 0 -227.5 -86.5t-88.5 -217.5zM830 388q0 98 -52.5 174t-142.5 109l-193 -580q34 -6 71 -6q140 0 228.5 86.5t88.5 216.5z" />
    <glyph glyph-name="Ugrave" unicode="&#xd9;" horiz-adv-x="916" 
d="M696 777h130v-456q0 -335 -368 -335t-368 335v456h130v-456q0 -74 15.5 -122t49 -72t73.5 -33t100 -9t100 9t73.5 33t49 72t15.5 122v456zM256 1043h150l116 -188h-67z" />
    <glyph glyph-name="Uacute" unicode="&#xda;" horiz-adv-x="916" 
d="M696 777h130v-456q0 -335 -368 -335t-368 335v456h130v-456q0 -74 15.5 -122t49 -72t73.5 -33t100 -9t100 9t73.5 33t49 72t15.5 122v456zM486 1043h150l-199 -188h-67z" />
    <glyph glyph-name="Ucircumflex" unicode="&#xdb;" horiz-adv-x="916" 
d="M696 777h130v-456q0 -335 -368 -335t-368 335v456h130v-456q0 -74 15.5 -122t49 -72t73.5 -33t100 -9t100 9t73.5 33t49 72t15.5 122v456zM402 1043h90l176 -188h-67l-154 106l-154 -106h-67z" />
    <glyph glyph-name="Udieresis" unicode="&#xdc;" horiz-adv-x="916" 
d="M696 777h130v-456q0 -335 -368 -335t-368 335v456h130v-456q0 -74 15.5 -122t49 -72t73.5 -33t100 -9t100 9t73.5 33t49 72t15.5 122v456zM317 903v96h120v-96h-120zM517 903v96h120v-96h-120z" />
    <glyph glyph-name="Yacute" unicode="&#xdd;" horiz-adv-x="852" 
d="M361 377l-351 400h150l266 -303l266 303h150l-351 -400v-377h-130v377zM453 1043h150l-199 -188h-67z" />
    <glyph glyph-name="germandbls" unicode="&#xdf;" horiz-adv-x="689" 
d="M639 170q0 -84 -55 -134t-139 -50q-32 0 -59 8t-43 20t-28 24t-17 20l-4 8l24 88q1 -4 3 -10t10 -19t18 -23.5t27.5 -18.5t38.5 -8q44 0 70.5 27.5t26.5 73.5q0 61 -33.5 100.5t-82 54t-110.5 14.5v75q89 0 147.5 39.5t58.5 99.5q0 62 -36 102.5t-106 40.5
q-73 0 -106.5 -40.5t-33.5 -106.5v-555h-120v575q0 42 11 77.5t38 68t79.5 51.5t127.5 19q74 0 129 -19t85 -51t44.5 -68t14.5 -76q0 -48 -22 -83t-49 -51t-62.5 -25.5t-50.5 -10.5t-24 -1q11 -2 21.5 -5t41.5 -13t56 -27t51.5 -41.5t42 -63.5t15.5 -86z" />
    <glyph glyph-name="agrave" unicode="&#xe0;" horiz-adv-x="704" 
d="M565 133l6 233q2 89 -61 146t-183 57q-46 0 -85.5 -9t-67 -23.5t-50 -32.5t-36 -35.5t-22.5 -32t-12 -23.5l-4 -9l124 -36q1 5 3.5 12.5t14.5 26.5t27.5 34t45.5 27t66 12t61.5 -12t36.5 -29t16.5 -34t4.5 -29v-12q-106 -12 -184 -40.5t-118.5 -66t-59 -74.5t-18.5 -75
q0 -53 37 -87.5t97 -34.5q38 0 73.5 15t62 41.5t46 50t35.5 55t20 40.5l9 21v-94q0 -68 35.5 -98.5t88.5 -30.5q41 0 73.5 12.5t44.5 25.5l12 12l-24 89q-2 -6 -7 -14t-23.5 -22t-40.5 -14q-46 0 -44 58zM197 133q0 22 9 44t33 50.5t78 55.5t133 47v-35q1 -24 -26 -75
t-76.5 -98t-97.5 -47q-53 0 -53 58zM135 821h150l116 -188h-67z" />
    <glyph glyph-name="aacute" unicode="&#xe1;" horiz-adv-x="704" 
d="M565 133l6 233q2 89 -61 146t-183 57q-46 0 -85.5 -9t-67 -23.5t-50 -32.5t-36 -35.5t-22.5 -32t-12 -23.5l-4 -9l124 -36q1 5 3.5 12.5t14.5 26.5t27.5 34t45.5 27t66 12t61.5 -12t36.5 -29t16.5 -34t4.5 -29v-12q-106 -12 -184 -40.5t-118.5 -66t-59 -74.5t-18.5 -75
q0 -53 37 -87.5t97 -34.5q38 0 73.5 15t62 41.5t46 50t35.5 55t20 40.5l9 21v-94q0 -68 35.5 -98.5t88.5 -30.5q41 0 73.5 12.5t44.5 25.5l12 12l-24 89q-2 -6 -7 -14t-23.5 -22t-40.5 -14q-46 0 -44 58zM197 133q0 22 9 44t33 50.5t78 55.5t133 47v-35q1 -24 -26 -75
t-76.5 -98t-97.5 -47q-53 0 -53 58zM385 821h150l-199 -188h-67z" />
    <glyph glyph-name="acircumflex" unicode="&#xe2;" horiz-adv-x="704" 
d="M565 133l6 233q2 89 -61 146t-183 57q-46 0 -85.5 -9t-67 -23.5t-50 -32.5t-36 -35.5t-22.5 -32t-12 -23.5l-4 -9l124 -36q1 5 3.5 12.5t14.5 26.5t27.5 34t45.5 27t66 12t61.5 -12t36.5 -29t16.5 -34t4.5 -29v-12q-106 -12 -184 -40.5t-118.5 -66t-59 -74.5t-18.5 -75
q0 -53 37 -87.5t97 -34.5q38 0 73.5 15t62 41.5t46 50t35.5 55t20 40.5l9 21v-94q0 -68 35.5 -98.5t88.5 -30.5q41 0 73.5 12.5t44.5 25.5l12 12l-24 89q-2 -6 -7 -14t-23.5 -22t-40.5 -14q-46 0 -44 58zM197 133q0 22 9 44t33 50.5t78 55.5t133 47v-35q1 -24 -26 -75
t-76.5 -98t-97.5 -47q-53 0 -53 58zM291 821h90l176 -188h-67l-154 106l-154 -106h-67z" />
    <glyph glyph-name="atilde" unicode="&#xe3;" horiz-adv-x="704" 
d="M565 133l6 233q2 89 -61 146t-183 57q-46 0 -85.5 -9t-67 -23.5t-50 -32.5t-36 -35.5t-22.5 -32t-12 -23.5l-4 -9l124 -36q1 5 3.5 12.5t14.5 26.5t27.5 34t45.5 27t66 12t61.5 -12t36.5 -29t16.5 -34t4.5 -29v-12q-106 -12 -184 -40.5t-118.5 -66t-59 -74.5t-18.5 -75
q0 -53 37 -87.5t97 -34.5q38 0 73.5 15t62 41.5t46 50t35.5 55t20 40.5l9 21v-94q0 -68 35.5 -98.5t88.5 -30.5q41 0 73.5 12.5t44.5 25.5l12 12l-24 89q-2 -6 -7 -14t-23.5 -22t-40.5 -14q-46 0 -44 58zM197 133q0 22 9 44t33 50.5t78 55.5t133 47v-35q1 -24 -26 -75
t-76.5 -98t-97.5 -47q-53 0 -53 58zM417 735q22 0 38 14t21 28l4 14l40 -36q-1 -4 -3 -10.5t-10.5 -23t-19.5 -29t-30.5 -23t-42.5 -10.5q-41 0 -85.5 28t-72.5 28q-21 0 -36.5 -14t-20.5 -28l-5 -14l-40 36q1 4 3 10.5t10.5 23t19.5 29t30.5 23t42.5 10.5q40 0 85.5 -28
t71.5 -28z" />
    <glyph glyph-name="adieresis" unicode="&#xe4;" horiz-adv-x="704" 
d="M565 133l6 233q2 89 -61 146t-183 57q-46 0 -85.5 -9t-67 -23.5t-50 -32.5t-36 -35.5t-22.5 -32t-12 -23.5l-4 -9l124 -36q1 5 3.5 12.5t14.5 26.5t27.5 34t45.5 27t66 12t61.5 -12t36.5 -29t16.5 -34t4.5 -29v-12q-106 -12 -184 -40.5t-118.5 -66t-59 -74.5t-18.5 -75
q0 -53 37 -87.5t97 -34.5q38 0 73.5 15t62 41.5t46 50t35.5 55t20 40.5l9 21v-94q0 -68 35.5 -98.5t88.5 -30.5q41 0 73.5 12.5t44.5 25.5l12 12l-24 89q-2 -6 -7 -14t-23.5 -22t-40.5 -14q-46 0 -44 58zM197 133q0 22 9 44t33 50.5t78 55.5t133 47v-35q1 -24 -26 -75
t-76.5 -98t-97.5 -47q-53 0 -53 58zM176 681v96h120v-96h-120zM376 681v96h120v-96h-120z" />
    <glyph glyph-name="aring" unicode="&#xe5;" horiz-adv-x="704" 
d="M565 133l6 233q2 89 -61 146t-183 57q-46 0 -85.5 -9t-67 -23.5t-50 -32.5t-36 -35.5t-22.5 -32t-12 -23.5l-4 -9l124 -36q1 5 3.5 12.5t14.5 26.5t27.5 34t45.5 27t66 12t61.5 -12t36.5 -29t16.5 -34t4.5 -29v-12q-106 -12 -184 -40.5t-118.5 -66t-59 -74.5t-18.5 -75
q0 -53 37 -87.5t97 -34.5q38 0 73.5 15t62 41.5t46 50t35.5 55t20 40.5l9 21v-94q0 -68 35.5 -98.5t88.5 -30.5q41 0 73.5 12.5t44.5 25.5l12 12l-24 89q-2 -6 -7 -14t-23.5 -22t-40.5 -14q-46 0 -44 58zM227 729q0 45 32 78t77 33q47 0 79 -31.5t32 -79.5q0 -44 -33 -76.5
t-78 -32.5q-44 0 -76.5 32.5t-32.5 76.5zM197 133q0 22 9 44t33 50.5t78 55.5t133 47v-35q1 -24 -26 -75t-76.5 -98t-97.5 -47q-53 0 -53 58zM288 730q0 -21 14 -35t35 -14t35 14.5t14 34.5q0 19 -14.5 34t-34.5 15q-21 0 -35 -14t-14 -35z" />
    <glyph glyph-name="ae" unicode="&#xe6;" horiz-adv-x="1077" 
d="M741 75q42 0 73 15t45.5 36.5t23 43t9.5 36.5l1 15l124 -36q-1 -8 -5 -21.5t-23.5 -48t-47 -60.5t-81.5 -47.5t-122 -21.5q-106 0 -179.5 60t-89.5 181q-4 -10 -11 -26t-31.5 -57.5t-53 -73.5t-74.5 -58t-95 -26q-60 0 -97 34.5t-37 87.5q0 38 18.5 75t59 74.5t118.5 66
t184 40.5q-2 1 0 12t-4.5 28.5t-16.5 34.5t-36 29t-62 12t-66 -11.5t-46 -28t-27 -33t-14 -27.5l-4 -12l-124 36q2 7 7 18t26.5 39.5t49.5 50t80 39.5t114 18q68 0 120.5 -25t80.5 -64q78 89 210 89q62 0 109.5 -16.5t75 -42.5t46 -57.5t25 -63t9 -57.5t1.5 -42l-2 -17
l-424 10v-5q0 -93 40.5 -148t122.5 -55zM197 133q0 -58 53 -58q48 0 97.5 47t76.5 98t26 75v35q-79 -20 -133 -47t-78 -55.5t-33 -50.5t-9 -44zM580 324l295 14q0 6 -0.5 15.5t-8 34t-21 43t-43.5 34t-71 15.5q-134 0 -151 -156z" />
    <glyph glyph-name="ccedilla" unicode="&#xe7;" horiz-adv-x="727" 
d="M543 221l124 -36q-1 -8 -5 -21.5t-24.5 -47.5t-50 -60.5t-87.5 -48t-131 -21.5l-17 -51q20 17 54 17q35 0 57 -21.5t22 -61.5q0 -49 -37.5 -77.5t-94.5 -28.5q-35 0 -65 11.5t-42 23.5l-12 12l18 68q2 -5 11 -16.5t33 -26t52 -14.5q31 0 49 13.5t18 37.5q0 21 -11.5 32.5
t-30.5 11.5q-12 0 -21.5 -5.5t-13.5 -10.5l-4 -6l-43 3l31 92q-113 13 -187.5 90t-74.5 199q0 128 82 209.5t221 81.5q65 0 116.5 -16.5t82 -42.5t51 -61t28.5 -67.5t10 -67.5l-124 -36q7 84 -33 143t-131 59q-83 0 -129 -55.5t-46 -146.5q0 -95 54 -149t141 -54
q45 0 77.5 15t47.5 36.5t24 43t10 36.5z" />
    <glyph glyph-name="egrave" unicode="&#xe8;" horiz-adv-x="727" 
d="M383 75q-86 0 -140 52.5t-55 145.5l464 -10q1 6 1 17t-3 43t-11 61t-28.5 64t-49.5 60.5t-79 43t-114 17.5q-143 0 -225.5 -81.5t-82.5 -209.5q0 -135 90 -213.5t218 -78.5q74 0 132 20.5t88 50t49.5 58.5t24.5 49l5 21l-124 36q0 -6 -1 -16t-9.5 -35t-23.5 -44t-48 -35
t-78 -16zM525 339l-332 -5q13 67 56 106.5t112 39.5q44 0 77 -14.5t49 -35t25.5 -41.5t11.5 -35zM170 821h150l116 -188h-67z" />
    <glyph glyph-name="eacute" unicode="&#xe9;" horiz-adv-x="727" 
d="M383 75q-86 0 -140 52.5t-55 145.5l464 -10q1 6 1 17t-3 43t-11 61t-28.5 64t-49.5 60.5t-79 43t-114 17.5q-143 0 -225.5 -81.5t-82.5 -209.5q0 -135 90 -213.5t218 -78.5q74 0 132 20.5t88 50t49.5 58.5t24.5 49l5 21l-124 36q0 -6 -1 -16t-9.5 -35t-23.5 -44t-48 -35
t-78 -16zM525 339l-332 -5q13 67 56 106.5t112 39.5q44 0 77 -14.5t49 -35t25.5 -41.5t11.5 -35zM420 821h150l-199 -188h-67z" />
    <glyph glyph-name="ecircumflex" unicode="&#xea;" horiz-adv-x="727" 
d="M383 75q-86 0 -140 52.5t-55 145.5l464 -10q1 6 1 17t-3 43t-11 61t-28.5 64t-49.5 60.5t-79 43t-114 17.5q-143 0 -225.5 -81.5t-82.5 -209.5q0 -135 90 -213.5t218 -78.5q74 0 132 20.5t88 50t49.5 58.5t24.5 49l5 21l-124 36q0 -6 -1 -16t-9.5 -35t-23.5 -44t-48 -35
t-78 -16zM525 339l-332 -5q13 67 56 106.5t112 39.5q44 0 77 -14.5t49 -35t25.5 -41.5t11.5 -35zM326 821h90l176 -188h-67l-154 106l-154 -106h-67z" />
    <glyph glyph-name="edieresis" unicode="&#xeb;" horiz-adv-x="727" 
d="M383 75q-86 0 -140 52.5t-55 145.5l464 -10q1 6 1 17t-3 43t-11 61t-28.5 64t-49.5 60.5t-79 43t-114 17.5q-143 0 -225.5 -81.5t-82.5 -209.5q0 -135 90 -213.5t218 -78.5q74 0 132 20.5t88 50t49.5 58.5t24.5 49l5 21l-124 36q0 -6 -1 -16t-9.5 -35t-23.5 -44t-48 -35
t-78 -16zM525 339l-332 -5q13 67 56 106.5t112 39.5q44 0 77 -14.5t49 -35t25.5 -41.5t11.5 -35zM211 681v96h120v-96h-120zM411 681v96h120v-96h-120z" />
    <glyph glyph-name="igrave" unicode="&#xec;" horiz-adv-x="300" 
d="M90 0v555h120v-555h-120zM-57 821h150l116 -188h-67z" />
    <glyph glyph-name="iacute" unicode="&#xed;" horiz-adv-x="300" 
d="M90 0v555h120v-555h-120zM218 821h150l-199 -188h-67z" />
    <glyph glyph-name="icircumflex" unicode="&#xee;" horiz-adv-x="300" 
d="M90 0v555h120v-555h-120zM105 821h90l176 -188h-67l-154 106l-154 -106h-67z" />
    <glyph glyph-name="idieresis" unicode="&#xef;" horiz-adv-x="300" 
d="M90 0v555h120v-555h-120zM-10 681v96h120v-96h-120zM190 681v96h120v-96h-120z" />
    <glyph glyph-name="ntilde" unicode="&#xf1;" horiz-adv-x="748" 
d="M538 0v342q0 138 -157 138q-43 0 -75.5 -12.5t-50 -30t-28.5 -40t-14 -38.5t-3 -29v-330h-120v555h58l51 -165q1 7 3 19t16 43t35.5 54.5t67 43t104.5 19.5q233 0 233 -225v-344h-120zM454 735q22 0 38 14t20 28l5 14l40 -36q-1 -4 -3 -10.5t-10.5 -23t-19.5 -29
t-30.5 -23t-42.5 -10.5q-41 0 -85.5 28t-72.5 28q-21 0 -36.5 -14t-20.5 -28l-5 -14l-40 36q1 4 3 10.5t10.5 23t19.5 29t30.5 23t42.5 10.5q40 0 85.5 -28t71.5 -28z" />
    <glyph glyph-name="ograve" unicode="&#xf2;" horiz-adv-x="750" 
d="M60 278q0 126 85 208.5t230 82.5t230 -82.5t85 -208.5q0 -127 -85 -209.5t-230 -82.5t-230 82.5t-85 209.5zM188 278q0 -91 50.5 -147t136.5 -56q85 0 136 56t51 147t-51 146.5t-136 55.5q-86 0 -136.5 -55.5t-50.5 -146.5zM174 821h150l116 -188h-67z" />
    <glyph glyph-name="oacute" unicode="&#xf3;" horiz-adv-x="750" 
d="M60 278q0 126 85 208.5t230 82.5t230 -82.5t85 -208.5q0 -127 -85 -209.5t-230 -82.5t-230 82.5t-85 209.5zM188 278q0 -91 50.5 -147t136.5 -56q85 0 136 56t51 147t-51 146.5t-136 55.5q-86 0 -136.5 -55.5t-50.5 -146.5zM424 821h150l-199 -188h-67z" />
    <glyph glyph-name="ocircumflex" unicode="&#xf4;" horiz-adv-x="750" 
d="M60 278q0 126 85 208.5t230 82.5t230 -82.5t85 -208.5q0 -127 -85 -209.5t-230 -82.5t-230 82.5t-85 209.5zM188 278q0 -91 50.5 -147t136.5 -56q85 0 136 56t51 147t-51 146.5t-136 55.5q-86 0 -136.5 -55.5t-50.5 -146.5zM330 821h90l176 -188h-67l-154 106l-154 -106
h-67z" />
    <glyph glyph-name="odieresis" unicode="&#xf6;" horiz-adv-x="750" 
d="M60 278q0 126 85 208.5t230 82.5t230 -82.5t85 -208.5q0 -127 -85 -209.5t-230 -82.5t-230 82.5t-85 209.5zM188 278q0 -91 50.5 -147t136.5 -56q85 0 136 56t51 147t-51 146.5t-136 55.5q-86 0 -136.5 -55.5t-50.5 -146.5zM215 681v96h120v-96h-120zM415 681v96h120v-96
h-120z" />
    <glyph glyph-name="divide" unicode="&#xf7;" horiz-adv-x="650" 
d="M630 286v-50h-610v50h610zM280 523h90v-112h-90v112zM280 112h90v-112h-90v112z" />
    <glyph glyph-name="oslash" unicode="&#xf8;" horiz-adv-x="750" 
d="M486 697l51 -16l-43 -130q93 -30 144.5 -103.5t51.5 -169.5q0 -127 -85 -209.5t-230 -82.5q-35 0 -68 6l-44 -134l-49 15l43 130q-93 30 -145 104t-52 171q0 126 85 208.5t230 82.5q35 0 67 -6zM188 278q0 -64 26 -112t73 -72l126 382q-24 4 -38 4q-86 0 -136.5 -55.5
t-50.5 -146.5zM562 278q0 63 -26 110.5t-73 71.5l-127 -382q18 -3 39 -3q85 0 136 56t51 147z" />
    <glyph glyph-name="ugrave" unicode="&#xf9;" horiz-adv-x="748" 
d="M210 555v-342q0 -138 157 -138q43 0 75.5 12.5t50 30t28.5 40t14 38.5t3 29v330h120v-555h-58l-51 165q-1 -7 -3 -19t-16 -43t-35.5 -54.5t-67 -43t-104.5 -19.5q-233 0 -233 225v344h120zM183 821h150l116 -188h-67z" />
    <glyph glyph-name="uacute" unicode="&#xfa;" horiz-adv-x="748" 
d="M210 555v-342q0 -138 157 -138q43 0 75.5 12.5t50 30t28.5 40t14 38.5t3 29v330h120v-555h-58l-51 165q-1 -7 -3 -19t-16 -43t-35.5 -54.5t-67 -43t-104.5 -19.5q-233 0 -233 225v344h120zM433 821h150l-199 -188h-67z" />
    <glyph glyph-name="ucircumflex" unicode="&#xfb;" horiz-adv-x="748" 
d="M210 555v-342q0 -138 157 -138q43 0 75.5 12.5t50 30t28.5 40t14 38.5t3 29v330h120v-555h-58l-51 165q-1 -7 -3 -19t-16 -43t-35.5 -54.5t-67 -43t-104.5 -19.5q-233 0 -233 225v344h120zM339 821h90l176 -188h-67l-154 106l-154 -106h-67z" />
    <glyph glyph-name="udieresis" unicode="&#xfc;" horiz-adv-x="748" 
d="M210 555v-342q0 -138 157 -138q43 0 75.5 12.5t50 30t28.5 40t14 38.5t3 29v330h120v-555h-58l-51 165q-1 -7 -3 -19t-16 -43t-35.5 -54.5t-67 -43t-104.5 -19.5q-233 0 -233 225v344h120zM224 681v96h120v-96h-120zM424 681v96h120v-96h-120z" />
    <glyph glyph-name="yacute" unicode="&#xfd;" horiz-adv-x="636" 
d="M246 -1l16 36l-252 520h138l175 -393l167 393h136l-269 -555q-60 -124 -111 -180.5t-117 -56.5q-33 0 -60.5 11.5t-38.5 23.5l-11 11l14 89q3 -5 8 -12.5t23 -19t40 -11.5q36 0 75 40t67 104zM354 821h150l-199 -188h-67z" />
    <glyph glyph-name="ydieresis" unicode="&#xff;" horiz-adv-x="636" 
d="M246 -1l16 36l-252 520h138l175 -393l167 393h136l-269 -555q-60 -124 -111 -180.5t-117 -56.5q-33 0 -60.5 11.5t-38.5 23.5l-11 11l14 89q3 -5 8 -12.5t23 -19t40 -11.5q36 0 75 40t67 104zM145 681v96h120v-96h-120zM345 681v96h120v-96h-120z" />
    <glyph glyph-name="dotlessi" unicode="&#x131;" horiz-adv-x="300" 
d="M90 0v555h120v-555h-120z" />
    <glyph glyph-name="OE" unicode="&#x152;" horiz-adv-x="1168" 
d="M1099 692h-339q110 -97 125 -260h186v-85h-186q-14 -163 -125 -262h368v-85h-534q-59 -14 -121 -14q-189 0 -301 112t-112 290t112 290.5t301 112.5q62 0 121 -14h505v-85zM603 347v85h144q-13 115 -87 187.5t-187 72.5q-124 0 -200 -86.5t-76 -217.5t76 -217t200 -86h12
q110 4 180.5 77t81.5 185h-144z" />
    <glyph glyph-name="oe" unicode="&#x153;" horiz-adv-x="1189" 
d="M60 278q0 127 80.5 209t224.5 82q156 0 239 -108q81 108 236 108q64 0 113.5 -16.5t77.5 -42.5t47.5 -57.5t26 -63t9.5 -57.5t2 -42l-2 -17l-444 10v-15q2 -92 51.5 -142.5t133.5 -50.5q45 0 77 15t45.5 36.5t20.5 43t7 36.5v15l124 -36q-1 -8 -4.5 -21.5t-22 -48
t-46.5 -60.5t-85 -47.5t-131 -21.5q-71 0 -132.5 29t-101.5 81q-38 -52 -100 -81t-141 -29q-144 0 -224.5 82t-80.5 210zM188 278q0 -92 46 -147.5t131 -55.5q84 0 130.5 55.5t46.5 147.5v9q-2 88 -48.5 140.5t-128.5 52.5q-85 0 -131 -55t-46 -147zM833 480
q-70 0 -110.5 -41.5t-49.5 -114.5l314 14q0 6 -0.5 15.5t-8.5 34t-22.5 43t-46.5 34t-76 15.5z" />
    <glyph glyph-name="Ydieresis" unicode="&#x178;" horiz-adv-x="852" 
d="M361 377l-351 400h150l266 -303l266 303h150l-351 -400v-377h-130v377zM266 903v96h120v-96h-120zM466 903v96h120v-96h-120z" />
    <glyph glyph-name="circumflex" unicode="&#x2c6;" horiz-adv-x="1204" 
d="M556 821h90l176 -188h-67l-154 106l-154 -106h-67z" />
    <glyph glyph-name="ring" unicode="&#x2da;" horiz-adv-x="1204" 
d="M492 729q0 45 32 78t77 33q47 0 79 -31.5t32 -79.5q0 -44 -33 -76.5t-78 -32.5q-44 0 -76.5 32.5t-32.5 76.5zM553 730q0 -21 14 -35t35 -14t35 14.5t14 34.5q0 19 -14.5 34t-34.5 15q-21 0 -35 -14t-14 -35z" />
    <glyph glyph-name="tilde" unicode="&#x2dc;" horiz-adv-x="1204" 
d="M682 735q22 0 38 14t20 28l5 14l40 -36q-1 -4 -3 -10.5t-10.5 -23t-19.5 -29t-30.5 -23t-42.5 -10.5q-41 0 -85.5 28t-72.5 28q-21 0 -36.5 -14t-20.5 -28l-5 -14l-40 36q1 4 3 10.5t10.5 23t19.5 29t30.5 23t42.5 10.5q40 0 85.5 -28t71.5 -28z" />
    <glyph glyph-name="endash" unicode="&#x2013;" horiz-adv-x="510" 
d="M490 300v-50h-470v50h470z" />
    <glyph glyph-name="emdash" unicode="&#x2014;" horiz-adv-x="797" 
d="M777 300v-50h-757v50h757z" />
    <glyph glyph-name="quoteleft" unicode="&#x2018;" horiz-adv-x="310" 
d="M90 481v120q0 55 20 105t40 73l20 23l88 -26q-4 -2 -10 -6t-22.5 -18.5t-30 -30.5t-27 -42t-19.5 -53h71v-145h-130z" />
    <glyph glyph-name="quoteright" unicode="&#x2019;" horiz-adv-x="310" 
d="M220 802v-120q0 -55 -20 -105t-40 -73l-20 -23l-88 26q4 2 10 6t22.5 18.5t30 30.5t27 42t19.5 53h-71v145h130z" />
    <glyph glyph-name="quotesinglbase" unicode="&#x201a;" horiz-adv-x="310" 
d="M220 145v-120q0 -55 -20 -105t-40 -73l-20 -23l-88 26q4 2 10 6t22.5 18.5t30 30.5t27 42t19.5 53h-71v145h130z" />
    <glyph glyph-name="quotedblleft" unicode="&#x201c;" horiz-adv-x="560" 
d="M302 480v120q0 55 20 105t40 73l20 23l88 -26q-4 -2 -10 -6t-22.5 -18.5t-30 -30.5t-27 -42t-19.5 -53h71v-145h-130zM52 480v120q0 55 20 105t40 73l20 23l88 -26q-4 -2 -10 -6t-22.5 -18.5t-30 -30.5t-27 -42t-19.5 -53h71v-145h-130z" />
    <glyph glyph-name="quotedblright" unicode="&#x201d;" horiz-adv-x="560" 
d="M220 801v-120q0 -55 -20 -105t-40 -73l-20 -23l-88 26q4 2 10 6t22.5 18.5t30 30.5t27 42t19.5 53h-71v145h130zM470 801v-120q0 -55 -20 -105t-40 -73l-20 -23l-88 26q4 2 10 6t22.5 18.5t30 30.5t27 42t19.5 53h-71v145h130z" />
    <glyph glyph-name="quotedblbase" unicode="&#x201e;" horiz-adv-x="560" 
d="M220 145v-120q0 -55 -20 -105t-40 -73l-20 -23l-88 26q4 2 10 6t22.5 18.5t30 30.5t27 42t19.5 53h-71v145h130zM470 145v-120q0 -55 -20 -105t-40 -73l-20 -23l-88 26q4 2 10 6t22.5 18.5t30 30.5t27 42t19.5 53h-71v145h130z" />
    <glyph glyph-name="dagger" unicode="&#x2020;" horiz-adv-x="480" 
d="M460 480h-160v-703h-120v703h-160v75h160l15 222h90l15 -222h160v-75z" />
    <glyph glyph-name="daggerdbl" unicode="&#x2021;" horiz-adv-x="480" 
d="M20 0v75h160v404h-160v75h160l15 222h90l15 -222h160v-75h-160v-404h160v-75h-160l-15 -223h-90l-15 223h-160z" />
    <glyph glyph-name="bullet" unicode="&#x2022;" horiz-adv-x="646" 
d="M604 260q-2 -5 -7 -20t-9 -22l-391 392q35 15 41 16zM578 199q-5 -13 -22 -30l-409 410l29 22zM616 332q0 -34 -6 -55l-353 355q27 6 55 4zM532 137l-10 -11l-417 416l12 10l10 12l416 -417zM604 434q11 -35 13 -86l-290 291q43 0 86 -16zM494 107q-8 -8 -17 -12
l-405 404l13 18zM45 442l10 20l384 -385l-18 -9zM373 55l-15 -4l-326 328l1 17zM530 552q53 -53 71 -107l-176 176q58 -20 105 -69zM33 298l-3 11l259 -258l-12 2zM114 136q-11 8 -21 23l40 -39z" />
    <glyph glyph-name="ellipsis" unicode="&#x2026;" horiz-adv-x="770" 
d="M90 0v145h130v-145h-130zM320 0v135h130v-135h-130zM550 0v125h130v-125h-130z" />
    <glyph glyph-name="perthousand" unicode="&#x2030;" horiz-adv-x="1285" 
d="M482 190q0 90 59.5 146t151.5 56q58 0 105.5 -24.5t74.5 -67.5q60 92 181 92q92 0 151.5 -56t59.5 -146t-59.5 -145.5t-151.5 -55.5q-123 0 -181 90q-27 -43 -74 -66.5t-106 -23.5q-92 0 -151.5 55.5t-59.5 145.5zM20 590q0 90 59.5 146t151.5 56t151.5 -56t59.5 -146
t-59.5 -145.5t-151.5 -55.5t-151.5 55.5t-59.5 145.5zM81 590q0 -68 39 -111t111 -43t111 43t39 111t-39 111t-111 43t-111 -43t-39 -111zM543 190q0 -68 39 -111t111 -43t111 43t39 111v6q-2 66 -41 107t-109 41q-72 0 -111 -43t-39 -111zM904 190q0 -68 39 -111t111 -43
t111 43t39 111t-39 111t-111 43t-111 -43t-39 -111zM644 784l48 -24l-413 -763l-46 23z" />
    <glyph glyph-name="guilsinglleft" unicode="&#x2039;" horiz-adv-x="331" 
d="M30 277l181 219h90l-151 -219l151 -219h-90z" />
    <glyph glyph-name="guilsinglright" unicode="&#x203a;" horiz-adv-x="331" 
d="M120 496l181 -219l-181 -219h-90l151 219l-151 219h90z" />
    <glyph glyph-name="fraction" unicode="&#x2044;" horiz-adv-x="459" 
d="M411 703l48 -24l-413 -763l-46 23z" />
    <glyph glyph-name="Euro" unicode="&#x20ac;" 
d="M626 332l134 -39zM743 469l-134 -40zM520 332v-50h-313q19 -92 73 -144.5t143 -52.5q62 0 105.5 25.5t61.5 61.5t27.5 72.5t8.5 61.5v26l134 -39q0 -6 -1 -17.5t-8.5 -43t-19 -60.5t-37.5 -64.5t-60 -61t-89 -43t-122 -17.5q-140 0 -232.5 80t-120.5 216h-70v50h63
q-3 27 -3 56q0 18 2 54h-42v50h49q25 137 114.5 218t229.5 81q73 0 130.5 -18t91.5 -46t58 -62.5t33 -69t14 -62.5t4 -46l-1 -18l-134 -40q0 5 0.5 14.5t-1.5 37t-7.5 52.5t-19.5 55t-34.5 52t-55 37t-78.5 15q-172 0 -208 -200h335v-50h-341q-2 -36 -2 -54q0 -38 2 -56h321
z" />
    <glyph glyph-name="minus" unicode="&#x2212;" horiz-adv-x="650" 
d="M630 300v-50h-610v50h610z" />
    <glyph glyph-name="S.alt" horiz-adv-x="804" 
d="M404 280l27 -99q-5 5 -14.5 12.5t-42 20.5t-69.5 13q-50 0 -79 -22t-29 -61q0 -58 58.5 -101t165.5 -43q91 0 158.5 42.5t67.5 126.5q0 73 -49.5 117t-162.5 85l-302 109v75l546 236l29 -108l-465 -151l307 -85q111 -31 172.5 -100t61.5 -171q0 -133 -103 -204t-265 -71
q-157 0 -256.5 70.5t-99.5 175.5q0 72 55.5 123t156.5 51q39 0 72 -10.5t46 -20.5z" />
    <glyph glyph-name="Q.alt" horiz-adv-x="988" 
d="M443 6l505 -171l-29 -108l-546 236v138q50 -16 108 -16q141 0 230 86.5t89 216.5q0 131 -88.5 217.5t-228.5 86.5q-135 0 -210.5 -72.5t-75.5 -180.5q0 -82 47 -135.5t140 -53.5q55 0 93.5 24t53.5 58t22.5 68t6.5 58l-1 24l133 -39q0 -6 -0.5 -16.5t-6.5 -41t-16.5 -58
t-34.5 -61t-56.5 -58t-86.5 -41t-121 -16.5q-140 0 -225 82t-85 213q0 150 114 247.5t309 97.5q205 0 329.5 -113t124.5 -290q0 -129 -68 -224t-181 -136.5t-245 -21.5z" />
    <glyph glyph-name="B.alt" horiz-adv-x="979" 
d="M350 356v-225h-130v646h330q349 0 349 -190q0 -40 -16.5 -72.5t-37 -49t-48 -28.5t-41 -15t-23.5 -4q8 -1 13.5 -1.5t27 -6t37 -13t37.5 -23t36 -35t24.5 -50.5t10.5 -68q0 -111 -85 -166t-264 -55h-570v100l570 -15q212 -5 212 136q0 53 -29.5 84t-73 41t-109.5 10h-220
zM350 692v-251h200q100 0 156 28t56 98t-56 97.5t-156 27.5h-200z" />
    <glyph glyph-name="O.alt" horiz-adv-x="997" 
d="M373 -5v106q50 -16 108 -16q141 0 230 86.5t89 216.5q0 131 -88.5 217.5t-228.5 86.5q-135 0 -210.5 -72.5t-75.5 -180.5q0 -82 47 -135.5t140 -53.5q55 0 93.5 24t53.5 58t22.5 68t6.5 58l-1 24l133 -39q0 -6 -0.5 -16.5t-6.5 -41t-16.5 -58t-34.5 -61t-56.5 -58
t-86.5 -41t-121 -16.5q-140 0 -225 82t-85 213q0 150 114 247.5t309 97.5q205 0 329.5 -113t124.5 -290q0 -91 -33 -166t-88.5 -121.5t-128.5 -77.5t-153 -35t-161 7z" />
    <glyph glyph-name="zero.alt" horiz-adv-x="1064" 
d="M777 311q0 -131 -63 -210.5t-182 -79.5t-182 79.5t-63 210.5t63 210.5t182 79.5t182 -79.5t63 -210.5zM678 311q0 100 -35 159t-111 59t-111 -59t-35 -159t35 -159.5t111 -59.5t111 59.5t35 159.5zM60 311q0 199 136.5 335.5t335.5 136.5t335.5 -136.5t136.5 -335.5
t-136.5 -335.5t-335.5 -136.5t-335.5 136.5t-136.5 335.5zM116 310q0 -173 121.5 -294.5t294.5 -121.5t294.5 121.5t121.5 294.5t-121.5 294.5t-294.5 121.5t-294.5 -121.5t-121.5 -294.5z" />
    <glyph glyph-name="three.susp_prop" horiz-adv-x="819" 
d="M387 133h-50v75h50q89 0 147.5 39.5t58.5 99.5t-49.5 96.5t-126.5 36.5q-44 0 -79 -10.5t-55.5 -27.5t-35.5 -37.5t-21 -41.5t-9 -38t-3 -27l1 -11l-124 40q1 5 2.5 13.5t10.5 34t22 48t39 50.5t59 48t84.5 34t113.5 14q132 0 215 -58.5t83 -145.5q0 -43 -18.5 -76.5
t-42.5 -50.5t-56 -27.5t-51 -13.5t-34 -3q17 0 37 -3t55.5 -15t62 -31.5t47 -57.5t20.5 -89q0 -78 -46.5 -132.5t-119.5 -78.5t-164 -24q-71 0 -129.5 15t-95 38.5t-64 52.5t-40.5 57.5t-20.5 52t-8.5 38.5l-2 15l124 39q2 -1 0 -12.5t3 -31l10.5 -42.5t23.5 -46.5t41.5 -43
t63.5 -31.5t91 -12q91 0 148.5 40t57.5 107q0 49 -34 80.5t-81.5 42.5t-110.5 11z" />
    <glyph glyph-name="A.smcp" horiz-adv-x="711" 
d="M573 0l-76 171h-283l-77 -171h-127l261 569h168l262 -569h-128zM353 480l-100 -222h205l-99 222h-6z" />
    <glyph glyph-name="B.smcp" horiz-adv-x="662" 
d="M602 167q0 -167 -256 -167h-256v569h242q256 0 256 -148q0 -30 -19 -59t-37 -43l-19 -14q89 -37 89 -138zM346 247h-138v-162h138q133 0 133 82q0 45 -35 62.5t-98 17.5zM208 480v-146h124q132 0 132 73t-132 73h-124z" />
    <glyph glyph-name="C.smcp" horiz-adv-x="748" 
d="M683 349l-122 -36q0 7 -1 18t-10.5 40t-27 51t-56.5 40t-92 18q-88 0 -139.5 -55.5t-51.5 -141.5q0 -85 54 -141.5t143 -56.5q37 0 67.5 10t49 25.5t33 34.5t21 37.5t10.5 34t5 25.5v10l122 -34q-1 -5 -2.5 -13.5t-9.5 -34t-20 -48t-36 -50.5t-55 -48t-79 -34t-106 -14
q-146 0 -233 83.5t-87 213.5q0 131 83.5 213.5t230.5 82.5q60 0 109.5 -12.5t81 -33t55 -45t35 -49t18.5 -45t9 -32.5z" />
    <glyph glyph-name="D.smcp" horiz-adv-x="714" 
d="M90 569h256q142 0 225 -77.5t83 -208.5t-83 -207t-225 -76h-256v569zM305 480h-96v-395h96q108 0 167 51t59 147t-59 146.5t-167 50.5z" />
    <glyph glyph-name="E.smcp" horiz-adv-x="584" 
d="M90 0v569h433v-89h-315v-153h296v-87h-296v-155h336v-85h-454z" />
    <glyph glyph-name="F.smcp" horiz-adv-x="563" 
d="M90 0v569h433v-89h-315v-153h296v-87h-296v-240h-118z" />
    <glyph glyph-name="G.smcp" horiz-adv-x="751" 
d="M671 370l-121 -36q0 6 -1.5 16t-12 35t-27 44t-52 35t-83.5 16q-88 0 -139.5 -55.5t-51.5 -141.5t50 -142t134 -56q38 0 70 13.5t50.5 32.5t31.5 37.5t17 31.5l5 14h-202v88h322v-302h-119v67q-65 -81 -189 -81q-133 0 -213 83.5t-80 213.5q0 131 83 213.5t231 82.5
q76 0 134.5 -21.5t87.5 -52t47.5 -61.5t22.5 -52z" />
    <glyph glyph-name="H.smcp" horiz-adv-x="727" 
d="M519 0v240h-310v-240h-119v569h119v-242h310v242h118v-569h-118z" />
    <glyph glyph-name="I.smcp" horiz-adv-x="299" 
d="M90 569h119v-569h-119v569z" />
    <glyph glyph-name="J.smcp" horiz-adv-x="591" 
d="M40 228l125 36q-6 -19 -6 -43q0 -61 28 -98.5t84 -37.5q55 0 83 37.5t28 98.5v348h119v-348q0 -115 -61.5 -175t-168.5 -60t-168.5 61.5t-62.5 180.5z" />
    <glyph glyph-name="K.smcp" horiz-adv-x="666" 
d="M514 0l-234 266l-71 -63v-203h-119v569h119v-237l258 237h153l-261 -232l297 -337h-142z" />
    <glyph glyph-name="L.smcp" horiz-adv-x="526" 
d="M90 0v567h119v-482h307v-85h-426z" />
    <glyph glyph-name="M.smcp" horiz-adv-x="929" 
d="M465 107l212 462h162v-569h-118v408l-188 -408h-137l-188 408v-408h-118v569h162z" />
    <glyph glyph-name="N.smcp" horiz-adv-x="728" 
d="M638 569v-569h-132l-297 426v-426h-119v569h132l298 -426v426h118z" />
    <glyph glyph-name="O.smcp" horiz-adv-x="777" 
d="M717 283q0 -129 -90.5 -213t-239.5 -84q-147 0 -237 84t-90 213t90 212.5t237 83.5q149 0 239.5 -83.5t90.5 -212.5zM593 283q0 84 -57.5 140.5t-148.5 56.5q-90 0 -147 -56.5t-57 -140.5t57 -141t147 -57q91 0 148.5 56.5t57.5 141.5z" />
    <glyph glyph-name="P.smcp" horiz-adv-x="598" 
d="M90 0v569h243q131 0 193 -40t62 -122q0 -81 -62 -120.5t-193 -39.5h-124v-247h-119zM209 480v-146h124q132 0 132 73t-132 73h-124z" />
    <glyph glyph-name="Q.smcp" horiz-adv-x="777" 
d="M661 0l25 -94q-1 -2 -3.5 -6t-13 -13.5t-23.5 -16.5t-36.5 -13t-50.5 -6q-69 0 -101.5 33.5t-33.5 79.5q0 16 3 29q-26 -2 -40 -2q-148 0 -237.5 81.5t-89.5 210.5t89.5 211t237.5 82q149 0 239.5 -82t90.5 -211q0 -98 -54 -170.5t-149 -103.5q-15 -5 -15 -19
q0 -42 59 -42q29 0 54.5 13t37.5 26zM593 283q0 84 -57.5 140t-148.5 56q-90 0 -147 -56t-57 -140t57 -140t147 -56q91 0 148.5 56t57.5 140z" />
    <glyph glyph-name="R.smcp" horiz-adv-x="656" 
d="M90 0v569h243q255 0 255 -162q0 -53 -33 -89t-92 -39q33 -4 55.5 -27t30.5 -56q26 -103 38 -137.5t29 -58.5h-130q-11 14 -18 39t-26 105l-8 31q-10 38 -43.5 55t-107.5 17h-75v-247h-118zM208 480v-146h125q132 0 132 73t-132 73h-125z" />
    <glyph glyph-name="S.smcp" horiz-adv-x="658" 
d="M291 358l138 -31q169 -38 169 -169q0 -81 -69 -126.5t-176 -45.5q-78 0 -137 22.5t-91 57.5t-47.5 70.5t-17.5 70.5l125 35q0 -3 -0.5 -9t1.5 -22t6.5 -31t16 -33t29 -31t46.5 -22t67 -9q57 0 90.5 20.5t33.5 48.5q0 29 -25 43.5t-85 28.5l-131 30q-73 17 -110.5 57
t-37.5 95q0 72 59 121.5t172 49.5q51 0 92.5 -10.5t67 -27t45 -37t28.5 -40.5t14.5 -36.5t6.5 -27.5l1 -10l-123 -32v13t-6.5 29t-19 37.5t-41 29.5t-69.5 13q-47 0 -76 -18t-29 -46q0 -40 83 -58z" />
    <glyph glyph-name="T.smcp" horiz-adv-x="594" 
d="M10 480v89h574v-89h-229v-480h-116v480h-229z" />
    <glyph glyph-name="U.smcp" horiz-adv-x="718" 
d="M509 569h119v-333q0 -123 -68 -186.5t-202 -63.5q-268 0 -268 250v333h119v-333q0 -89 36 -120t113 -31q78 0 114.5 31t36.5 120v333z" />
    <glyph glyph-name="V.smcp" horiz-adv-x="669" 
d="M659 569l-252 -569h-147l-250 569h127l197 -469l197 469h128z" />
    <glyph glyph-name="W.smcp" horiz-adv-x="952" 
d="M942 569l-193 -569h-148l-125 411l-126 -411h-148l-192 569h126l139 -459l135 459h131l134 -459l140 459h127z" />
    <glyph glyph-name="X.smcp" horiz-adv-x="660" 
d="M10 0l248 284l-248 285h143l177 -203l177 203h143l-249 -285l249 -284h-143l-177 202l-177 -202h-143z" />
    <glyph glyph-name="Y.smcp" horiz-adv-x="660" 
d="M271 270l-261 299h143l177 -216l177 216h143l-261 -299v-270h-118v270z" />
    <glyph glyph-name="Z.smcp" horiz-adv-x="555" 
d="M535 85v-85h-515v85l355 395h-355v89h515v-88l-355 -396h355z" />
    <glyph glyph-name="one.susp_prop" horiz-adv-x="570" 
d="M480 0h-120l-1 470q0 -79 -23 -120.5t-87.5 -61.5t-188.5 -20v89q156 0 228 44t72 154h120v-555z" />
    <glyph glyph-name="five.susp_prop" 
d="M740 32q0 -126 -91 -197.5t-243 -71.5q-71 0 -128.5 15t-93.5 38.5t-63 52.5t-40 57.5t-20.5 52t-8.5 38.5l-2 15l124 39v-12.5t4.5 -30.5t12 -43.5t24.5 -46t40.5 -43.5t62.5 -30.5t88 -12.5q97 0 152 48.5t55 131.5t-55 131t-152 48q-50 0 -91 -14.5t-57 -28.5l-16 -15
h-123l71 402h514v-75h-413l-47 -281q2 4 6.5 11t22 24.5t39.5 30.5t61 24t84 11q115 0 199 -75.5t84 -192.5z" />
    <glyph glyph-name="six.susp_prop" 
d="M468 500q112 0 192 -65.5t80 -191.5q0 -112 -91.5 -184.5t-232.5 -72.5q-167 0 -261.5 111.5t-94.5 291.5q0 178 96.5 290t263.5 112q73 0 132 -23t91 -55.5t53 -65t28 -55.5l6 -23l-123 -40q-1 7 -3 18.5t-13.5 41.5t-30 53t-55.5 41.5t-85 18.5q-108 0 -170.5 -89.5
t-62.5 -223.5q0 -43 6 -82q22 90 93 141.5t182 51.5zM416 75q95 0 146 45.5t51 122.5t-51 122.5t-146 45.5q-97 0 -148.5 -60t-46.5 -139q28 -64 77.5 -100.5t117.5 -36.5z" />
    <glyph glyph-name="seven.susp_prop" horiz-adv-x="730" 
d="M700 555v-115q-6 -2 -16.5 -6t-43 -24t-64 -47.5t-75 -80.5t-82 -118.5t-79 -166.5t-70.5 -220h-130q29 116 70 217t83.5 170.5t88 126.5t85 91t71 57t49.5 32l18 9h-585v75h680z" />
    <glyph glyph-name="eight.susp_prop" 
d="M730 574q0 -40 -18.5 -73t-41.5 -51.5t-53.5 -32.5t-46 -18t-26.5 -6q14 -1 28.5 -3t52 -13.5t64.5 -29t49 -52.5t22 -81q0 -77 -51.5 -129.5t-130.5 -75.5t-178 -23t-178 23t-130.5 75.5t-51.5 129.5q0 43 19.5 78t44.5 54.5t57.5 33.5t49 18.5t28.5 6.5q-10 2 -24.5 6
t-42 17t-48.5 30t-37.5 48t-16.5 68q0 96 95 156.5t235 60.5t235 -60.5t95 -156.5zM633 214q0 36 -19.5 63.5t-46 42t-61.5 23t-59.5 11t-46.5 2.5q-63 0 -113 -12.5t-85 -45.5t-35 -84q0 -67 67.5 -103t165.5 -36t165.5 36t67.5 103zM197 574q0 -39 22.5 -68t57.5 -42
t65.5 -19t57.5 -6q97 0 150 36.5t53 98.5q0 51 -54 89.5t-149 38.5t-149 -38.5t-54 -89.5z" />
    <glyph glyph-name="nine.susp_prop" 
d="M332 55q-112 0 -192 65.5t-80 191.5q0 112 91.5 184.5t232.5 72.5q167 0 261.5 -111.5t94.5 -291.5q0 -179 -96.5 -291t-263.5 -112q-73 0 -132 23t-91 55.5t-53 65t-28 55.5l-6 23l123 40q1 -7 3 -18.5t13.5 -41.5t30 -53t55.5 -41.5t85 -18.5q108 0 170.5 90t62.5 224
q0 46 -7 82q-22 -90 -93 -141.5t-181 -51.5zM384 480q-95 0 -146 -45.5t-51 -122.5t51 -122.5t146 -45.5q96 0 147.5 59.5t47.5 138.5q-62 138 -195 138z" />
    <glyph glyph-name="four.susp_prop" 
d="M40 0v115l422 440h162v-480h166v-75h-166v-222h-120v222h-464zM504 460l-363 -385h363v385z" />
    <glyph glyph-name="two.susp_prop" 
d="M105 374q0 89 76.5 142t196.5 53q133 0 199.5 -59.5t66.5 -151.5q0 -202 -344 -283h370v-75h-580v85q61 10 104 19t97 24t90.5 33t70 42.5t50 57t16.5 72.5q0 66 -40.5 106.5t-114.5 40.5q-62 0 -98 -29t-36 -79q0 -23 8.5 -42t21.5 -29t21 -14.5t13 -6.5l-133 -39
q-2 2 -6 5t-13.5 15t-16.5 26t-13 37.5t-6 49.5z" />
    <glyph glyph-name="acute.case" horiz-adv-x="727" 
d="M610 821h150l-199 -188h-67z" />
    <glyph glyph-name="grave.case" horiz-adv-x="727" 
d="M380 821h150l116 -188h-67z" />
    <glyph glyph-name="circumflex.case" horiz-adv-x="1204" 
d="M526 821h90l176 -188h-67l-154 106l-154 -106h-67z" />
    <glyph glyph-name="tilde.case" horiz-adv-x="1204" 
d="M682 735q22 0 38 14t20 28l5 14l40 -36q-1 -4 -3 -10.5t-10.5 -23t-19.5 -29t-30.5 -23t-42.5 -10.5q-41 0 -85.5 28t-72.5 28q-21 0 -36.5 -14t-20.5 -28l-5 -14l-40 36q1 4 3 10.5t10.5 23t19.5 29t30.5 23t42.5 10.5q40 0 85.5 -28t71.5 -28z" />
    <glyph glyph-name="dieresis.case" horiz-adv-x="358" 
d="M19 681v96h120v-96h-120zM219 681v96h120v-96h-120z" />
    <glyph glyph-name="ring.case" horiz-adv-x="1204" 
d="M492 729q0 45 32 78t77 33q47 0 79 -31.5t32 -79.5q0 -44 -33 -76.5t-78 -32.5q-44 0 -76.5 32.5t-32.5 76.5zM553 730q0 -21 14 -35t35 -14t35 14.5t14 34.5q0 19 -14.5 34t-34.5 15q-21 0 -35 -14t-14 -35z" />
    <glyph glyph-name="Aacute.smcp" horiz-adv-x="711" 
d="M573 0l-76 171h-283l-77 -171h-127l261 569h168l262 -569h-128zM353 480l-100 -222h205l-99 222h-6zM415 833h150l-199 -188h-67z" />
    <glyph glyph-name="Agrave.smcp" horiz-adv-x="711" 
d="M573 0l-76 171h-283l-77 -171h-127l261 569h168l262 -569h-128zM353 480l-100 -222h205l-99 222h-6zM145 833h150l116 -188h-67z" />
    <glyph glyph-name="Acircumflex.smcp" horiz-adv-x="711" 
d="M573 0l-76 171h-283l-77 -171h-127l261 569h168l262 -569h-128zM311 833h90l176 -188h-67l-154 106l-154 -106h-67zM353 480l-100 -222h205l-99 222h-6z" />
    <glyph glyph-name="Atilde.smcp" horiz-adv-x="711" 
d="M573 0l-76 171h-283l-77 -171h-127l261 569h168l262 -569h-128zM437 747q22 0 38 14t21 28l4 14l40 -36q-1 -4 -3 -10.5t-10.5 -23t-19.5 -29t-30.5 -23t-42.5 -10.5q-41 0 -85.5 28t-72.5 28q-21 0 -36.5 -14t-20.5 -28l-5 -14l-40 36q1 4 3 10.5t10.5 23t19.5 29
t30.5 23t42.5 10.5q40 0 85.5 -28t71.5 -28zM353 480l-100 -222h205l-99 222h-6z" />
    <glyph glyph-name="Adieresis.smcp" horiz-adv-x="711" 
d="M573 0l-76 171h-283l-77 -171h-127l261 569h168l262 -569h-128zM353 480l-100 -222h205l-99 222h-6zM196 693v96h120v-96h-120zM396 693v96h120v-96h-120z" />
    <glyph glyph-name="Aring.smcp" horiz-adv-x="711" 
d="M573 0l-76 171h-283l-77 -171h-127l261 569h168l262 -569h-128zM247 741q0 45 32 78t77 33q47 0 79 -31.5t32 -79.5q0 -44 -33 -76.5t-78 -32.5q-44 0 -76.5 32.5t-32.5 76.5zM353 480l-100 -222h205l-99 222h-6zM308 742q0 -21 14 -35t35 -14t35 14.5t14 34.5
q0 19 -14.5 34t-34.5 15q-21 0 -35 -14t-14 -35z" />
    <glyph glyph-name="Eacute.smcp" horiz-adv-x="584" 
d="M90 0v569h433v-89h-315v-153h296v-87h-296v-155h336v-85h-454zM335 833h150l-199 -188h-67z" />
    <glyph glyph-name="Egrave.smcp" horiz-adv-x="584" 
d="M90 0v569h433v-89h-315v-153h296v-87h-296v-155h336v-85h-454zM135 833h150l116 -188h-67z" />
    <glyph glyph-name="Ecircumflex.smcp" horiz-adv-x="584" 
d="M90 0v569h433v-89h-315v-153h296v-87h-296v-155h336v-85h-454zM271 833h90l176 -188h-67l-154 106l-154 -106h-67z" />
    <glyph glyph-name="Edieresis.smcp" horiz-adv-x="584" 
d="M90 0v569h433v-89h-315v-153h296v-87h-296v-155h336v-85h-454zM156 693v96h120v-96h-120zM356 693v96h120v-96h-120z" />
    <glyph glyph-name="Iacute.smcp" horiz-adv-x="299" 
d="M90 569h119v-569h-119v569zM208 833h150l-199 -188h-67z" />
    <glyph glyph-name="Igrave.smcp" horiz-adv-x="299" 
d="M90 569h119v-569h-119v569zM-42 833h150l116 -188h-67z" />
    <glyph glyph-name="Icircumflex.smcp" horiz-adv-x="299" 
d="M90 569h119v-569h-119v569zM114 833h90l176 -188h-67l-154 106l-154 -106h-67z" />
    <glyph glyph-name="Idieresis.smcp" horiz-adv-x="299" 
d="M90 569h119v-569h-119v569zM-1 693v96h120v-96h-120zM199 693v96h120v-96h-120z" />
    <glyph glyph-name="Oacute.smcp" horiz-adv-x="777" 
d="M717 283q0 -129 -90.5 -213t-239.5 -84q-147 0 -237 84t-90 213t90 212.5t237 83.5q149 0 239.5 -83.5t90.5 -212.5zM593 283q0 84 -57.5 140.5t-148.5 56.5q-90 0 -147 -56.5t-57 -140.5t57 -141t147 -57q91 0 148.5 56.5t57.5 141.5zM447 833h150l-199 -188h-67z" />
    <glyph glyph-name="Ograve.smcp" horiz-adv-x="777" 
d="M717 283q0 -129 -90.5 -213t-239.5 -84q-147 0 -237 84t-90 213t90 212.5t237 83.5q149 0 239.5 -83.5t90.5 -212.5zM593 283q0 84 -57.5 140.5t-148.5 56.5q-90 0 -147 -56.5t-57 -140.5t57 -141t147 -57q91 0 148.5 56.5t57.5 141.5zM197 833h150l116 -188h-67z" />
    <glyph glyph-name="Ocircumflex.smcp" horiz-adv-x="777" 
d="M717 283q0 -129 -90.5 -213t-239.5 -84q-147 0 -237 84t-90 213t90 212.5t237 83.5q149 0 239.5 -83.5t90.5 -212.5zM593 283q0 84 -57.5 140.5t-148.5 56.5q-90 0 -147 -56.5t-57 -140.5t57 -141t147 -57q91 0 148.5 56.5t57.5 141.5zM338 833h90l176 -188h-67l-154 106
l-154 -106h-67z" />
    <glyph glyph-name="Odieresis.smcp" horiz-adv-x="777" 
d="M717 283q0 -129 -90.5 -213t-239.5 -84q-147 0 -237 84t-90 213t90 212.5t237 83.5q149 0 239.5 -83.5t90.5 -212.5zM593 283q0 84 -57.5 140.5t-148.5 56.5q-90 0 -147 -56.5t-57 -140.5t57 -141t147 -57q91 0 148.5 56.5t57.5 141.5zM226 693v96h120v-96h-120zM426 693
v96h120v-96h-120z" />
    <glyph glyph-name="Oslash.smcp" horiz-adv-x="777" 
d="M491 697l51 -16l-39 -118q100 -29 157 -104t57 -176q0 -129 -90.5 -213t-239.5 -84q-34 0 -74 7l-45 -135l-49 15l43 132q-94 31 -148 105t-54 173q0 129 90 212.5t237 83.5q30 0 63 -5zM593 283q0 62 -33 110.5t-90 71.5l-125 -377q19 -3 42 -3q91 0 148.5 56.5
t57.5 141.5zM183 283q0 -60 30 -108t82 -71l123 374q-20 2 -31 2q-90 0 -147 -56.5t-57 -140.5z" />
    <glyph glyph-name="Uacute.smcp" horiz-adv-x="718" 
d="M509 569h119v-333q0 -123 -68 -186.5t-202 -63.5q-268 0 -268 250v333h119v-333q0 -89 36 -120t113 -31q78 0 114.5 31t36.5 120v333zM430 833h150l-199 -188h-67z" />
    <glyph glyph-name="Ugrave.smcp" horiz-adv-x="718" 
d="M509 569h119v-333q0 -123 -68 -186.5t-202 -63.5q-268 0 -268 250v333h119v-333q0 -89 36 -120t113 -31q78 0 114.5 31t36.5 120v333zM180 833h150l116 -188h-67z" />
    <glyph glyph-name="Ucircumflex.smcp" horiz-adv-x="718" 
d="M509 569h119v-333q0 -123 -68 -186.5t-202 -63.5q-268 0 -268 250v333h119v-333q0 -89 36 -120t113 -31q78 0 114.5 31t36.5 120v333zM316 833h90l176 -188h-67l-154 106l-154 -106h-67z" />
    <glyph glyph-name="Udieresis.smcp" horiz-adv-x="718" 
d="M509 569h119v-333q0 -123 -68 -186.5t-202 -63.5q-268 0 -268 250v333h119v-333q0 -89 36 -120t113 -31q78 0 114.5 31t36.5 120v333zM201 693v96h120v-96h-120zM401 693v96h120v-96h-120z" />
    <glyph glyph-name="Yacute.smcp" horiz-adv-x="660" 
d="M271 270l-261 299h143l177 -216l177 216h143l-261 -299v-270h-118v270zM394 833h150l-199 -188h-67z" />
    <glyph glyph-name="Ydieresis.smcp" horiz-adv-x="660" 
d="M271 270l-261 299h143l177 -216l177 216h143l-261 -299v-270h-118v270zM170 693v96h120v-96h-120zM370 693v96h120v-96h-120z" />
    <glyph glyph-name="Ntilde.smcp" horiz-adv-x="728" 
d="M638 569v-569h-132l-297 426v-426h-119v569h132l298 -426v426h118zM442 735q22 0 38 14t20 28l5 14l40 -36q-1 -4 -3 -10.5t-10.5 -23t-19.5 -29t-30.5 -23t-42.5 -10.5q-41 0 -85.5 28t-72.5 28q-21 0 -36.5 -14t-20.5 -28l-5 -14l-40 36q1 4 3 10.5t10.5 23t19.5 29
t30.5 23t42.5 10.5q40 0 85.5 -28t71.5 -28z" />
    <glyph glyph-name="Ccedilla.smcp" horiz-adv-x="748" 
d="M683 349l-122 -36q0 7 -1 18t-10.5 40t-27 51t-56.5 40t-92 18q-88 0 -139.5 -55.5t-51.5 -141.5q0 -85 54 -141.5t143 -56.5q37 0 67.5 10t49 25.5t33 34.5t21 37.5t10.5 34t5 25.5v10l122 -34q-1 -5 -2 -13t-9 -32.5t-19 -46.5t-34 -49.5t-51.5 -47.5t-73.5 -35
t-99 -17l-18 -52q20 17 54 17q35 0 57 -21.5t22 -61.5q0 -49 -37.5 -77.5t-94.5 -28.5q-35 0 -65 11.5t-42 23.5l-12 12l18 68q2 -5 11 -16.5t33 -26t52 -14.5q31 0 49 13.5t18 37.5q0 21 -11.5 32.5t-30.5 11.5q-12 0 -21.5 -5.5t-13.5 -10.5l-4 -6l-43 3l31 90
q-135 9 -213.5 90.5t-78.5 205.5q0 131 83.5 213.5t230.5 82.5q60 0 109.5 -12.5t81 -33t55 -45t35 -49t18.5 -45t9 -32.5z" />
    <glyph glyph-name="AE.smcp" horiz-adv-x="863" 
d="M416 0v240h-170l-108 -240h-128l263 569h530v-89h-268v-153h249v-87h-249v-155h288v-85h-407zM355 480l-69 -153h130v153h-61z" />
    <glyph glyph-name="OE.smcp" horiz-adv-x="867" 
d="M807 480h-214q53 -63 65 -153h130v-87h-130q-11 -90 -66 -155h235v-85h-367q-48 -14 -101 -14q-137 0 -218 83.5t-81 213.5t81 213t218 83q42 0 87 -10h361v-89zM435 240v87h98q-12 68 -58 110.5t-116 42.5h-8q-76 -3 -122 -58.5t-46 -138.5t46 -139t122 -59h16
q66 2 110 45t56 110h-98z" />
    <glyph glyph-name="zero.susp_prop" 
d="M60 277q0 124 93 208t247 84t247 -84t93 -208t-93 -207.5t-247 -83.5t-247 83.5t-93 207.5zM151 277q0 -99 67 -166.5t182 -67.5t182 67.5t67 166.5t-67 166.5t-182 67.5t-182 -67.5t-67 -166.5z" />
    <glyph glyph-name="one.alt" horiz-adv-x="1064" 
d="M60 311q0 199 136.5 335.5t335.5 136.5t335.5 -136.5t136.5 -335.5t-136.5 -335.5t-335.5 -136.5t-335.5 136.5t-136.5 335.5zM116 310q0 -173 121.5 -294.5t294.5 -121.5t294.5 121.5t121.5 294.5t-121.5 294.5t-294.5 121.5t-294.5 -121.5t-121.5 -294.5zM773 31h-461
v61h216v429q-1 -54 -18.5 -83.5t-64.5 -45t-133 -15.5v71q112 0 164 31.5t52 110.5h94v-498h151v-61z" />
    <glyph glyph-name="two.alt" horiz-adv-x="1064" 
d="M60 311q0 199 136.5 335.5t335.5 136.5t335.5 -136.5t136.5 -335.5t-136.5 -335.5t-335.5 -136.5t-335.5 136.5t-136.5 335.5zM116 310q0 -173 121.5 -294.5t294.5 -121.5t294.5 121.5t121.5 294.5t-121.5 294.5t-294.5 121.5t-294.5 -121.5t-121.5 -294.5zM748 416
q0 -41 -18 -80.5t-42 -68t-63 -59.5t-66 -47.5l-66.5 -39.5t-50.5 -30h317v-61h-461v54l20 8.5t49.5 24.5t69.5 39t73.5 50.5t69.5 61t49 69.5t20 76q0 51 -32 83t-96 32q-62 0 -92.5 -32t-30.5 -82q0 -33 17 -62t34 -42l17 -12l-96 -28q-3 2 -7.5 6t-16.5 18.5t-21 30.5
t-16.5 41t-7.5 52q0 71 58.5 126.5t163.5 55.5q108 0 166.5 -51.5t58.5 -132.5z" />
    <glyph glyph-name="three.alt" horiz-adv-x="1064" 
d="M60 311q0 199 136.5 335.5t335.5 136.5t335.5 -136.5t136.5 -335.5t-136.5 -335.5t-335.5 -136.5t-335.5 136.5t-136.5 335.5zM116 310q0 -173 121.5 -294.5t294.5 -121.5t294.5 121.5t121.5 294.5t-121.5 294.5t-294.5 121.5t-294.5 -121.5t-121.5 -294.5zM516 287h-36
v62h36q64 0 102.5 24.5t38.5 67.5q0 39 -33 63.5t-87 24.5q-41 0 -70.5 -13.5t-42 -33t-19 -39t-6.5 -33.5v-13l-96 29q1 7 3.5 19t18 42t38.5 53t70 42t108 19q95 0 154.5 -42.5t59.5 -104.5q0 -38 -17.5 -64.5t-44 -38t-46 -15.5t-35.5 -5q14 -1 28.5 -3t39.5 -11
t43.5 -23t32.5 -41t14 -63q0 -83 -68 -126t-170 -43q-71 0 -123.5 20t-77 48.5t-39.5 57t-17 48.5l-2 20l96 28v-16.5t7.5 -36.5t22.5 -45.5t49 -36t82 -16.5q66 0 103.5 25.5t37.5 73.5q0 96 -155 96z" />
    <glyph glyph-name="four.alt" horiz-adv-x="1064" 
d="M229 166v90l304 334h123v-362h113v-62h-113v-135h-93v135h-334zM563 522l-261 -294h261v294zM60 311q0 199 136.5 335.5t335.5 136.5t335.5 -136.5t136.5 -335.5t-136.5 -335.5t-335.5 -136.5t-335.5 136.5t-136.5 335.5zM116 310q0 -173 121.5 -294.5t294.5 -121.5
t294.5 121.5t121.5 294.5t-121.5 294.5t-294.5 121.5t-294.5 -121.5t-121.5 -294.5z" />
    <glyph glyph-name="five.alt" horiz-adv-x="1064" 
d="M771 215q0 -91 -65.5 -142.5t-175.5 -51.5q-70 0 -122 20t-76.5 48.5t-39 57t-16.5 48.5l-2 20l96 28v-16.5t7.5 -36.5t22 -45.5t48.5 -36t82 -16.5q65 0 103.5 34t38.5 89q0 54 -38.5 87.5t-103.5 33.5q-38 0 -67.5 -8.5t-40.5 -17.5l-10 -8h-96l52 288h377v-61h-297
l-34 -194q1 3 4.5 8t16 17.5t28 22t43.5 17.5t61 8q83 0 143.5 -54.5t60.5 -138.5zM60 311q0 199 136.5 335.5t335.5 136.5t335.5 -136.5t136.5 -335.5t-136.5 -335.5t-335.5 -136.5t-335.5 136.5t-136.5 335.5zM116 310q0 -173 121.5 -294.5t294.5 -121.5t294.5 121.5
t121.5 294.5t-121.5 294.5t-294.5 121.5t-294.5 -121.5t-121.5 -294.5z" />
    <glyph glyph-name="six.alt" horiz-adv-x="1064" 
d="M60 311q0 199 136.5 335.5t335.5 136.5t335.5 -136.5t136.5 -335.5t-136.5 -335.5t-335.5 -136.5t-335.5 136.5t-136.5 335.5zM116 310q0 -173 121.5 -294.5t294.5 -121.5t294.5 121.5t121.5 294.5t-121.5 294.5t-294.5 121.5t-294.5 -121.5t-121.5 -294.5zM569 391
q-73 0 -125.5 -30.5t-68.5 -87.5q-1 12 -1 38q0 97 41.5 157.5t118.5 60.5q33 0 58 -12t37.5 -29t20.5 -34.5t10 -29.5l2 -12l96 29q-1 7 -4.5 17.5t-20 38t-39 48.5t-65 38.5t-95.5 17.5q-120 0 -189.5 -80.5t-69.5 -209.5t68.5 -209.5t188.5 -80.5q101 0 167 52t66 133
q0 91 -57.5 138t-138.5 47zM532 92q-111 0 -146 120q12 48 51 78t95 30q66 0 100 -31.5t34 -82.5t-34 -82.5t-100 -31.5z" />
    <glyph glyph-name="seven.alt" horiz-adv-x="1064" 
d="M60 311q0 199 136.5 335.5t335.5 136.5t335.5 -136.5t136.5 -335.5t-136.5 -335.5t-335.5 -136.5t-335.5 136.5t-136.5 335.5zM116 310q0 -173 121.5 -294.5t294.5 -121.5t294.5 121.5t121.5 294.5t-121.5 294.5t-294.5 121.5t-294.5 -121.5t-121.5 -294.5zM807 590v-82
q-5 0 -13.5 -1.5t-34.5 -12t-51.5 -28t-60.5 -54t-65 -84.5t-60.5 -125.5t-52.5 -171.5h-101q20 93 50.5 170t61.5 126.5t68.5 88.5t65 59t57.5 33.5t41 16.5t19 4h-456v61h532z" />
    <glyph glyph-name="eight.alt" horiz-adv-x="1064" 
d="M60 311q0 199 136.5 335.5t335.5 136.5t335.5 -136.5t136.5 -335.5t-136.5 -335.5t-335.5 -136.5t-335.5 136.5t-136.5 335.5zM116 310q0 -173 121.5 -294.5t294.5 -121.5t294.5 121.5t121.5 294.5t-121.5 294.5t-294.5 121.5t-294.5 -121.5t-121.5 -294.5zM769 444
q0 -29 -13 -53t-30 -37t-39 -23t-33 -13t-19 -4q128 -14 151 -96q4 -15 4 -33q0 -81 -74 -122.5t-185 -41.5t-185 41.5t-74 122.5q0 31 14.5 56t31.5 38.5t43 25t34 13.5l21 5q-6 1 -15.5 3.5t-30 11.5t-36.5 21t-28.5 34.5t-12.5 50.5q0 69 68.5 113t169.5 44t169.5 -44
t68.5 -113zM692 185q0 32 -18.5 54.5t-48 31.5t-51.5 12.5t-43 3.5q-161 0 -161 -102q0 -48 44.5 -70.5t116.5 -22.5q71 0 116 22.5t45 70.5zM392 444q0 -28 15 -47.5t39.5 -28t44.5 -11.5t40 -3q139 0 139 90q0 36 -35 60.5t-104 24.5t-104 -24.5t-35 -60.5z" />
    <glyph glyph-name="nine.alt" horiz-adv-x="1064" 
d="M60 311q0 199 136.5 335.5t335.5 136.5t335.5 -136.5t136.5 -335.5t-136.5 -335.5t-335.5 -136.5t-335.5 136.5t-136.5 335.5zM116 310q0 -173 121.5 -294.5t294.5 -121.5t294.5 121.5t121.5 294.5t-121.5 294.5t-294.5 121.5t-294.5 -121.5t-121.5 -294.5zM494 230
q81 0 129.5 33t63.5 84q2 -24 2 -37q0 -97 -41.5 -157.5t-118.5 -60.5q-33 0 -58 12t-37.5 29.5t-20.5 35t-10 29.5l-2 12l-96 -29q1 -7 4.5 -17.5t20 -38t39 -48.5t65 -38.5t95.5 -17.5q120 0 189.5 80.5t69.5 208.5q0 130 -68.5 210.5t-188.5 80.5q-101 0 -167 -52.5
t-66 -133.5q0 -91 58 -138t138 -47zM531 529q110 0 145 -120q-12 -46 -50.5 -76.5t-94.5 -30.5q-66 0 -100 31t-34 82t34 82.5t100 31.5z" />
    </font>
</defs>
</svg>
