<?xml version="1.0" standalone="no"?>
<!DOCTYPE svg PUBLIC "-//W3C//DTD SVG 1.1//EN" "http://www.w3.org/Graphics/SVG/1.1/DTD/svg11.dtd" >
<svg>
<metadata>
Created by FontForge 20090622 at Wed Jun 21 19:32:15 2017
 By deploy user
Copyright (c) 2016 by Lucas LE BIHAN. All rights reserved.
</metadata>
<defs>
<font id="SportingGrotesque-Gras" horiz-adv-x="880" >
  <font-face 
    font-family="Sporting Grotesque"
    font-weight="400"
    font-stretch="normal"
    units-per-em="1000"
    panose-1="0 0 0 0 0 0 0 0 0 0"
    ascent="777"
    descent="-223"
    x-height="555"
    cap-height="777"
    bbox="-136 -551 1417 1082"
    underline-thickness="72"
    underline-position="-73"
    unicode-range="U+000D-U+FB02"
  />
<missing-glyph horiz-adv-x="434" 
 />
    <glyph glyph-name="f_f" unicode="ff" horiz-adv-x="928" 
d="M0 555h149q-5 2 -11.5 7.5t-17 24t-10.5 41.5q0 64 72.5 113.5t198.5 49.5q106 0 187 -37q74 37 177 37q57 0 106.5 -10.5t82.5 -27t59.5 -37t42 -40.5t25.5 -36.5t13 -27.5l4 -10l-172 -44q0 5 -1 13.5t-9.5 31t-23 39t-45.5 30.5t-74 14q-68 0 -95 -28.5t-27 -63.5
q0 -11 4 -21t8 -14l4 -4h212v-97h-202v-458h-165v458h-199v-458h-165v458h-128v97zM283 555h230q-5 2 -11.5 7.5t-17 24t-10.5 41.5q0 18 6 36q-37 22 -91 22q-68 0 -95 -28.5t-27 -63.5q0 -11 4 -21t8 -14z" />
    <glyph glyph-name="f_i" unicode="fi" horiz-adv-x="764" 
d="M10 555h149q-5 2 -11.5 7.5t-17 24t-10.5 41.5q0 64 72.5 113.5t198.5 49.5q57 0 106.5 -10.5t82.5 -27t59.5 -37t42 -40.5t25.5 -36.5t13 -27.5l4 -10l-172 -44q0 5 -1 13.5t-9.5 31t-23 39t-45.5 30.5t-74 14q-68 0 -95 -28.5t-27 -63.5q0 -11 4 -21t8 -14l4 -4h374
v-555h-165v458h-199v-458h-165v458h-128v97z" />
    <glyph glyph-name="f_l" unicode="fl" horiz-adv-x="748" 
d="M0 555h149q-5 2 -11.5 7.5t-17 24t-10.5 41.5q0 64 72.5 113.5t198.5 49.5q65 0 112 -20v6q36 0 77.5 3.5t64.5 7.5l23 3v-791h-165v458h-200v-458h-165v458h-128v97zM267 594q0 -11 4 -21t8 -14l4 -4h210v100q-38 31 -104 31q-68 0 -95 -28.5t-27 -63.5z" />
    <glyph glyph-name=".notdef" horiz-adv-x="434" 
 />
    <glyph glyph-name=".null" horiz-adv-x="0" 
 />
    <glyph glyph-name="nonmarkingreturn" horiz-adv-x="333" 
 />
    <glyph glyph-name="NULL" horiz-adv-x="0" 
 />
    <glyph glyph-name="NULL" horiz-adv-x="0" 
 />
    <glyph glyph-name="CR" unicode="&#xd;" horiz-adv-x="434" 
 />
    <glyph glyph-name="space" unicode=" " horiz-adv-x="434" 
 />
    <glyph glyph-name="exclam" unicode="!" horiz-adv-x="358" 
d="M90 777h178l-30 -537h-118zM90 0v150h178v-150h-178z" />
    <glyph glyph-name="quotedbl" unicode="&#x22;" horiz-adv-x="457" 
d="M90 480v297h97v-297h-97zM270 480v297h97v-297h-97z" />
    <glyph glyph-name="numbersign" unicode="#" horiz-adv-x="650" 
d="M557 283v-50h-122l-51 -233h-54l51 233h-178l-51 -233h-55l51 233h-108v50h119l32 150h-100v50h111l51 232h56l-51 -232h177l51 232h56l-52 -232h120v-50h-131l-33 -150h111zM247 433l-33 -150h178l32 150h-177z" />
    <glyph glyph-name="dollar" unicode="$" 
d="M455 -223h-43v212q-101 6 -176.5 33.5t-117 66.5t-62 80t-22.5 84l183 47q0 -3 -0.5 -9t1.5 -23.5t7.5 -33.5t19.5 -36.5t34 -36.5t54.5 -29.5t78.5 -18.5v214l-116 25q-112 24 -173 78.5t-61 128.5q0 96 90.5 163t259.5 69v221h43v-222q70 -3 127.5 -17t94 -34t63.5 -44
t40.5 -47.5t22 -42.5t9.5 -31l2 -12l-183 -50q0 6 -0.5 15t-9.5 33.5t-25.5 44t-53 38t-87.5 23.5v-194l142 -28q135 -27 191.5 -85t56.5 -142q0 -110 -103.5 -170t-266.5 -60q-4 0 -10.5 0.5t-9.5 0.5v-211zM494 310l-39 8v-208h17q89 0 139.5 24.5t50.5 68.5
q0 21 -8.5 36.5t-19 25t-36.5 18.5t-44.5 13.5t-59.5 13.5zM383 487l29 -6v187q-77 -1 -121.5 -26t-44.5 -64q0 -64 137 -91z" />
    <glyph glyph-name="percent" unicode="%" horiz-adv-x="924" 
d="M20 590q0 90 59.5 146t151.5 56t151.5 -56t59.5 -146t-59.5 -145.5t-151.5 -55.5t-151.5 55.5t-59.5 145.5zM81 590q0 -68 39 -111t111 -43t111 43t39 111t-39 111t-111 43t-111 -43t-39 -111zM482 190q0 90 59.5 146t151.5 56t151.5 -56t59.5 -146t-59.5 -145.5
t-151.5 -55.5t-151.5 55.5t-59.5 145.5zM543 190q0 -68 39 -111t111 -43t111 43t39 111t-39 111t-111 43t-111 -43t-39 -111zM644 784l48 -24l-413 -763l-46 23z" />
    <glyph glyph-name="ampersand" unicode="&#x26;" horiz-adv-x="942" 
d="M62 668v109h746v-117l-286 -267q116 -130 221 -283h179v-110h-106l56.5 -93t37.5 -67l11 -21l-180 -49q-37 94 -116 230h-605v117l311 292q-132 149 -269 259zM557 110q-77 117 -135 189l-202 -189h337zM608 668h-381q92 -69 197 -172z" />
    <glyph glyph-name="quotesingle" unicode="'" horiz-adv-x="277" 
d="M90 480v297h97v-297h-97z" />
    <glyph glyph-name="parenleft" unicode="(" horiz-adv-x="381" 
d="M40 339q0 95 32.5 179t82.5 139t104 89t102 41v-41q-28 -6 -61 -24.5t-68.5 -53.5t-64.5 -80t-47.5 -110.5t-18.5 -138.5t18.5 -138.5t47.5 -110.5t64.5 -80t68.5 -53.5t61 -24.5v-41q-48 7 -102 41t-104 89t-82.5 139t-32.5 179z" />
    <glyph glyph-name="parenright" unicode=")" horiz-adv-x="381" 
d="M341 339q0 -95 -32.5 -179t-82.5 -139t-104 -89t-102 -41v41q28 6 61 24.5t68.5 53.5t64.5 80t47.5 110.5t18.5 138.5t-18.5 138.5t-47.5 110.5t-64.5 80t-68.5 53.5t-61 24.5v41q48 -7 102 -41t104 -89t82.5 -139t32.5 -179z" />
    <glyph glyph-name="asterisk" unicode="*" horiz-adv-x="434" 
d="M241 639h-43l9 111l-77 -84l-30 31l84 69l-113 -2v44l113 -10l-84 79l30 31l74 -89l-6 116h43l-5 -116l73 87l31 -30l-84 -77l111 9v-44l-113 8l86 -74l-31 -30l-73 83z" />
    <glyph glyph-name="plus" unicode="+" horiz-adv-x="650" 
d="M300 580h50v-280h280v-50h-280v-280h-50v280h-280v50h280v280z" />
    <glyph glyph-name="comma" unicode="," horiz-adv-x="298" 
d="M238 150v-125q0 -34 -10 -67.5t-24.5 -56.5t-29 -41t-24.5 -27l-10 -9l-101 26q5 2 12.5 6t27 18.5t35.5 30.5t30 42t17 53h-101v150h178z" />
    <glyph glyph-name="hyphen" unicode="-" horiz-adv-x="502" 
d="M462 248h-422v97h422v-97z" />
    <glyph glyph-name="period" unicode="." horiz-adv-x="298" 
d="M60 0v150h178v-150h-178z" />
    <glyph glyph-name="slash" unicode="/" horiz-adv-x="245" 
d="M233 729l51 -16l-274 -823l-49 15z" />
    <glyph glyph-name="zero" unicode="0" 
d="M63 389q0 182 97 292t280 110t279.5 -110t96.5 -292q0 -181 -97 -291.5t-279 -110.5q-183 0 -280 110.5t-97 291.5zM248 389q0 -124 46.5 -201.5t145.5 -77.5t145 77.5t46 201.5q0 125 -46 202t-145 77q-68 0 -112 -39t-62 -99t-18 -141z" />
    <glyph glyph-name="one" unicode="1" 
d="M810 0h-711v110h313v488q-1 -10 -5 -21.5t-23.5 -34t-50 -39.5t-92 -30t-142.5 -13v129q162 0 237.5 41.5t75.5 146.5h178v-667h220v-110z" />
    <glyph glyph-name="two" unicode="2" 
d="M780 529q0 -58 -30.5 -114t-74 -98t-108 -84.5t-114.5 -68.5t-112 -54h454v-110h-710v100q11 4 29 11.5t71 32.5t101.5 51.5t107 66t101 79t71.5 88.5t29 96q0 60 -42 101.5t-124 41.5q-75 0 -115.5 -38t-40.5 -98q0 -31 13 -58.5t31.5 -44.5t37.5 -29.5t32 -17.5l13 -5
l-188 -51q-5 2 -13 7t-29 23.5t-37.5 40t-29.5 58t-13 77.5q0 47 21.5 92t61.5 83t107.5 61t151.5 23q167 0 257.5 -73t90.5 -189z" />
    <glyph glyph-name="three" unicode="3" 
d="M452 346h-94v106h74q183 0 183 107q0 49 -39.5 79t-99.5 30q-42 0 -75.5 -10.5t-53 -27.5t-33.5 -37.5t-19.5 -40.5t-8 -37t-2.5 -27l1 -11l-187 51l3 14.5t12 37t25 52.5t44.5 55t66 52t94 37t125.5 15q149 0 240.5 -63.5t91.5 -160.5q0 -45 -20.5 -79t-52 -51.5
t-48.5 -24t-31 -9.5q11 -2 23 -5t41.5 -15.5t51 -30t39 -50t17.5 -73.5q0 -119 -103.5 -180.5t-260.5 -61.5q-79 0 -143.5 16t-105 41.5t-71 56.5t-45 61.5t-23 56t-10.5 41.5l-1 16l186 48q2 -1 -0.5 -12t2.5 -30.5t10 -42t21.5 -45.5t38.5 -41.5t60.5 -30.5t87.5 -12
q77 0 125 33t48 87q0 116 -184 116z" />
    <glyph glyph-name="four" unicode="4" 
d="M20 185v133l453 459h210v-479h164v-113h-164v-185h-178v185h-485zM505 618l-311 -320h311v320z" />
    <glyph glyph-name="five" unicode="5" 
d="M820 262q0 -129 -100.5 -202t-268.5 -73q-78 0 -142 15t-104 38.5t-70 52.5t-44.5 57.5t-23 52t-9.5 38.5l-2 15l186 48q0 -4 -0.5 -11t2 -27t8.5 -38.5t21 -41t36.5 -38.5t58 -27t83.5 -11q82 0 133 43.5t51 107.5t-51 107.5t-133 43.5q-47 0 -88 -13.5t-59 -26.5
l-17 -14h-173l83 419h586v-109h-435l-45 -197q2 3 7 7t23 15t39 19.5t56.5 15.5t74.5 7q130 0 223.5 -77t93.5 -196z" />
    <glyph glyph-name="six" unicode="6" 
d="M264 249q1 -6 4 -15t16 -33t31.5 -42.5t53 -33.5t77.5 -15q82 0 131.5 40.5t49.5 98.5q0 67 -42.5 109.5t-119.5 42.5q-52 0 -91.5 -15.5t-59.5 -38t-32 -45t-15 -38.5zM473 668q-113 0 -173 -82.5t-55 -215.5l8.5 16.5t28 37t51.5 47t81 37t113 16.5q74 0 137.5 -27
t106 -87t42.5 -142q0 -123 -104.5 -202t-261.5 -79q-184 0 -285.5 111t-101.5 291t110 291t310 111q84 0 150.5 -20t102 -48.5t58.5 -57t29 -48.5l7 -20l-184 -50l-2.5 13t-12.5 29t-27.5 37t-50 29t-77.5 13z" />
    <glyph glyph-name="seven" unicode="7" 
d="M848 777v-129q-9 -2 -23.5 -6.5t-58 -25.5t-83 -49t-88 -80.5t-84.5 -116.5t-61.5 -160.5t-28.5 -209.5h-188q6 116 33 215.5t61 165t81.5 119.5t84.5 82.5t80 50.5t58 26.5l29 8.5h-628v109h816z" />
    <glyph glyph-name="eight" unicode="8" 
d="M796 582q0 -38 -17 -70t-39.5 -50t-48.5 -31t-41 -17.5t-21 -5.5q8 -1 23.5 -4.5t48 -17t58.5 -32t46.5 -52.5t20.5 -76q0 -107 -108.5 -173t-277.5 -66q-170 0 -278 59.5t-108 159.5q0 43 20 77.5t44.5 53t57.5 32t47.5 16.5t26.5 5q-14 3 -33.5 10t-53.5 25.5t-56.5 54
t-22.5 82.5q0 100 101.5 164.5t254.5 64.5q154 0 255 -58t101 -151zM640 226q0 49 -50.5 82.5t-149.5 33.5t-150 -33.5t-51 -82.5t51 -82.5t150 -33.5t149.5 33.5t50.5 82.5zM270 562q0 -47 45 -76.5t125 -29.5t125.5 29.5t45.5 76.5t-45.5 76.5t-125.5 29.5t-125 -29.5
t-45 -76.5z" />
    <glyph glyph-name="nine" unicode="9" 
d="M616 529q-1 6 -4 15t-16 33t-31.5 42.5t-53 33.5t-77.5 15q-82 0 -131.5 -40.5t-49.5 -98.5q0 -67 42.5 -109.5t119.5 -42.5q52 0 91.5 15.5t59.5 38t32 45t15 38.5zM407 110q113 0 173 82.5t55 215.5l-8.5 -16.5t-28 -37t-51.5 -47t-81 -37t-113 -16.5q-74 0 -137.5 27
t-106 87t-42.5 142q0 123 104.5 202t261.5 79q184 0 285.5 -111t101.5 -291t-110 -291t-310 -111q-84 0 -150.5 20t-102 48.5t-58.5 57t-29 48.5l-7 20l184 50l2.5 -13t12.5 -29t27.5 -37t50 -29t77.5 -13z" />
    <glyph glyph-name="colon" unicode=":" horiz-adv-x="298" 
d="M60 0v150h178v-150h-178zM60 405v150h178v-150h-178z" />
    <glyph glyph-name="semicolon" unicode=";" horiz-adv-x="298" 
d="M238 150v-125q0 -34 -10 -67.5t-24.5 -56.5t-29 -41t-24.5 -27l-10 -9l-101 26q5 2 12.5 6t27 18.5t35.5 30.5t30 42t17 53h-101v150h178zM60 405v150h178v-150h-178z" />
    <glyph glyph-name="less" unicode="&#x3c;" horiz-adv-x="650" 
d="M75 287l454 250l26 -46l-419 -230l418 -230l-26 -45l-453 249v52z" />
    <glyph glyph-name="equal" unicode="=" horiz-adv-x="650" 
d="M610 180v-50h-570v50h570zM610 420v-50h-570v50h570z" />
    <glyph glyph-name="greater" unicode="&#x3e;" horiz-adv-x="650" 
d="M121 537l454 -250v-52l-453 -249l-26 45l418 230l-418 230z" />
    <glyph glyph-name="question" unicode="?" horiz-adv-x="792" 
d="M772 566q0 -52 -25 -92.5t-62 -63t-81 -43.5t-81 -36t-62 -38.5t-25 -52.5h-118q-12 36 -4 59.5t31.5 45t54 36.5t63.5 34l61 36.5t46 44.5t18 59q0 51 -45 82t-122 31q-62 0 -107.5 -16t-65.5 -39t-31.5 -46t-12.5 -39l-1 -16l-183 50q0 5 1.5 13t11 32t24 45.5t45 48
t70.5 45.5t103 32t140 13q160 0 258.5 -65t98.5 -160zM288 0v150h178v-150h-178z" />
    <glyph glyph-name="at" unicode="@" horiz-adv-x="1146" 
d="M792 0q-54 0 -73.5 28.5t-19.5 102.5q-5 -9 -11 -18.5t-29 -34.5t-48.5 -43t-67 -33t-87.5 -15q-110 0 -173 62.5t-63 148.5q0 160 107.5 265t245.5 105q48 0 85.5 -14.5t56.5 -35.5t30.5 -41.5t14.5 -34.5l3 -15l69 128h96l-106 -460q-1 -5 -3.5 -13l-4 -12.5t-1.5 -9
t3 -6.5t9 -2q26 0 72 33q58 42 98 110.5t40 151.5q0 120 -61.5 211t-160.5 136t-219 45q-119 0 -225 -58.5t-173 -166.5t-67 -239q0 -211 132 -336t347 -125q110 0 211.5 47.5t159.5 129.5h63q-76 -109 -190 -168t-255 -59q-240 0 -388.5 139t-148.5 361q0 233 153 379.5
t392 146.5q126 0 235.5 -52t177.5 -150t68 -219q0 -77 -22 -142t-56 -105.5t-75 -69t-76.5 -40.5t-64.5 -12zM524 97q91 0 149 68t58 168q0 68 -40.5 97t-94.5 29q-82 0 -141.5 -69t-59.5 -168q0 -58 36 -91.5t93 -33.5z" />
    <glyph glyph-name="A" unicode="A" horiz-adv-x="1063" 
d="M861 0l-107 235h-446l-107 -235h-191l367 777h309l367 -777h-192zM506 668l-148 -323h346l-147 323h-51z" />
    <glyph glyph-name="B" unicode="B" horiz-adv-x="922" 
d="M90 777h366q199 0 292.5 -53t93.5 -164q0 -37 -14 -66t-32 -45t-41 -27t-35 -14.5t-20 -4.5q9 -1 22.5 -4.5t40 -16t47 -30t36.5 -50.5t16 -75q0 -227 -386 -227h-386v777zM268 346v-236h218q88 0 139.5 30t51.5 88q0 57 -49 87.5t-133 30.5h-227zM268 452h198
q191 0 191 108t-191 108h-198v-216z" />
    <glyph glyph-name="C" unicode="C" horiz-adv-x="1073" 
d="M1001 452l-183 -50q1 6 1 15.5t-3 37t-10.5 52.5t-27 56t-48.5 53t-78.5 37t-112.5 15q-142 0 -218 -76.5t-76 -202.5q0 -128 80.5 -203.5t213.5 -75.5q62 0 112.5 12.5t81 32.5t53 44.5t32.5 49t15.5 44.5t6.5 33v12l183 -47q-1 -6 -3.5 -17t-16 -42.5t-33 -60.5
t-57.5 -64t-86 -60t-123.5 -42.5t-164.5 -17.5q-214 0 -346.5 113t-132.5 289q0 177 131 289.5t347 112.5q95 0 172 -18.5t124 -48.5t81.5 -66t50 -72.5t24.5 -66.5t10 -49z" />
    <glyph glyph-name="D" unicode="D" horiz-adv-x="1000" 
d="M90 777h387q203 0 333 -105.5t130 -283.5q0 -177 -130 -282.5t-333 -105.5h-387v777zM414 668h-146v-558h146q169 0 255 71.5t86 206.5t-86.5 207.5t-254.5 72.5z" />
    <glyph glyph-name="E" unicode="E" horiz-adv-x="815" 
d="M90 0v777h655v-109h-477v-226h448v-109h-448v-223h507v-110h-685z" />
    <glyph glyph-name="F" unicode="F" horiz-adv-x="764" 
d="M90 0v777h654v-109h-476v-226h448v-109h-448v-333h-178z" />
    <glyph glyph-name="G" unicode="G" horiz-adv-x="1071" 
d="M991 512l-183 -50q0 8 -2 22t-17 49.5t-41 62.5t-82 49.5t-132 22.5q-141 0 -215 -79t-74 -201t78 -200t211 -78q69 0 121.5 20t78.5 48.5t42.5 57t19.5 48.5l4 20h-317v109h484v-413h-167v115l-8.5 -13.5t-29 -31t-53.5 -39t-84.5 -30.5t-118.5 -14q-191 0 -318.5 113.5
t-127.5 287.5q0 178 129.5 290.5t345.5 112.5q87 0 159 -15.5t118 -40t81 -54t53 -59.5t29 -54.5t13 -39.5z" />
    <glyph glyph-name="H" unicode="H" horiz-adv-x="1006" 
d="M738 -1v334h-470v-334h-178v777h178v-334h470v334h178v-777h-178z" />
    <glyph glyph-name="I" unicode="I" horiz-adv-x="358" 
d="M90 777h178v-777h-178v777z" />
    <glyph glyph-name="J" unicode="J" horiz-adv-x="824" 
d="M20 303l183 47q-8 -117 28.5 -178.5t144.5 -61.5q101 0 140.5 46t39.5 133v488h178v-474q0 -157 -96.5 -236.5t-261.5 -79.5q-163 0 -259.5 79.5t-96.5 236.5z" />
    <glyph glyph-name="K" unicode="K" horiz-adv-x="912" 
d="M730 0l-331 347l-131 -109v-238h-178v777h178v-366l432 366h222l-408 -335l438 -442h-222z" />
    <glyph glyph-name="L" unicode="L" horiz-adv-x="743" 
d="M90 0v777h178v-667h465v-110h-643z" />
    <glyph glyph-name="M" unicode="M" horiz-adv-x="1312" 
d="M656 170l259 607h307v-777h-178v668l-301 -668h-174l-301 668v-668h-178v777h307z" />
    <glyph glyph-name="N" unicode="N" horiz-adv-x="1007" 
d="M917 777v-777h-243l-406 607v-607h-178v777h243l406 -607v607h178z" />
    <glyph glyph-name="O" unicode="O" horiz-adv-x="1110" 
d="M60 389q0 177 136 289.5t359 112.5t359 -112.5t136 -289.5t-136 -289.5t-359 -112.5t-359 112.5t-136 289.5zM245 389q0 -123 78 -201t232 -78t232 78t78 201t-78 201t-232 78t-232 -78t-78 -201z" />
    <glyph glyph-name="P" unicode="P" horiz-adv-x="862" 
d="M90 0v777h366q198 0 292 -55t94 -167t-94 -167t-292 -55h-188v-333h-178zM268 668v-226h198q191 0 191 113t-191 113h-198z" />
    <glyph glyph-name="Q" unicode="Q" horiz-adv-x="1130" 
d="M60 389q0 177 136 289.5t359 112.5t359 -112.5t136 -289.5q0 -136 -82.5 -236.5t-226.5 -141.5q-3 -1 -7.5 -3t-9.5 -8.5t-5 -14.5q0 -58 88 -58q35 0 64 6t45.5 15t28 18t15.5 15l4 6l36 -121q-2 -3 -6 -7.5t-19.5 -16.5t-35.5 -21.5t-54.5 -17t-75.5 -7.5
q-103 0 -149.5 39.5t-47.5 91.5q0 52 26 65q-45 -5 -83 -5q-223 0 -359 112.5t-136 289.5zM245 389q0 -123 78 -201t232 -78t232 78t78 201t-78 201t-232 78t-232 -78t-78 -201z" />
    <glyph glyph-name="R" unicode="R" horiz-adv-x="915" 
d="M90 0v777h366q198 0 292 -55t94 -167q0 -151 -221 -176q104 -13 135 -93q99 -253 108 -270q5 -9 11 -16h-194l-6 10t-6 12.5t-5.5 14.5t-6.5 20.5l-7 23.5t-8.5 30l-9.5 35l-11.5 43l-13.5 50q-14 54 -62.5 74t-166.5 20h-110v-333h-178zM268 668v-226h198q191 0 191 113
t-191 113h-198z" />
    <glyph glyph-name="S" unicode="S" horiz-adv-x="871" 
d="M379 487l214 -43q135 -27 191.5 -85t56.5 -142q0 -110 -103.5 -170t-266.5 -60q-95 0 -172 17t-125.5 44t-81 63t-46.5 71t-16 71l183 47q2 -1 -0.5 -10.5t2.5 -27l11 -37.5t25 -40.5t44.5 -37t70.5 -27t102 -10.5q89 0 139.5 24.5t50.5 68.5q0 21 -8.5 36.5t-19 25
t-36.5 18.5t-44.5 13.5t-59.5 13.5l-198 42q-112 24 -173 78.5t-61 128.5q0 98 93 165t266 67q77 0 140 -12.5t102.5 -33t69.5 -45t45 -48.5t23.5 -44.5t10.5 -33.5l2 -12l-183 -50q0 6 -1 16.5t-12 37.5t-31 47.5t-65.5 37.5t-107.5 17q-78 0 -123 -25.5t-45 -64.5
q0 -64 137 -91z" />
    <glyph glyph-name="T" unicode="T" horiz-adv-x="882" 
d="M10 668v109h862v-109h-342v-668h-178v668h-342z" />
    <glyph glyph-name="U" unicode="U" horiz-adv-x="992" 
d="M724 777h178v-453q0 -337 -406 -337t-406 337v453h178v-453q0 -124 56 -169t172 -45t172 45t56 169v453z" />
    <glyph glyph-name="V" unicode="V" horiz-adv-x="1003" 
d="M212 777l290 -607l290 607h201l-397 -777h-189l-397 777h202z" />
    <glyph glyph-name="W" unicode="W" horiz-adv-x="1427" 
d="M1417 777l-293 -777h-212l-199 668l-198 -668h-214l-291 777h202l201 -608l172 608h257l172 -607l201 607h202z" />
    <glyph glyph-name="X" unicode="X" horiz-adv-x="982" 
d="M755 0l-264 275l-264 -275h-217l372 388l-372 389h217l264 -276l264 276h217l-373 -389l373 -388h-217z" />
    <glyph glyph-name="Y" unicode="Y" horiz-adv-x="982" 
d="M972 777l-392 -412v-365h-178v365l-392 412h217l264 -292l264 292h217z" />
    <glyph glyph-name="Z" unicode="Z" horiz-adv-x="818" 
d="M798 110v-110h-778v120l543 548h-543v109h778v-119l-543 -548h543z" />
    <glyph glyph-name="bracketleft" unicode="[" horiz-adv-x="333" 
d="M313 818v-50h-203v-897h203v-50h-253v997h253z" />
    <glyph glyph-name="backslash" unicode="\" horiz-adv-x="245" 
d="M-39 713l51 16l272 -824l-49 -15z" />
    <glyph glyph-name="bracketright" unicode="]" horiz-adv-x="333" 
d="M20 768v50h253v-997h-253v50h203v897h-203z" />
    <glyph glyph-name="underscore" unicode="_" horiz-adv-x="510" 
d="M490 -60v-50h-470v50h470z" />
    <glyph glyph-name="grave" unicode="`" horiz-adv-x="727" 
d="M334 776h210l136 -143h-117z" />
    <glyph glyph-name="a" unicode="a" horiz-adv-x="773" 
d="M634 359l-9 -207q-2 -55 40 -55q20 0 39 12.5t28 24.5l8 13l33 -108q-5 -6 -15 -14.5t-44.5 -23t-73.5 -14.5q-84 0 -116.5 48t-32.5 140q-7 -13 -14 -24t-34 -45t-55 -56.5t-74 -42.5t-94 -20q-77 0 -120.5 34.5t-43.5 97.5q0 79 101 143.5t312 82.5q0 23 -4 40
t-14.5 35t-35 28t-60.5 10q-43 0 -74 -12.5t-45.5 -31t-23 -36.5t-9.5 -30l-1 -13l-172 44q1 4 3.5 11t13.5 26.5t25.5 37.5t42 39.5t60 37t82 26.5t106.5 11q130 0 202 -60t69 -149zM228 153q0 -56 58 -56q32 0 63 16t52 39t37 46t24 39l7 16v39q-125 -12 -183 -52t-58 -87
z" />
    <glyph glyph-name="b" unicode="b" horiz-adv-x="805" 
d="M399 97q85 0 129 50t44 130t-44 130.5t-129 50.5t-127.5 -52.5t-42.5 -128.5t42.5 -128t127.5 -52zM255 791v-324l5.5 11t19.5 24.5t36 30.5t57 24t80 11q126 0 209 -82t83 -209t-83 -208.5t-210 -81.5q-50 0 -92 14.5t-66 35t-41 41t-23 34.5l-6 15l-38 -127h-96v777
q36 0 77.5 3.5t64.5 7.5z" />
    <glyph glyph-name="c" unicode="c" horiz-adv-x="777" 
d="M567 225l160 -41q-2 -8 -6.5 -21.5t-27.5 -47.5t-55.5 -59.5t-96.5 -47t-144 -21.5q-141 0 -239 78t-98 213q0 126 92.5 208t245.5 82q68 0 122 -14.5t85.5 -38t54 -51.5t31.5 -56t13 -51.5t4 -38.5l-1 -14l-160 -41q1 8 2 21t-3.5 46.5t-17 59.5t-45.5 47t-83 21
q-82 0 -125 -50.5t-43 -129.5q0 -83 47.5 -132t134.5 -49q42 0 73.5 13t46 32t23 38t9.5 32z" />
    <glyph glyph-name="d" unicode="d" horiz-adv-x="805" 
d="M405 97q85 0 128 52t43 128t-43 128.5t-128 52.5t-128.5 -50.5t-43.5 -130.5t43.5 -130t128.5 -50zM549 467v310q37 0 78.5 3.5t64.5 7.5l23 3v-791h-96l-39 127q-2 -6 -6.5 -15.5t-22 -33.5t-41 -42.5t-65.5 -33.5t-92 -15q-128 0 -210.5 81.5t-82.5 208.5t82.5 209
t209.5 82q43 0 79.5 -10.5t57 -25t35 -29.5t20.5 -25z" />
    <glyph glyph-name="e" unicode="e" horiz-adv-x="787" 
d="M236 346l305 10q-1 4 -2.5 11.5t-11 26t-24 32.5t-43.5 25.5t-66 11.5q-39 0 -69.5 -12t-46 -29.5t-26 -34.5t-13.5 -29zM712 258l-486 10q1 -72 47.5 -121.5t140.5 -49.5q43 0 74 13t45.5 32t23 38t9.5 32l1 13l160 -41q-1 -4 -3 -11t-12 -27.5t-24 -39t-40.5 -41.5
t-59 -39.5t-82.5 -27.5t-109 -11q-141 0 -239 78t-98 213q0 126 92 208t245 82q64 0 116.5 -13t86 -34.5t57.5 -50t36 -57.5t17.5 -59.5t5.5 -53.5t-4 -42z" />
    <glyph glyph-name="f" unicode="f" horiz-adv-x="564" 
d="M0 555h149q-5 2 -11.5 7.5t-17 24t-10.5 41.5q0 64 72.5 113.5t198.5 49.5q57 0 106.5 -10.5t82.5 -27t59.5 -37t42 -40.5t25.5 -36.5t13 -27.5l4 -10l-172 -44q0 5 -1 13.5t-9.5 31t-23 39t-45.5 30.5t-74 14q-68 0 -95 -28.5t-27 -63.5q0 -11 4 -21t8 -14l4 -4h212v-97
h-202v-458h-165v458h-128v97z" />
    <glyph glyph-name="g" unicode="g" horiz-adv-x="774" 
d="M375 170q-56 0 -97 7q-55 3 -55 -37q0 -43 101 -43h205q66 0 112.5 -14.5t70.5 -40t34.5 -53t10.5 -59.5q0 -78 -74.5 -122.5t-203.5 -44.5h-221q-119 0 -173.5 38t-54.5 88q0 23 11 42t31 31.5t37 20.5t41.5 13t31.5 6t19 3q-10 1 -28 5t-45.5 14t-46.5 31.5t-19 49.5
q0 73 140 92q-69 25 -106 70t-37 101q0 87 84.5 143.5t229.5 56.5q142 0 228 -56q-24 36 -24 56q0 37 23 58t64 21q18 0 72 -4l38 -123q-52 8 -86 8q-40 0 -47 -17t11 -45q35 -44 35 -98q0 -86 -84.5 -142t-227.5 -56zM496 -12l-195 12q-5 0 -12 -0.5t-23.5 -5t-29 -12
t-22.5 -24.5t-10 -40q0 -42 40.5 -59t143.5 -17q100 0 147.5 15.5t47.5 61.5q0 32 -20 49t-67 20zM226 368q0 -101 147 -101q145 0 145 101q0 103 -145 103q-147 0 -147 -103z" />
    <glyph glyph-name="h" unicode="h" horiz-adv-x="815" 
d="M255 791v-372q1 9 5 21t18.5 36.5t36.5 43.5t63 33.5t94 14.5q126 0 189.5 -60t63.5 -168v-340h-164v348q0 54 -36.5 82t-97.5 28q-40 0 -72.5 -12.5t-50 -30.5t-29.5 -36t-16 -31l-4 -12v-336h-165v777q40 0 81.5 3.5t62.5 7.5z" />
    <glyph glyph-name="i" unicode="i" horiz-adv-x="345" 
d="M90 0v555h165v-555h-165zM90 650v127h165v-127h-165z" />
    <glyph glyph-name="j" unicode="j" horiz-adv-x="345" 
d="M90 5v550h165v-542q0 -119 -61.5 -184.5t-156.5 -65.5q-34 0 -64 8.5t-49 20.5t-33.5 24.5t-20.5 21.5l-6 8l32 107q1 -3 3.5 -8.5t11 -19.5t19.5 -24.5t29.5 -19t40.5 -8.5q46 0 68 30t22 102zM90 635v127h165v-127h-165z" />
    <glyph glyph-name="k" unicode="k" horiz-adv-x="708" 
d="M90 0v777q40 0 81.5 3.5t62.5 7.5l21 4v-481l243 244h200l-274 -257l314 -298h-201l-207 210l-75 -72v-138h-165z" />
    <glyph glyph-name="l" unicode="l" horiz-adv-x="345" 
d="M90 0v777q36 0 77.5 3.5t64.5 7.5l23 3v-791h-165z" />
    <glyph glyph-name="m" unicode="m" horiz-adv-x="1203" 
d="M1113 340v-340h-165v343q0 24 -3.5 41t-14 35.5t-34 28.5t-58.5 10q-34 0 -62 -12.5t-44.5 -30.5t-28 -36t-15.5 -31l-4 -12v-336h-165v343q0 24 -3.5 41t-14 35.5t-34 28.5t-58.5 10q-34 0 -62 -12.5t-44.5 -30.5t-28 -36t-15.5 -31l-4 -12v-336h-165v555h96l47 -157
q1 7 3 18.5t16 40.5t36 51.5t68.5 41t106.5 18.5q40 0 72.5 -9t52.5 -23t35 -33t22 -35t11.5 -33t5 -24.5t0.5 -11.5q1 11 4.5 24t18.5 41.5t37.5 49t67 37.5t102.5 17q107 0 164 -57.5t57 -170.5z" />
    <glyph glyph-name="n" unicode="n" horiz-adv-x="815" 
d="M560 0v348q0 110 -140 110q-37 0 -67.5 -12.5t-47.5 -30.5t-29 -36t-16 -31l-5 -12v-336h-165v555h96l47 -157q1 7 3 18.5t16 40.5t36 51.5t68.5 41t108.5 18.5q260 0 260 -228v-340h-165z" />
    <glyph glyph-name="o" unicode="o" horiz-adv-x="808" 
d="M60 278q0 125 93 207.5t250 82.5q159 0 252 -82.5t93 -207.5q0 -126 -93 -208.5t-252 -82.5q-157 0 -250 82.5t-93 208.5zM233 278q0 -78 40.5 -129.5t129.5 -51.5t130.5 52t41.5 129t-41.5 128.5t-130.5 51.5q-90 0 -130 -51.5t-40 -128.5z" />
    <glyph glyph-name="p" unicode="p" horiz-adv-x="805" 
d="M399 458q-85 0 -127.5 -52t-42.5 -128t42.5 -128.5t127.5 -52.5t129 50.5t44 130.5t-44 130t-129 50zM255 89v-312h-165v778h96l38 -127q2 6 6.5 15.5t22.5 33.5t41.5 42.5t65.5 33.5t92 15q127 0 210 -81.5t83 -208.5t-83 -209t-209 -82q-43 0 -79.5 10.5t-57.5 25.5
t-35.5 30t-20.5 25z" />
    <glyph glyph-name="q" unicode="q" horiz-adv-x="805" 
d="M405 458q-85 0 -128.5 -50t-43.5 -130t43.5 -130.5t128.5 -50.5t128 52.5t43 128.5t-43 128t-128 52zM549 -223v311l-5.5 -11t-19 -24.5t-36 -30.5t-57 -24t-79.5 -11q-127 0 -209.5 82t-82.5 209t82.5 208.5t210.5 81.5q50 0 92 -14.5t66 -35t40.5 -41t22.5 -35.5l6 -14
l39 127h96v-778h-166z" />
    <glyph glyph-name="r" unicode="r" horiz-adv-x="571" 
d="M255 337v-337h-165v555h96l47 -157q0 7 1 18.5t9 40.5t23 51.5t48 41t78 18.5q149 0 149 -145q0 -31 -3.5 -57.5t-6.5 -37.5l-3 -11l-160 -41q17 56 17 132q0 50 -44 50q-31 0 -52.5 -30t-27.5 -60z" />
    <glyph glyph-name="s" unicode="s" horiz-adv-x="700" 
d="M40 181l160 41q0 -5 1 -13.5t10 -30t25.5 -38t52.5 -30t85 -13.5q53 0 88 15t35 43q0 25 -26 39.5t-86 25.5l-130 24q-187 34 -187 151q0 80 74.5 126.5t187.5 46.5q57 0 104 -9t77 -23t53 -31.5t35 -35t19.5 -31.5t9.5 -23l2 -9l-160 -41q0 4 -1.5 10.5t-10 23.5
t-22.5 30t-43.5 23.5t-69.5 10.5q-49 0 -75.5 -17.5t-26.5 -40.5t24.5 -33t81.5 -20l140 -23q193 -32 193 -169q0 -82 -81.5 -127.5t-206.5 -45.5q-65 0 -118.5 10.5t-87 28t-59 38t-37.5 41t-19.5 38t-8.5 27.5z" />
    <glyph glyph-name="t" unicode="t" horiz-adv-x="573" 
d="M0 458v97h132v109l159 100v-209h255v-97h-255v-252q0 -109 98 -109q39 0 72 20t47 40l13 20l32 -108q-3 -3 -8 -8.5t-24.5 -20t-41.5 -25t-58.5 -19.5t-76.5 -9q-103 0 -159.5 51t-56.5 156v264h-128z" />
    <glyph glyph-name="u" unicode="u" horiz-adv-x="815" 
d="M254 555v-348q0 -110 141 -110q37 0 67.5 12.5t47.5 30.5t29 36t17 30l4 13v336h165v-555h-96l-47 157q-1 -7 -3 -18.5t-16 -40.5t-36 -51.5t-68.5 -41t-108.5 -18.5q-260 0 -260 228v340h164z" />
    <glyph glyph-name="v" unicode="v" horiz-adv-x="748" 
d="M738 555l-284 -555h-160l-284 555h181l183 -409l183 409h181z" />
    <glyph glyph-name="w" unicode="w" horiz-adv-x="1097" 
d="M246 0l-236 555h181l142 -409l136 409h159l136 -409l142 409h181l-236 -555h-163l-140 401l-139 -401h-163z" />
    <glyph glyph-name="x" unicode="x" horiz-adv-x="758" 
d="M201 555l178 -181l178 181h191l-274 -278l274 -277h-191l-178 180l-178 -180h-191l273 277l-273 278h191z" />
    <glyph glyph-name="y" unicode="y" horiz-adv-x="738" 
d="M287 15l-277 540h181l173 -399l183 399h181l-325 -617q-50 -95 -102.5 -135t-130.5 -40q-30 0 -57 8.5t-44 20.5t-30 24.5t-19 21.5l-6 8l32 107q1 -3 3.5 -8.5t11 -19.5t20 -24.5t31 -19t42.5 -8.5q41 0 71 37t62 105z" />
    <glyph glyph-name="z" unicode="z" horiz-adv-x="705" 
d="M60 0v107l383 351h-383v97h585v-107l-377 -351h377v-97h-585z" />
    <glyph glyph-name="braceleft" unicode="{" horiz-adv-x="306" 
d="M30 292v90q40 1 67.5 20.5t20.5 67.5l-21 136q-14 90 38.5 133t145.5 48l5 -41q-72 -7 -106 -40t-25 -109l16 -132q7 -59 -21.5 -91t-68.5 -37q40 -5 68.5 -37t21.5 -91l-16 -132q-9 -76 25 -109t106 -40l-5 -40q-94 5 -146 48t-38 132l21 136q7 48 -20.5 67.5
t-67.5 20.5z" />
    <glyph glyph-name="bar" unicode="|" horiz-adv-x="170" 
d="M60 729h50v-839h-50v839z" />
    <glyph glyph-name="braceright" unicode="}" horiz-adv-x="306" 
d="M276 382v-90q-40 -1 -67.5 -20.5t-20.5 -67.5l21 -136q14 -89 -38 -132t-146 -48l-5 40q72 7 106 40t25 109l-16 132q-7 59 21.5 91t68.5 37q-40 5 -68.5 37t-21.5 91l16 132q9 76 -25 109t-106 40l5 41q93 -5 145.5 -48t38.5 -133l-21 -136q-7 -48 20.5 -67.5
t67.5 -20.5z" />
    <glyph glyph-name="exclamdown" unicode="&#xa1;" horiz-adv-x="358" 
d="M268 -537h-178l30 537h118zM90 90v150h178v-150h-178z" />
    <glyph glyph-name="cent" unicode="&#xa2;" 
d="M467 -223h-43v211q-135 6 -226.5 82.5t-91.5 207.5q0 121 86.5 202t231.5 87v210h43v-210q63 -2 113 -18t79.5 -39.5t50 -51t28.5 -55t12 -49.5t4 -36l-1 -14l-160 -41q1 7 2 19.5t-2.5 44t-14.5 56.5t-39.5 47.5t-71.5 26.5v-360q40 1 70 14.5t44 32.5t22 37t9 31l1 13
l160 -41q-2 -8 -6 -20.5t-25.5 -45t-52 -58t-89.5 -47.5t-133 -25v-211zM278 278q0 -74 38 -121.5t108 -57.5v358q-72 -7 -109 -56.5t-37 -122.5z" />
    <glyph glyph-name="sterling" unicode="&#xa3;" 
d="M570 391v-50h-180q38 -54 38 -118q0 -49 -17 -89q36 -24 85 -24t84 26t49.5 62.5t22.5 73t8 62.5l-1 26l185 -48q0 -7 -1.5 -18.5t-9.5 -45.5t-20 -64.5t-37.5 -68t-58.5 -64.5t-86 -45.5t-117 -18.5q-37 0 -82 13t-72 26l-26 13q-60 -52 -164 -52q-84 0 -132.5 38
t-48.5 99q0 62 41 99t116 37q32 0 65 -11t49 -23l17 -11q-6 52 -95 118q-4 2 -12 8h-170v50h107q-67 63 -67 147q0 103 93 177.5t278 74.5q76 0 136.5 -15.5t97 -40.5t63.5 -55t38.5 -60t18 -55t7.5 -40v-16l-185 -51q-2 1 0 12t-2.5 30t-9 41t-19.5 45t-34.5 41.5t-53.5 30
t-76 11.5q-79 0 -123.5 -32.5t-44.5 -83.5q0 -27 14.5 -53.5t30 -41.5t42.5 -39l32 -27h227zM164 81q22 0 40 9t24 18l7 9q-21 21 -30 28.5t-25.5 16t-33.5 8.5q-22 0 -33 -13t-11 -31t16.5 -31.5t45.5 -13.5z" />
    <glyph glyph-name="yen" unicode="&#xa5;" 
d="M351 365l-351 412h217l223 -292l223 292h217l-351 -412v-33h196v-50h-196v-110h196v-50h-196v-122h-178v122h-196v50h196v110h-196v50h196v33z" />
    <glyph glyph-name="brokenbar" unicode="&#xa6;" horiz-adv-x="170" 
d="M60 225h50v-335h-50v335zM60 729h50v-335h-50v335z" />
    <glyph glyph-name="section" unicode="&#xa7;" horiz-adv-x="712" 
d="M632 275q0 -47 -40 -83.5t-107 -49.5q89 -35 134 -78t45 -105q0 -83 -80 -133.5t-199 -50.5q-66 0 -121.5 12t-91.5 31.5t-64 43.5t-43 47.5t-24.5 43t-12.5 31.5l-2 12l180 48q0 -3 -0.5 -8.5t1.5 -20.5t7 -29t17.5 -31t31 -29t50.5 -20.5t73 -8.5q49 0 75.5 18t26.5 50
q0 23 -18.5 40.5t-69.5 39.5l-148 64q-95 41 -142.5 82.5t-47.5 93.5q0 51 40.5 89t108.5 50q-93 43 -137 82t-44 100q0 83 80 134t199 51q66 0 121.5 -12t91.5 -32t64 -43.5t43 -47t24.5 -43.5t12.5 -32l2 -12l-180 -48q0 3 0.5 8.5t-1 20.5t-6.5 29t-18 31t-31.5 29
t-50.5 20.5t-73 8.5q-48 0 -75 -18.5t-27 -48.5q0 -22 20.5 -41t69.5 -40l153 -67q113 -50 148 -90t35 -88zM327 340q-39 0 -64.5 -14.5t-25.5 -36.5q0 -27 34.5 -45.5t95.5 -18.5q39 0 66 15t27 37q0 30 -39 46.5t-94 16.5z" />
    <glyph glyph-name="dieresis" unicode="&#xa8;" horiz-adv-x="358" 
d="M-10 627v150h138v-150h-138zM230 627v150h138v-150h-138z" />
    <glyph glyph-name="copyright" unicode="&#xa9;" horiz-adv-x="1064" 
d="M60 311q0 199 136.5 335.5t335.5 136.5t335.5 -136.5t136.5 -335.5t-136.5 -335.5t-335.5 -136.5t-335.5 136.5t-136.5 335.5zM116 310q0 -173 121.5 -294.5t294.5 -121.5t294.5 121.5t121.5 294.5t-121.5 294.5t-294.5 121.5t-294.5 -121.5t-121.5 -294.5zM835 387
l-142 -42q0 6 -0.5 15.5t-9 34t-24.5 43.5t-50.5 34.5t-82.5 15.5q-81 0 -126 -49.5t-45 -127.5t48 -128t129 -50q48 0 83 14.5t50 36t23.5 42.5t9.5 36v14l142 -40q-1 -9 -4.5 -24t-23 -53.5t-49.5 -67.5t-91 -53t-140 -24q-146 0 -233 83.5t-87 213.5q0 131 83.5 213.5
t230.5 82.5q60 0 109.5 -12t81 -31.5t55 -43t35 -47t18.5 -43t9 -31.5z" />
    <glyph glyph-name="guillemotleft" unicode="&#xab;" horiz-adv-x="689" 
d="M30 277l201 219h128l-151 -219l151 -219h-128zM330 277l201 219h128l-151 -219l151 -219h-128z" />
    <glyph glyph-name="registered" unicode="&#xae;" horiz-adv-x="1064" 
d="M60 311q0 199 136.5 335.5t335.5 136.5t335.5 -136.5t136.5 -335.5t-136.5 -335.5t-335.5 -136.5t-335.5 136.5t-136.5 335.5zM116 310q0 -173 121.5 -294.5t294.5 -121.5t294.5 121.5t121.5 294.5t-121.5 294.5t-294.5 121.5t-294.5 -121.5t-121.5 -294.5zM292 595v-569
h138v237h55q74 0 97.5 -12t33.5 -50l8 -31q19 -80 26 -105t18 -39h150q-17 24 -29 58.5t-38 137.5q-8 33 -30.5 56t-55.5 27q60 8 92.5 42t32.5 86q0 162 -255 162h-243zM430 370v116h105q60 0 86 -12t26 -46t-26 -46t-86 -12h-105z" />
    <glyph glyph-name="degree" unicode="&#xb0;" horiz-adv-x="348" 
d="M40 597q0 54 39.5 93t93.5 39q55 0 95 -39t40 -93t-40 -92t-95 -38q-54 0 -93.5 38t-39.5 92zM96 597q0 -35 22 -57t55 -22q34 0 56.5 22t22.5 57q0 36 -22.5 58.5t-56.5 22.5q-33 0 -55 -22.5t-22 -58.5z" />
    <glyph glyph-name="plusminus" unicode="&#xb1;" horiz-adv-x="650" 
d="M300 696h50v-280h280v-50h-280v-280h-50v280h-280v50h280v280zM630 50v-50h-610v50h610z" />
    <glyph glyph-name="acute" unicode="&#xb4;" horiz-adv-x="727" 
d="M610 777h210l-229 -144h-117z" />
    <glyph glyph-name="paragraph" unicode="&#xb6;" horiz-adv-x="836" 
d="M299 -223v561q-124 0 -201.5 56t-77.5 161q0 115 76.5 168.5t202.5 53.5h447v-1000h-165v891h-117v-891h-165z" />
    <glyph glyph-name="periodcentered" unicode="&#xb7;" horiz-adv-x="545" 
d="M72 280q0 84 58.5 142.5t141.5 58.5t142 -58.5t59 -142.5q0 -82 -59 -140.5t-142 -58.5q-82 0 -141 58.5t-59 140.5z" />
    <glyph glyph-name="cedilla" unicode="&#xb8;" horiz-adv-x="833" 
d="M382 22l-28 -77q21 17 54 17q39 0 63 -23.5t24 -62.5q0 -53 -41 -83t-96 -30q-37 0 -68 11.5t-44 23.5l-12 12l18 68q1 -4 11 -14t33.5 -21.5t51.5 -11.5q31 0 49 12t18 33q0 18 -11.5 29t-30.5 11q-12 0 -21.5 -5.5t-13.5 -10.5l-4 -6l-52 10l42 118h58z" />
    <glyph glyph-name="guillemotright" unicode="&#xbb;" horiz-adv-x="689" 
d="M158 496l201 -219l-201 -219h-128l151 219l-151 219h128zM458 496l201 -219l-201 -219h-128l151 219l-151 219h128z" />
    <glyph glyph-name="onequarter" unicode="&#xbc;" horiz-adv-x="778" 
d="M403 94v62l211 232h86v-252h78v-42h-78v-94h-65v94h-232zM582 784l48 -24l-413 -763l-46 23zM320 390h-320v42h150l-1 304q0 -59 -30 -82.5t-119 -23.5v49q78 0 114 22t36 77h65v-346h105v-42zM635 341l-182 -205h182v205z" />
    <glyph glyph-name="onehalf" unicode="&#xbd;" horiz-adv-x="778" 
d="M770 268q0 -29 -12.5 -56.5t-29 -47t-43.5 -41t-46 -33l-46.5 -27.5t-34.5 -21h220v-42h-320v37q10 4 26.5 11.5t58.5 32t74 50t58.5 62.5t26.5 73q0 35 -22.5 57.5t-66.5 22.5q-43 0 -64.5 -22.5t-21.5 -56.5q0 -22 11.5 -42.5t21 -28t14.5 -10.5l-66 -20q-5 4 -13 12
t-21.5 35t-13.5 56q0 50 40.5 88t113.5 38q75 0 115.5 -35.5t40.5 -91.5zM582 784l48 -24l-413 -763l-46 23zM320 390h-320v42h150l-1 304q0 -59 -30 -82.5t-119 -23.5v49q78 0 114 22t36 77h65v-346h105v-42z" />
    <glyph glyph-name="threequarters" unicode="&#xbe;" horiz-adv-x="778" 
d="M403 94v62l211 232h86v-252h78v-42h-78v-94h-65v94h-232zM168 574h-25v42h25q45 0 71.5 17t26.5 47q0 27 -23 44.5t-60 17.5q-29 0 -49.5 -9.5t-29 -23t-13 -27t-4.5 -22.5v-10l-67 20l2.5 13t12.5 29t27 37t49 29t75 13q66 0 107.5 -29t41.5 -73q0 -26 -12 -44.5
t-31 -26.5t-32 -10.5t-25 -3.5q10 -1 18 -2t27 -7t31.5 -15t23 -28.5t10.5 -45.5q0 -58 -47 -87.5t-118 -29.5q-49 0 -85.5 14t-53.5 33.5t-27.5 39t-11.5 33.5l-2 14l67 20v-11t5 -25.5t15 -32t34 -25t57 -11.5q46 0 72 18t26 51q0 67 -108 67zM582 784l48 -24l-413 -763
l-46 23zM635 341l-182 -205h182v205z" />
    <glyph glyph-name="questiondown" unicode="&#xbf;" horiz-adv-x="792" 
d="M288 90v150h178v-150h-178zM772 -326q0 -95 -98.5 -160t-258.5 -65q-77 0 -140 12.5t-103 33t-70 45t-45 48.5t-24 44.5t-11 33.5l-2 12l183 50q0 -6 1 -16.5t12.5 -37.5t31.5 -47.5t65.5 -37.5t107.5 -17q77 0 122 31t45 82q0 32 -18 59t-46 44.5l-61 36.5t-63.5 34
t-54 36.5t-31.5 45t4 59.5h118q0 -29 25 -52.5t62 -38.5t81 -36t81 -43.5t62 -63t25 -92.5z" />
    <glyph glyph-name="Agrave" unicode="&#xc0;" horiz-adv-x="1063" 
d="M861 0l-107 235h-446l-107 -235h-191l367 777h309l367 -777h-192zM506 668l-148 -323h346l-147 323h-51zM278 1018h210l136 -143h-117z" />
    <glyph glyph-name="Aacute" unicode="&#xc1;" horiz-adv-x="1063" 
d="M861 0l-107 235h-446l-107 -235h-191l367 777h309l367 -777h-192zM506 668l-148 -323h346l-147 323h-51zM554 1019h210l-229 -144h-117z" />
    <glyph glyph-name="Acircumflex" unicode="&#xc2;" horiz-adv-x="1063" 
d="M861 0l-107 235h-446l-107 -235h-191l367 777h309l367 -777h-192zM506 668l-148 -323h346l-147 323h-51zM470 1019h150l186 -144h-97l-164 62l-164 -62h-97z" />
    <glyph glyph-name="Atilde" unicode="&#xc3;" horiz-adv-x="1063" 
d="M861 0l-107 235h-446l-107 -235h-191l367 777h309l367 -777h-192zM506 668l-148 -323h346l-147 323h-51zM636 967q27 0 45 16.5t23 32.5l5 17l40 -56l-3 -11.5t-11 -26t-21 -33t-33.5 -26t-47.5 -11.5q-46 0 -95.5 33t-82.5 33q-26 0 -44 -16.5t-23 -32.5l-5 -17l-40 56
l3 11.5t11 26t21 33t33.5 26t47.5 11.5q45 0 95.5 -33t81.5 -33z" />
    <glyph glyph-name="Adieresis" unicode="&#xc4;" horiz-adv-x="1063" 
d="M861 0l-107 235h-446l-107 -235h-191l367 777h309l367 -777h-192zM506 668l-148 -323h346l-147 323h-51zM356 869v150h138v-150h-138zM596 869v150h138v-150h-138z" />
    <glyph glyph-name="Aring" unicode="&#xc5;" horiz-adv-x="1063" 
d="M861 0l-107 235h-446l-107 -235h-191l367 777h309l367 -777h-192zM506 668l-148 -323h346l-147 323h-51zM426 971q0 46 33.5 78.5t85.5 32.5q54 0 87.5 -31t33.5 -80q0 -45 -34.5 -77t-86.5 -32q-51 0 -85 32t-34 77zM502 972q0 -20 13 -32t31 -12t31 12.5t13 31.5
q0 18 -13 31t-31 13t-31 -12t-13 -32z" />
    <glyph glyph-name="AE" unicode="&#xc6;" horiz-adv-x="1412" 
d="M687 0v333h-334l-152 -333h-191l367 777h310h655v-109h-477v-226h448v-109h-448v-223h507v-110h-685zM506 668l-103 -226h284v226h-181z" />
    <glyph glyph-name="Ccedilla" unicode="&#xc7;" horiz-adv-x="1073" 
d="M1001 452l-183 -50q1 6 1 15.5t-3 37t-10.5 52.5t-27 56t-48.5 53t-78.5 37t-112.5 15q-142 0 -218 -76.5t-76 -202.5q0 -128 80.5 -203.5t213.5 -75.5q62 0 112.5 12.5t81 32.5t53 44.5t32.5 49t15.5 44.5t6.5 33v12l183 -47q-1 -6 -3.5 -17t-16 -42.5t-32.5 -60
t-57.5 -64t-86.5 -60.5t-122.5 -42.5t-163.5 -17.5l-15 -42q21 17 54 17q39 0 63 -23.5t24 -62.5q0 -53 -41 -83t-96 -30q-37 0 -68 11.5t-44 23.5l-12 12l18 68q1 -4 11 -14t33.5 -21.5t51.5 -11.5q31 0 49 12t18 33q0 18 -11.5 29t-30.5 11q-12 0 -21.5 -5.5t-13.5 -10.5
l-4 -6l-52 10l30 86q-192 14 -308 124.5t-116 274.5q0 177 131 289.5t347 112.5q95 0 172 -18.5t124 -48.5t81.5 -66t50 -72.5t24.5 -66.5t10 -49z" />
    <glyph glyph-name="Egrave" unicode="&#xc8;" horiz-adv-x="815" 
d="M90 0v777h655v-109h-477v-226h448v-109h-448v-223h507v-110h-685zM213 1018h210l136 -143h-117z" />
    <glyph glyph-name="Eacute" unicode="&#xc9;" horiz-adv-x="815" 
d="M90 0v777h655v-109h-477v-226h448v-109h-448v-223h507v-110h-685zM459 1019h210l-229 -144h-117z" />
    <glyph glyph-name="Ecircumflex" unicode="&#xca;" horiz-adv-x="815" 
d="M90 0v777h655v-109h-477v-226h448v-109h-448v-223h507v-110h-685zM355 1019h150l186 -144h-97l-164 62l-164 -62h-97z" />
    <glyph glyph-name="Edieresis" unicode="&#xcb;" horiz-adv-x="815" 
d="M90 0v777h655v-109h-477v-226h448v-109h-448v-223h507v-110h-685zM251 869v150h138v-150h-138zM491 869v150h138v-150h-138z" />
    <glyph glyph-name="Igrave" unicode="&#xcc;" horiz-adv-x="358" 
d="M90 777h178v-777h-178v777zM-68 1018h210l136 -143h-117z" />
    <glyph glyph-name="Iacute" unicode="&#xcd;" horiz-adv-x="358" 
d="M90 777h178v-777h-178v777zM216 1019h210l-229 -144h-117z" />
    <glyph glyph-name="Icircumflex" unicode="&#xce;" horiz-adv-x="358" 
d="M90 777h178v-777h-178v777zM104 1019h150l186 -144h-97l-164 62l-164 -62h-97z" />
    <glyph glyph-name="Idieresis" unicode="&#xcf;" horiz-adv-x="358" 
d="M90 777h178v-777h-178v777zM-10 869v150h138v-150h-138zM230 869v150h138v-150h-138z" />
    <glyph glyph-name="Ntilde" unicode="&#xd1;" horiz-adv-x="1007" 
d="M917 777v-777h-243l-406 607v-607h-178v777h243l406 -607v607h178zM594 960q27 0 45 16.5t23 33.5l5 16l40 -56l-3 -11.5t-11 -26t-21 -33t-33.5 -26t-47.5 -11.5q-46 0 -95.5 33t-82.5 33q-26 0 -44 -16.5t-23 -33.5l-5 -16l-40 56l3 11.5t11 26t21 33t33.5 26
t47.5 11.5q45 0 95.5 -33t81.5 -33z" />
    <glyph glyph-name="Ograve" unicode="&#xd2;" horiz-adv-x="1110" 
d="M60 389q0 177 136 289.5t359 112.5t359 -112.5t136 -289.5t-136 -289.5t-359 -112.5t-359 112.5t-136 289.5zM245 389q0 -123 78 -201t232 -78t232 78t78 201t-78 201t-232 78t-232 -78t-78 -201zM302 1018h210l136 -143h-117z" />
    <glyph glyph-name="Oacute" unicode="&#xd3;" horiz-adv-x="1110" 
d="M60 389q0 177 136 289.5t359 112.5t359 -112.5t136 -289.5t-136 -289.5t-359 -112.5t-359 112.5t-136 289.5zM245 389q0 -123 78 -201t232 -78t232 78t78 201t-78 201t-232 78t-232 -78t-78 -201zM578 1019h210l-229 -144h-117z" />
    <glyph glyph-name="Ocircumflex" unicode="&#xd4;" horiz-adv-x="1110" 
d="M60 389q0 177 136 289.5t359 112.5t359 -112.5t136 -289.5t-136 -289.5t-359 -112.5t-359 112.5t-136 289.5zM245 389q0 -123 78 -201t232 -78t232 78t78 201t-78 201t-232 78t-232 -78t-78 -201zM479 1019h150l186 -144h-97l-164 62l-164 -62h-97z" />
    <glyph glyph-name="Odieresis" unicode="&#xd6;" horiz-adv-x="1110" 
d="M60 389q0 177 136 289.5t359 112.5t359 -112.5t136 -289.5t-136 -289.5t-359 -112.5t-359 112.5t-136 289.5zM245 389q0 -123 78 -201t232 -78t232 78t78 201t-78 201t-232 78t-232 -78t-78 -201zM365 869v150h138v-150h-138zM605 869v150h138v-150h-138z" />
    <glyph glyph-name="multiply" unicode="&#xd7;" horiz-adv-x="650" 
d="M60 502l36 36l229 -229l229 229l36 -36l-229 -229l229 -229l-36 -36l-229 229l-229 -229l-36 36l229 229z" />
    <glyph glyph-name="Oslash" unicode="&#xd8;" horiz-adv-x="1110" 
d="M60 389q0 177 136 289.5t359 112.5q54 0 99 -7l32 98l51 -16l-31 -91q160 -35 252 -138.5t92 -247.5q0 -177 -136 -289.5t-359 -112.5q-54 0 -108 8l-33 -100l-49 15l31 94q-156 37 -246 140t-90 245zM865 389q0 97 -50 168t-149 97l-179 -540q28 -4 68 -4q154 0 232 78
t78 201zM245 389q0 -96 48 -166.5t143 -97.5l178 539q-25 4 -59 4q-154 0 -232 -78t-78 -201z" />
    <glyph glyph-name="Ugrave" unicode="&#xd9;" horiz-adv-x="992" 
d="M724 777h178v-453q0 -337 -406 -337t-406 337v453h178v-453q0 -124 56 -169t172 -45t172 45t56 169v453zM258 1018h210l136 -143h-117z" />
    <glyph glyph-name="Uacute" unicode="&#xda;" horiz-adv-x="992" 
d="M724 777h178v-453q0 -337 -406 -337t-406 337v453h178v-453q0 -124 56 -169t172 -45t172 45t56 169v453zM534 1019h210l-229 -144h-117z" />
    <glyph glyph-name="Ucircumflex" unicode="&#xdb;" horiz-adv-x="992" 
d="M724 777h178v-453q0 -337 -406 -337t-406 337v453h178v-453q0 -124 56 -169t172 -45t172 45t56 169v453zM418 1019h150l186 -144h-97l-164 62l-164 -62h-97z" />
    <glyph glyph-name="Udieresis" unicode="&#xdc;" horiz-adv-x="992" 
d="M724 777h178v-453q0 -337 -406 -337t-406 337v453h178v-453q0 -124 56 -169t172 -45t172 45t56 169v453zM305 869v150h138v-150h-138zM545 869v150h138v-150h-138z" />
    <glyph glyph-name="Yacute" unicode="&#xdd;" horiz-adv-x="982" 
d="M972 777l-392 -412v-365h-178v365l-392 412h217l264 -292l264 292h217zM490 1019h210l-229 -144h-117z" />
    <glyph glyph-name="germandbls" unicode="&#xdf;" horiz-adv-x="754" 
d="M694 177q0 -86 -60 -138t-145 -52q-40 0 -74.5 8.5t-55 20.5t-35 24t-20.5 20l-5 9l32 108q2 -3 5 -8.5t15 -19.5t24.5 -24.5t33 -19t42.5 -8.5q35 0 52.5 24t17.5 62q0 75 -62 112t-159 37v97q93 0 147.5 32.5t54.5 94.5q0 52 -32 88t-93 36q-63 0 -93.5 -36.5
t-30.5 -91.5v-552h-163v571q0 43 12.5 79t41.5 69.5t87.5 52.5t141.5 19q81 0 142 -19t94.5 -50.5t49.5 -66t16 -71.5q0 -43 -18 -78t-43.5 -55.5t-51.5 -34.5t-44 -19l-18 -5q194 -51 194 -215z" />
    <glyph glyph-name="agrave" unicode="&#xe0;" horiz-adv-x="773" 
d="M625 152l9 207q3 89 -69 149t-202 60q-78 0 -141.5 -19.5t-97.5 -47t-57 -55.5t-30 -48l-7 -19l172 -44q0 5 1 13.5t9.5 29.5t23 37t45.5 29.5t74 13.5q68 0 91 -31.5t23 -81.5q-211 -18 -312 -82.5t-101 -143.5q0 -63 43.5 -97.5t120.5 -34.5q48 0 94 20t74 42.5
t55 56.5t34 45t14 24q0 -92 32.5 -140t116.5 -48q39 0 72 13t47 26l14 13l-33 108q-3 -6 -9 -14t-26 -22t-40 -14q-42 0 -40 55zM228 153q0 47 58 87t183 52v-39l-8 -16.5t-23 -37.5t-37.5 -47.5t-51 -37.5t-63.5 -17q-58 0 -58 56zM116 791h210l136 -143h-117z" />
    <glyph glyph-name="aacute" unicode="&#xe1;" horiz-adv-x="773" 
d="M625 152l9 207q3 89 -69 149t-202 60q-78 0 -141.5 -19.5t-97.5 -47t-57 -55.5t-30 -48l-7 -19l172 -44q0 5 1 13.5t9.5 29.5t23 37t45.5 29.5t74 13.5q68 0 91 -31.5t23 -81.5q-211 -18 -312 -82.5t-101 -143.5q0 -63 43.5 -97.5t120.5 -34.5q48 0 94 20t74 42.5
t55 56.5t34 45t14 24q0 -92 32.5 -140t116.5 -48q39 0 72 13t47 26l14 13l-33 108q-3 -6 -9 -14t-26 -22t-40 -14q-42 0 -40 55zM228 153q0 47 58 87t183 52v-39l-8 -16.5t-23 -37.5t-37.5 -47.5t-51 -37.5t-63.5 -17q-58 0 -58 56zM392 792h210l-229 -144h-117z" />
    <glyph glyph-name="acircumflex" unicode="&#xe2;" horiz-adv-x="773" 
d="M625 152l9 207q3 89 -69 149t-202 60q-78 0 -141.5 -19.5t-97.5 -47t-57 -55.5t-30 -48l-7 -19l172 -44q0 5 1 13.5t9.5 29.5t23 37t45.5 29.5t74 13.5q68 0 91 -31.5t23 -81.5q-211 -18 -312 -82.5t-101 -143.5q0 -63 43.5 -97.5t120.5 -34.5q48 0 94 20t74 42.5
t55 56.5t34 45t14 24q0 -92 32.5 -140t116.5 -48q39 0 72 13t47 26l14 13l-33 108q-3 -6 -9 -14t-26 -22t-40 -14q-42 0 -40 55zM284 792h150l186 -144h-97l-164 62l-164 -62h-97zM228 153q0 47 58 87t183 52v-39l-8 -16.5t-23 -37.5t-37.5 -47.5t-51 -37.5t-63.5 -17
q-58 0 -58 56z" />
    <glyph glyph-name="atilde" unicode="&#xe3;" horiz-adv-x="773" 
d="M625 152l9 207q3 89 -69 149t-202 60q-78 0 -141.5 -19.5t-97.5 -47t-57 -55.5t-30 -48l-7 -19l172 -44q0 5 1 13.5t9.5 29.5t23 37t45.5 29.5t74 13.5q68 0 91 -31.5t23 -81.5q-211 -18 -312 -82.5t-101 -143.5q0 -63 43.5 -97.5t120.5 -34.5q48 0 94 20t74 42.5
t55 56.5t34 45t14 24q0 -92 32.5 -140t116.5 -48q39 0 72 13t47 26l14 13l-33 108q-3 -6 -9 -14t-26 -22t-40 -14q-42 0 -40 55zM446 760q27 0 45 16.5t23 33.5l5 16l40 -56l-3 -11.5t-11 -26t-21 -33t-33.5 -26t-47.5 -11.5q-46 0 -95.5 33t-82.5 33q-26 0 -44 -16.5
t-23 -33.5l-5 -16l-40 56l3 11.5t11 26t21 33t33.5 26t47.5 11.5q45 0 95.5 -33t81.5 -33zM228 153q0 47 58 87t183 52v-39l-8 -16.5t-23 -37.5t-37.5 -47.5t-51 -37.5t-63.5 -17q-58 0 -58 56z" />
    <glyph glyph-name="adieresis" unicode="&#xe4;" horiz-adv-x="773" 
d="M625 152l9 207q3 89 -69 149t-202 60q-78 0 -141.5 -19.5t-97.5 -47t-57 -55.5t-30 -48l-7 -19l172 -44q0 5 1 13.5t9.5 29.5t23 37t45.5 29.5t74 13.5q68 0 91 -31.5t23 -81.5q-211 -18 -312 -82.5t-101 -143.5q0 -63 43.5 -97.5t120.5 -34.5q48 0 94 20t74 42.5
t55 56.5t34 45t14 24q0 -92 32.5 -140t116.5 -48q39 0 72 13t47 26l14 13l-33 108q-3 -6 -9 -14t-26 -22t-40 -14q-42 0 -40 55zM228 153q0 47 58 87t183 52v-39l-8 -16.5t-23 -37.5t-37.5 -47.5t-51 -37.5t-63.5 -17q-58 0 -58 56zM164 662v150h138v-150h-138zM404 662v150
h138v-150h-138z" />
    <glyph glyph-name="aring" unicode="&#xe5;" horiz-adv-x="773" 
d="M625 152l9 207q3 89 -69 149t-202 60q-78 0 -141.5 -19.5t-97.5 -47t-57 -55.5t-30 -48l-7 -19l172 -44q0 5 1 13.5t9.5 29.5t23 37t45.5 29.5t74 13.5q68 0 91 -31.5t23 -81.5q-211 -18 -312 -82.5t-101 -143.5q0 -63 43.5 -97.5t120.5 -34.5q48 0 94 20t74 42.5
t55 56.5t34 45t14 24q0 -92 32.5 -140t116.5 -48q39 0 72 13t47 26l14 13l-33 108q-3 -6 -9 -14t-26 -22t-40 -14q-42 0 -40 55zM254 745q0 46 33.5 78.5t85.5 32.5q54 0 87.5 -31t33.5 -80q0 -45 -34.5 -77t-86.5 -32q-51 0 -85 32t-34 77zM228 153q0 47 58 87t183 52v-39
l-8 -16.5t-23 -37.5t-37.5 -47.5t-51 -37.5t-63.5 -17q-58 0 -58 56zM330 746q0 -20 13 -32t31 -12t31 12.5t13 31.5q0 18 -13 31t-31 13t-31 -12t-13 -32z" />
    <glyph glyph-name="ae" unicode="&#xe6;" horiz-adv-x="1192" 
d="M1117 258l-486 10q1 -72 47.5 -121.5t140.5 -49.5q43 0 74 13t45.5 32t23 38t9.5 32l1 13l160 -41q-1 -4 -3 -11t-12 -27.5t-24 -39t-40.5 -41.5t-59 -39.5t-82.5 -27.5t-109 -11q-113 0 -194.5 51.5t-109.5 145.5q-17 -31 -38 -59t-55.5 -62.5t-82.5 -55t-102 -20.5
q-77 0 -120.5 34.5t-43.5 97.5q0 79 101 143.5t312 82.5q0 23 -4 40t-14.5 35t-35 28t-60.5 10q-43 0 -74 -12.5t-45.5 -31t-23 -36.5t-9.5 -30l-1 -13l-172 44q1 4 3.5 11t13.5 26.5t25.5 37.5t42 39.5t60 37t82 26.5t106.5 11q143 0 206 -80q86 80 233 80q64 0 116.5 -13
t86 -34.5t57.5 -50t36 -57.5t17.5 -59.5t5.5 -53.5t-4 -42zM228 153q0 -56 58 -56q32 0 63 16t52 39t37 46t24 39l7 16v19q-126 -5 -183.5 -39t-57.5 -80zM641 346l305 10q-1 4 -2.5 11.5t-11 26t-24 32.5t-43.5 25.5t-66 11.5q-39 0 -69.5 -12t-46 -29.5t-26 -34.5
t-13.5 -29z" />
    <glyph glyph-name="ccedilla" unicode="&#xe7;" horiz-adv-x="777" 
d="M567 225l160 -41q-2 -8 -6.5 -21.5t-27.5 -47.5t-55.5 -59.5t-96.5 -47t-144 -21.5h-4l-15 -42q21 17 54 17q39 0 63 -23.5t24 -62.5q0 -53 -41 -83t-96 -30q-37 0 -68 11.5t-44 23.5l-12 12l18 68q4 -5 11 -13t32 -21t53 -13q31 0 49 12t18 33q0 18 -11.5 29t-30.5 11
q-12 0 -21.5 -5.5t-13.5 -10.5l-4 -6l-52 10l31 87q-121 16 -199 91.5t-78 195.5q0 126 92.5 208t245.5 82q68 0 122 -14.5t85.5 -38t54 -51.5t31.5 -56t13 -51.5t4 -38.5l-1 -14l-160 -41q1 8 2 21t-3.5 46.5t-17 59.5t-45.5 47t-83 21q-82 0 -125 -50.5t-43 -129.5
q0 -83 47.5 -132t134.5 -49q42 0 73.5 13t46 32t23 38t9.5 32z" />
    <glyph glyph-name="egrave" unicode="&#xe8;" horiz-adv-x="787" 
d="M541 356l-305 -10q1 5 3 13t13 28t26.5 35.5t46 28t69.5 12.5q37 0 66 -11t43.5 -26.5t24 -31.5t11.5 -27zM226 268l486 -10q4 19 4 42t-5.5 53.5t-17.5 59.5t-36 57.5t-57.5 50t-86 34.5t-116.5 13q-153 0 -245 -82t-92 -208q0 -135 98 -213t239 -78q59 0 109 11
t82.5 28t59 38.5t40.5 42.5t23.5 38t12.5 28l3 11l-160 41q0 -5 -1 -13.5t-9.5 -31t-23 -39t-45.5 -30.5t-74 -14q-94 0 -140.5 49.5t-47.5 121.5zM146 791h210l136 -143h-117z" />
    <glyph glyph-name="eacute" unicode="&#xe9;" horiz-adv-x="787" 
d="M541 356l-305 -10q1 5 3 13t13 28t26.5 35.5t46 28t69.5 12.5q37 0 66 -11t43.5 -26.5t24 -31.5t11.5 -27zM226 268l486 -10q4 19 4 42t-5.5 53.5t-17.5 59.5t-36 57.5t-57.5 50t-86 34.5t-116.5 13q-153 0 -245 -82t-92 -208q0 -135 98 -213t239 -78q59 0 109 11
t82.5 28t59 38.5t40.5 42.5t23.5 38t12.5 28l3 11l-160 41q0 -5 -1 -13.5t-9.5 -31t-23 -39t-45.5 -30.5t-74 -14q-94 0 -140.5 49.5t-47.5 121.5zM452 791h210l-229 -144h-117z" />
    <glyph glyph-name="ecircumflex" unicode="&#xea;" horiz-adv-x="787" 
d="M541 356l-305 -10q1 5 3 13t13 28t26.5 35.5t46 28t69.5 12.5q37 0 66 -11t43.5 -26.5t24 -31.5t11.5 -27zM226 268l486 -10q4 19 4 42t-5.5 53.5t-17.5 59.5t-36 57.5t-57.5 50t-86 34.5t-116.5 13q-153 0 -245 -82t-92 -208q0 -135 98 -213t239 -78q59 0 109 11
t82.5 28t59 38.5t40.5 42.5t23.5 38t12.5 28l3 11l-160 41q0 -5 -1 -13.5t-9.5 -31t-23 -39t-45.5 -30.5t-74 -14q-94 0 -140.5 49.5t-47.5 121.5zM319 792h150l186 -144h-97l-164 62l-164 -62h-97z" />
    <glyph glyph-name="edieresis" unicode="&#xeb;" horiz-adv-x="787" 
d="M541 356l-305 -10q1 5 3 13t13 28t26.5 35.5t46 28t69.5 12.5q37 0 66 -11t43.5 -26.5t24 -31.5t11.5 -27zM226 268l486 -10q4 19 4 42t-5.5 53.5t-17.5 59.5t-36 57.5t-57.5 50t-86 34.5t-116.5 13q-153 0 -245 -82t-92 -208q0 -135 98 -213t239 -78q59 0 109 11
t82.5 28t59 38.5t40.5 42.5t23.5 38t12.5 28l3 11l-160 41q0 -5 -1 -13.5t-9.5 -31t-23 -39t-45.5 -30.5t-74 -14q-94 0 -140.5 49.5t-47.5 121.5zM224 662v150h138v-150h-138zM464 662v150h138v-150h-138z" />
    <glyph glyph-name="igrave" unicode="&#xec;" horiz-adv-x="345" 
d="M90 0v555h165v-555h-165zM-78 791h210l136 -143h-117z" />
    <glyph glyph-name="iacute" unicode="&#xed;" horiz-adv-x="345" 
d="M90 0v555h165v-555h-165zM226 792h210l-229 -144h-117z" />
    <glyph glyph-name="icircumflex" unicode="&#xee;" horiz-adv-x="345" 
d="M90 0v555h165v-555h-165zM98 792h150l186 -144h-97l-164 62l-164 -62h-97z" />
    <glyph glyph-name="idieresis" unicode="&#xef;" horiz-adv-x="345" 
d="M90 0v555h165v-555h-165zM-16 642v150h138v-150h-138zM224 642v150h138v-150h-138z" />
    <glyph glyph-name="ntilde" unicode="&#xf1;" horiz-adv-x="815" 
d="M560 0v348q0 110 -140 110q-37 0 -67.5 -12.5t-47.5 -30.5t-29 -36t-16 -31l-5 -12v-336h-165v555h96l47 -157q1 7 3 18.5t16 40.5t36 51.5t68.5 41t108.5 18.5q260 0 260 -228v-340h-165zM512 760q27 0 45 16.5t23 33.5l5 16l40 -56l-3 -11.5t-11 -26t-21 -33t-33.5 -26
t-47.5 -11.5q-46 0 -95.5 33t-82.5 33q-26 0 -44 -16.5t-23 -33.5l-5 -16l-40 56l3 11.5t11 26t21 33t33.5 26t47.5 11.5q45 0 95.5 -33t81.5 -33z" />
    <glyph glyph-name="ograve" unicode="&#xf2;" horiz-adv-x="808" 
d="M60 278q0 125 93 207.5t250 82.5q159 0 252 -82.5t93 -207.5q0 -126 -93 -208.5t-252 -82.5q-157 0 -250 82.5t-93 208.5zM233 278q0 -78 40.5 -129.5t129.5 -51.5t130.5 52t41.5 129t-41.5 128.5t-130.5 51.5q-90 0 -130 -51.5t-40 -128.5zM124 791h210l136 -143h-117z
" />
    <glyph glyph-name="oacute" unicode="&#xf3;" horiz-adv-x="808" 
d="M60 278q0 125 93 207.5t250 82.5q159 0 252 -82.5t93 -207.5q0 -126 -93 -208.5t-252 -82.5q-157 0 -250 82.5t-93 208.5zM233 278q0 -78 40.5 -129.5t129.5 -51.5t130.5 52t41.5 129t-41.5 128.5t-130.5 51.5q-90 0 -130 -51.5t-40 -128.5zM470 792h210l-229 -144h-117z
" />
    <glyph glyph-name="ocircumflex" unicode="&#xf4;" horiz-adv-x="808" 
d="M60 278q0 125 93 207.5t250 82.5q159 0 252 -82.5t93 -207.5q0 -126 -93 -208.5t-252 -82.5q-157 0 -250 82.5t-93 208.5zM233 278q0 -78 40.5 -129.5t129.5 -51.5t130.5 52t41.5 129t-41.5 128.5t-130.5 51.5q-90 0 -130 -51.5t-40 -128.5zM326 792h150l186 -144h-97
l-164 62l-164 -62h-97z" />
    <glyph glyph-name="odieresis" unicode="&#xf6;" horiz-adv-x="808" 
d="M60 278q0 125 93 207.5t250 82.5q159 0 252 -82.5t93 -207.5q0 -126 -93 -208.5t-252 -82.5q-157 0 -250 82.5t-93 208.5zM233 278q0 -78 40.5 -129.5t129.5 -51.5t130.5 52t41.5 129t-41.5 128.5t-130.5 51.5q-90 0 -130 -51.5t-40 -128.5zM211 627v150h138v-150h-138z
M451 627v150h138v-150h-138z" />
    <glyph glyph-name="divide" unicode="&#xf7;" horiz-adv-x="650" 
d="M630 286v-50h-610v50h610zM280 523h90v-112h-90v112zM280 112h90v-112h-90v112z" />
    <glyph glyph-name="oslash" unicode="&#xf8;" horiz-adv-x="808" 
d="M514 696l51 -16l-42 -127q106 -28 165.5 -102.5t59.5 -172.5q0 -126 -93 -208.5t-252 -82.5q-31 0 -68 5l-44 -135l-49 15l43 129q-106 28 -165.5 102.5t-59.5 174.5q0 125 93 207.5t250 82.5q32 0 67 -5zM575 278q0 54 -22 98t-68 65l-114 -342q10 -2 32 -2
q89 0 130.5 52t41.5 129zM233 278q0 -125 88 -166l114 344q-20 2 -32 2q-90 0 -130 -51.5t-40 -128.5z" />
    <glyph glyph-name="ugrave" unicode="&#xf9;" horiz-adv-x="815" 
d="M254 555v-348q0 -110 141 -110q37 0 67.5 12.5t47.5 30.5t29 36t17 30l4 13v336h165v-555h-96l-47 157q-1 -7 -3 -18.5t-16 -40.5t-36 -51.5t-68.5 -41t-108.5 -18.5q-260 0 -260 228v340h164zM145 791h210l136 -143h-117z" />
    <glyph glyph-name="uacute" unicode="&#xfa;" horiz-adv-x="815" 
d="M254 555v-348q0 -110 141 -110q37 0 67.5 12.5t47.5 30.5t29 36t17 30l4 13v336h165v-555h-96l-47 157q-1 -7 -3 -18.5t-16 -40.5t-36 -51.5t-68.5 -41t-108.5 -18.5q-260 0 -260 228v340h164zM421 792h210l-229 -144h-117z" />
    <glyph glyph-name="ucircumflex" unicode="&#xfb;" horiz-adv-x="815" 
d="M254 555v-348q0 -110 141 -110q37 0 67.5 12.5t47.5 30.5t29 36t17 30l4 13v336h165v-555h-96l-47 157q-1 -7 -3 -18.5t-16 -40.5t-36 -51.5t-68.5 -41t-108.5 -18.5q-260 0 -260 228v340h164zM337 792h150l186 -144h-97l-164 62l-164 -62h-97z" />
    <glyph glyph-name="udieresis" unicode="&#xfc;" horiz-adv-x="815" 
d="M254 555v-348q0 -110 141 -110q37 0 67.5 12.5t47.5 30.5t29 36t17 30l4 13v336h165v-555h-96l-47 157q-1 -7 -3 -18.5t-16 -40.5t-36 -51.5t-68.5 -41t-108.5 -18.5q-260 0 -260 228v340h164zM223 642v150h138v-150h-138zM463 642v150h138v-150h-138z" />
    <glyph glyph-name="yacute" unicode="&#xfd;" horiz-adv-x="738" 
d="M287 15l-277 540h181l173 -399l183 399h181l-325 -617q-50 -95 -102.5 -135t-130.5 -40q-30 0 -57 8.5t-44 20.5t-30 24.5t-19 21.5l-6 8l32 107q1 -3 3.5 -8.5t11 -19.5t20 -24.5t31 -19t42.5 -8.5q41 0 71 37t62 105zM369 792h210l-229 -144h-117z" />
    <glyph glyph-name="ydieresis" unicode="&#xff;" horiz-adv-x="738" 
d="M287 15l-277 540h181l173 -399l183 399h181l-325 -617q-50 -95 -102.5 -135t-130.5 -40q-30 0 -57 8.5t-44 20.5t-30 24.5t-19 21.5l-6 8l32 107q1 -3 3.5 -8.5t11 -19.5t20 -24.5t31 -19t42.5 -8.5q41 0 71 37t62 105zM175 642v150h138v-150h-138zM415 642v150h138v-150
h-138z" />
    <glyph glyph-name="dotlessi" unicode="&#x131;" horiz-adv-x="345" 
d="M90 0v555h165v-555h-165z" />
    <glyph glyph-name="OE" unicode="&#x152;" horiz-adv-x="1415" 
d="M60 389q0 177 136 289.5t359 112.5q72 0 147 -15l643 1v-109h-419q102 -91 120 -226h270v-109h-270q-20 -135 -120 -223h449v-110h-683q-70 -13 -137 -13q-223 0 -359 112.5t-136 289.5zM245 389q0 -123 78 -201t232 -78q135 0 211.5 61t93.5 162h-192v109h193
q-16 102 -93 164t-213 62q-154 0 -232 -78t-78 -201z" />
    <glyph glyph-name="oe" unicode="&#x153;" horiz-adv-x="1302" 
d="M60 278q0 125 93 207.5t250 82.5q170 0 258 -99q86 99 251 99q64 0 116.5 -13t86 -34.5t57.5 -50t36 -57.5t17.5 -59.5t5.5 -53.5t-4 -42l-486 10q1 -72 47.5 -121.5t140.5 -49.5q43 0 74 13t45.5 32t23 38t9.5 32l1 13l160 -41q-1 -4 -3 -11t-12 -27.5t-24 -39
t-40.5 -41.5t-59 -39.5t-82.5 -27.5t-109 -11q-163 0 -251 99q-86 -99 -258 -99q-157 0 -250 82.5t-93 208.5zM233 278q0 -78 40.5 -129.5t129.5 -51.5t130.5 52t41.5 129t-41.5 128.5t-130.5 51.5q-90 0 -130 -51.5t-40 -128.5zM751 346l305 10q-1 4 -2.5 11.5t-11 26
t-24 32.5t-43.5 25.5t-66 11.5q-39 0 -69.5 -12t-46 -29.5t-26 -34.5t-13.5 -29z" />
    <glyph glyph-name="Ydieresis" unicode="&#x178;" horiz-adv-x="982" 
d="M972 777l-392 -412v-365h-178v365l-392 412h217l264 -292l264 292h217zM302 869v150h138v-150h-138zM542 869v150h138v-150h-138z" />
    <glyph glyph-name="circumflex" unicode="&#x2c6;" horiz-adv-x="1204" 
d="M526 777h150l186 -144h-97l-164 62l-164 -62h-97z" />
    <glyph glyph-name="ring" unicode="&#x2da;" horiz-adv-x="1204" 
d="M482 729q0 46 33.5 78.5t85.5 32.5q54 0 87.5 -31t33.5 -80q0 -45 -34.5 -77t-86.5 -32q-51 0 -85 32t-34 77zM558 730q0 -20 13 -32t31 -12t31 12.5t13 31.5q0 18 -13 31t-31 13t-31 -12t-13 -32z" />
    <glyph glyph-name="tilde" unicode="&#x2dc;" horiz-adv-x="1204" 
d="M692 725q27 0 45 16.5t23 32.5l5 17l40 -56l-3 -11.5t-11 -26t-21 -33t-33.5 -26t-47.5 -11.5q-46 0 -95.5 33t-82.5 33q-26 0 -44 -16.5t-23 -32.5l-5 -17l-40 56l3 11.5t11 26t21 33t33.5 26t47.5 11.5q45 0 95.5 -33t81.5 -33z" />
    <glyph glyph-name="endash" unicode="&#x2013;" horiz-adv-x="510" 
d="M490 300v-50h-470v50h470z" />
    <glyph glyph-name="emdash" unicode="&#x2014;" horiz-adv-x="797" 
d="M777 300v-50h-757v50h757z" />
    <glyph glyph-name="quoteleft" unicode="&#x2018;" horiz-adv-x="288" 
d="M50 481v125q0 34 10 67.5t24.5 56.5t29 41t24.5 27l10 9l101 -26q-5 -2 -12.5 -6t-27 -18.5t-35.5 -30.5t-30 -42t-17 -53h101v-150h-178z" />
    <glyph glyph-name="quoteright" unicode="&#x2019;" horiz-adv-x="288" 
d="M238 807v-125q0 -34 -10 -67.5t-24.5 -56.5t-29 -41t-24.5 -27l-10 -9l-101 26q5 2 12.5 6t27 18.5t35.5 30.5t30 42t17 53h-101v150h178z" />
    <glyph glyph-name="quotesinglbase" unicode="&#x201a;" horiz-adv-x="298" 
d="M238 150v-125q0 -34 -10 -67.5t-24.5 -56.5t-29 -41t-24.5 -27l-10 -9l-101 26q5 2 12.5 6t27 18.5t35.5 30.5t30 42t17 53h-101v150h178z" />
    <glyph glyph-name="quotedblleft" unicode="&#x201c;" horiz-adv-x="588" 
d="M50 481v125q0 34 10 67.5t24.5 56.5t29 41t24.5 27l10 9l101 -26q-5 -2 -12.5 -6t-27 -18.5t-35.5 -30.5t-30 -42t-17 -53h101v-150h-178zM350 481v125q0 34 10 67.5t24.5 56.5t29 41t24.5 27l10 9l101 -26q-5 -2 -12.5 -6t-27 -18.5t-35.5 -30.5t-30 -42t-17 -53h101
v-150h-178z" />
    <glyph glyph-name="quotedblright" unicode="&#x201d;" horiz-adv-x="593" 
d="M538 807v-125q0 -34 -10 -67.5t-24.5 -56.5t-29 -41t-24.5 -27l-10 -9l-101 26q5 2 12.5 6t27 18.5t35.5 30.5t30 42t17 53h-101v150h178zM238 807v-125q0 -34 -10 -67.5t-24.5 -56.5t-29 -41t-24.5 -27l-10 -9l-101 26q5 2 12.5 6t27 18.5t35.5 30.5t30 42t17 53h-101
v150h178z" />
    <glyph glyph-name="quotedblbase" unicode="&#x201e;" horiz-adv-x="588" 
d="M238 150v-125q0 -34 -10 -67.5t-24.5 -56.5t-29 -41t-24.5 -27l-10 -9l-101 26q5 2 12.5 6t27 18.5t35.5 30.5t30 42t17 53h-101v150h178zM538 150v-125q0 -34 -10 -67.5t-24.5 -56.5t-29 -41t-24.5 -27l-10 -9l-101 26q5 2 12.5 6t27 18.5t35.5 30.5t30 42t17 53h-101
v150h178z" />
    <glyph glyph-name="dagger" unicode="&#x2020;" horiz-adv-x="525" 
d="M505 458h-160v-681h-165v681h-160v96h160l15 222h135l15 -222h160v-96z" />
    <glyph glyph-name="daggerdbl" unicode="&#x2021;" horiz-adv-x="525" 
d="M20 0v97h160v361h-160v96h160l15 222h135l15 -222h160v-96h-160v-361h160v-97h-160l-15 -223h-135l-15 223h-160z" />
    <glyph glyph-name="bullet" unicode="&#x2022;" horiz-adv-x="646" 
d="M604 260q-2 -5 -7 -20t-9 -22l-391 392q35 15 41 16zM578 199q-5 -13 -22 -30l-409 410l29 22zM616 332q0 -34 -6 -55l-353 355q27 6 55 4zM532 137l-10 -11l-417 416l12 10l10 12l416 -417zM604 434q11 -35 13 -86l-290 291q43 0 86 -16zM494 107q-8 -8 -17 -12
l-405 404l13 18zM45 442l10 20l384 -385l-18 -9zM373 55l-15 -4l-326 328l1 17zM530 552q53 -53 71 -107l-176 176q58 -20 105 -69zM33 298l-3 11l259 -258l-12 2zM114 136q-11 8 -21 23l40 -39z" />
    <glyph glyph-name="ellipsis" unicode="&#x2026;" horiz-adv-x="894" 
d="M60 0v150h178v-150h-178zM358 0v140h178v-140h-178zM656 0v130h178v-130h-178z" />
    <glyph glyph-name="perthousand" unicode="&#x2030;" horiz-adv-x="1285" 
d="M482 190q0 90 59.5 146t151.5 56q58 0 105.5 -24.5t74.5 -67.5q60 92 181 92q92 0 151.5 -56t59.5 -146t-59.5 -145.5t-151.5 -55.5q-123 0 -181 90q-27 -43 -74 -66.5t-106 -23.5q-92 0 -151.5 55.5t-59.5 145.5zM20 590q0 90 59.5 146t151.5 56t151.5 -56t59.5 -146
t-59.5 -145.5t-151.5 -55.5t-151.5 55.5t-59.5 145.5zM81 590q0 -68 39 -111t111 -43t111 43t39 111t-39 111t-111 43t-111 -43t-39 -111zM543 190q0 -68 39 -111t111 -43t111 43t39 111v6q-2 66 -41 107t-109 41q-72 0 -111 -43t-39 -111zM904 190q0 -68 39 -111t111 -43
t111 43t39 111t-39 111t-111 43t-111 -43t-39 -111zM644 784l48 -24l-413 -763l-46 23z" />
    <glyph glyph-name="guilsinglleft" unicode="&#x2039;" horiz-adv-x="359" 
d="M30 277l201 219h128l-151 -219l151 -219h-128z" />
    <glyph glyph-name="guilsinglright" unicode="&#x203a;" horiz-adv-x="359" 
d="M128 496l201 -219l-201 -219h-128l151 219l-151 219h128z" />
    <glyph glyph-name="fraction" unicode="&#x2044;" horiz-adv-x="459" 
d="M411 703l48 -24l-413 -763l-46 23z" />
    <glyph glyph-name="Euro" unicode="&#x20ac;" 
d="M520 332v-50h-259q20 -80 70.5 -126t132.5 -46q43 0 76.5 12.5t52.5 32t33 43t19 47.5t7 43.5t2 31.5l-1 13l184 -48q0 -6 -1 -17t-9 -42t-21.5 -59t-42 -62.5t-66 -59t-98.5 -41.5t-135 -17q-154 0 -256.5 80t-133.5 215h-74v50h66q-3 27 -3 56q0 18 2 54h-45v50h53
q29 137 127.5 218t252.5 81q61 0 112 -10t86.5 -27.5t64 -40t45 -47t29 -49.5t17.5 -47.5t8 -40t3 -27.5v-10l-182 -50q0 5 0.5 13t-1 31.5t-6.5 45t-18 47.5t-32 44.5t-51.5 31.5t-74.5 13q-82 0 -129.5 -47.5t-64.5 -128.5h281v-50h-289q-2 -36 -2 -54q0 -29 3 -56h268z
" />
    <glyph glyph-name="minus" unicode="&#x2212;" horiz-adv-x="650" 
d="M630 300v-50h-610v50h610z" />
    <glyph glyph-name="S.alt" horiz-adv-x="921" 
d="M137 460v99l605 232l42 -140l-510 -133q241 -48 324 -75q196 -63 245 -173q18 -42 18 -92q0 -73 -37.5 -128t-100.5 -85t-135 -44.5t-152 -14.5q-100 0 -183.5 26.5t-138 84t-54.5 136.5q0 54 33.5 100t88.5 70.5t124 27.5t140 -28l44 -143q-62 38 -119.5 44t-91 -18
t-33.5 -67q0 -41 31.5 -67.5t71 -35t87.5 -8.5q47 0 86.5 6t76 20.5t57 43t20.5 67.5q0 95 -105 148q-40 21 -157 58z" />
    <glyph glyph-name="Q.alt" horiz-adv-x="1087" 
d="M378 0v129q65 -19 144 -19q155 0 233.5 78t78.5 200q0 123 -78.5 201.5t-231.5 78.5q-131 0 -204.5 -68t-73.5 -163q0 -69 42 -115t120 -46q55 0 92.5 23.5t52.5 57t22 67t5 56.5l-1 24l184 -49v-17t-5.5 -42.5t-16 -60t-36 -63.5t-61 -60t-95 -42t-134.5 -17
q-158 0 -256.5 79t-98.5 211q0 151 125 249t339 98q223 0 359 -112.5t136 -289.5q0 -79 -26.5 -143.5t-70 -106.5t-101.5 -71t-119.5 -41.5t-126.5 -12.5l456 -139l-42 -140z" />
    <glyph glyph-name="B.alt" horiz-adv-x="1053" 
d="M0 124l617 -14q87 -2 139 28.5t52 89.5q0 57 -49 87.5t-133 30.5h-227v-176h-178v607h366q199 0 292.5 -53t93.5 -164q0 -37 -14 -66t-32 -45t-41 -27t-35 -14.5t-20 -4.5q9 -1 22.5 -4.5t40 -16t47 -30t36.5 -50.5t16 -75q0 -227 -386 -227h-607v124zM399 452h198
q191 0 191 108t-191 108h-198v-216z" />
    <glyph glyph-name="O.alt" horiz-adv-x="1079" 
d="M388 -1v132q55 -21 134 -21q155 0 233.5 78t78.5 200q0 123 -78.5 201.5t-231.5 78.5q-131 0 -204.5 -68t-73.5 -163q0 -69 42 -115t120 -46q55 0 92.5 23.5t52.5 57t22 67t5 56.5l-1 24l184 -49v-17t-5.5 -42.5t-16 -60t-36 -63.5t-61 -60t-95 -42t-134.5 -17
q-158 0 -256.5 79t-98.5 211q0 151 125 249t339 98q223 0 359 -112.5t136 -289.5q0 -98 -41.5 -176.5t-112 -126.5t-158.5 -73t-185 -25q-59 0 -134 12z" />
    <glyph glyph-name="zero.alt" horiz-adv-x="1064" 
d="M777 311q0 -131 -63 -210.5t-182 -79.5t-182 79.5t-63 210.5t63 210.5t182 79.5t182 -79.5t63 -210.5zM678 311q0 100 -35 159t-111 59t-111 -59t-35 -159t35 -159.5t111 -59.5t111 59.5t35 159.5zM60 311q0 199 136.5 335.5t335.5 136.5t335.5 -136.5t136.5 -335.5
t-136.5 -335.5t-335.5 -136.5t-335.5 136.5t-136.5 335.5zM116 310q0 -173 121.5 -294.5t294.5 -121.5t294.5 121.5t121.5 294.5t-121.5 294.5t-294.5 121.5t-294.5 -121.5t-121.5 -294.5z" />
    <glyph glyph-name="one.susp_prop" horiz-adv-x="601" 
d="M525 0h-165v376q-1 -11 -5 -23t-23.5 -36t-50 -41.5t-92 -31.5t-142.5 -14v137q162 0 237.5 41.5t75.5 146.5h165v-555z" />
    <glyph glyph-name="five.susp_prop" 
d="M820 40q0 -129 -100.5 -202t-268.5 -73q-78 0 -142 15t-104 38.5t-70 52.5t-44.5 57.5t-23 52t-9.5 38.5l-2 15l186 48q0 -4 -0.5 -11.5t2 -28.5t8.5 -40.5t21 -43t36.5 -40.5t58 -28.5t83.5 -11.5q94 0 144 46.5t50 114.5q0 67 -50 114t-144 47q-47 0 -88 -16t-59 -32
l-17 -16h-173l83 419h586v-97h-448l-45 -209q3 3 8.5 7t25.5 15t43 19.5t60 15.5t76 7q132 0 224.5 -74t92.5 -199z" />
    <glyph glyph-name="six.susp_prop" 
d="M254 248l5.5 -16t18.5 -36t34.5 -45.5t55 -35.5t78.5 -16q83 0 137 42.5t54 106.5q0 71 -46 111.5t-126 40.5q-52 0 -92.5 -15.5t-62 -38t-35 -45t-17.5 -37.5zM473 677q-119 0 -181 -86.5t-57 -221.5q3 6 9.5 16.5t31 37t54.5 47t83 37t114 16.5q74 0 137.5 -27t106 -87
t42.5 -142q0 -123 -104.5 -202t-261.5 -79q-184 0 -285.5 111t-101.5 291t110 291t310 111q84 0 150.5 -20t102 -48.5t58.5 -57t29 -48.5l7 -20l-184 -50q-1 5 -2.5 14t-12.5 31.5t-27.5 40t-50 31.5t-77.5 14z" />
    <glyph glyph-name="seven.susp_prop" 
d="M848 555v-129q-9 -2 -23.5 -6.5t-58 -25.5t-83 -49t-88 -80.5t-84.5 -116.5t-61.5 -160.5t-28.5 -209.5h-178q6 116 32.5 216t60.5 167t79 122t82.5 85t78 53t57 29t27.5 9h-628v96h816z" />
    <glyph glyph-name="eight.susp_prop" 
d="M796 582q0 -38 -17 -70t-39.5 -50t-48.5 -31t-41 -17.5t-21 -5.5q8 -1 23.5 -4.5t48 -17t58.5 -32t46.5 -52.5t20.5 -76q0 -107 -108.5 -173t-277.5 -66q-170 0 -278 59.5t-108 159.5q0 43 20 77.5t44.5 53t57.5 32t47.5 16.5t26.5 5q-14 3 -33.5 10t-53.5 25.5t-56.5 54
t-22.5 82.5q0 100 101.5 164.5t254.5 64.5q154 0 255 -58t101 -151zM650 226q0 55 -54.5 90.5t-155.5 35.5t-156 -35.5t-55 -90.5t55 -90.5t156 -35.5t155.5 35.5t54.5 90.5zM260 562q0 -53 49 -84.5t131 -31.5t131.5 31.5t49.5 84.5t-49.5 84.5t-131.5 31.5t-131 -31.5
t-49 -84.5z" />
    <glyph glyph-name="nine.susp_prop" 
d="M626 306l-5.5 16.5t-18.5 36.5t-34.5 46t-55 36.5t-78.5 16.5q-83 0 -137 -44t-54 -108q0 -73 46.5 -119t125.5 -46q52 0 92.5 17t62 41.5t35 48.5t17.5 41zM407 -126q113 0 178 89t60 222q-3 -6 -9.5 -16.5t-31 -37t-54.5 -47t-83 -37t-114 -16.5q-74 0 -137.5 27
t-106 87t-42.5 142q0 123 104.5 202t261.5 79q184 0 285.5 -111t101.5 -291t-110 -291t-310 -111q-84 0 -150.5 20t-102 48.5t-58.5 57t-29 48.5l-7 20l184 50q1 -5 2.5 -14.5t12.5 -32.5t27.5 -40.5t50 -32t77.5 -14.5z" />
    <glyph glyph-name="four.susp_prop" 
d="M20 0v133l453 422h200v-458h174v-97h-174v-223h-168v223h-485zM505 416l-345 -319h345v319z" />
    <glyph glyph-name="two.susp_prop" 
d="M760 341q0 -42 -17 -78t-42.5 -60t-60.5 -43.5t-65.5 -30t-64 -18.5t-49.5 -10.5t-28 -3.5h362v-97h-710v100q10 1 28 2.5t70 8.5t99.5 16.5t105 28.5t99 42.5t70 59.5t28.5 79q0 50 -40 85.5t-116 35.5q-68 0 -107 -31.5t-39 -82.5q0 -45 34.5 -75t68.5 -37l34 -8
l-188 -51q-5 2 -13 6t-29 18.5t-37.5 32.5t-29.5 48.5t-13 65.5q0 96 84.5 160t237.5 64q154 0 241 -64t87 -163z" />
    <glyph glyph-name="Odieresis.smcp" horiz-adv-x="810" 
d="M32 283q0 129 97 211t256 82t256 -82t97 -211t-97 -210t-256 -81t-256 81t-97 210zM208 283q0 -69 44.5 -113t132.5 -44t132.5 44t44.5 113q0 70 -44 113.5t-133 43.5q-88 0 -132.5 -44t-44.5 -113zM214 642v150h138v-150h-138zM454 642v150h138v-150h-138z" />
    <glyph glyph-name="AE.smcp" 
d="M829 568v-79h-258v-166h237v-80h-237v-163h280v-80h-410v243h-184l-110 -243h-140l268 568h554zM369 489l-75 -166h147v166h-72z" />
    <glyph glyph-name="OE.smcp" horiz-adv-x="1007" 
d="M32 283q0 129 97 211t256 82q45 0 91 -8h480v-79h-309q74 -66 88 -166h200v-80h-200q-14 -98 -86 -163h329v-80h-502q-46 -8 -91 -8q-159 0 -256 81t-97 210zM208 283q0 -69 44.5 -113t132.5 -44q75 0 118 32t55 85h-100v80h100q-12 53 -55 85t-118 32q-88 0 -132.5 -44
t-44.5 -113z" />
    <glyph glyph-name="zero.susp_prop" horiz-adv-x="800" 
d="M60 277q0 124 93 208t247 84t247 -84t93 -208t-93 -207.5t-247 -83.5t-247 83.5t-93 207.5zM151 277q0 -99 67 -166.5t182 -67.5t182 67.5t67 166.5t-67 166.5t-182 67.5t-182 -67.5t-67 -166.5z" />
    <glyph glyph-name="one.alt" horiz-adv-x="1064" 
d="M60 311q0 199 136.5 335.5t335.5 136.5t335.5 -136.5t136.5 -335.5t-136.5 -335.5t-335.5 -136.5t-335.5 136.5t-136.5 335.5zM116 310q0 -173 121.5 -294.5t294.5 -121.5t294.5 121.5t121.5 294.5t-121.5 294.5t-294.5 121.5t-294.5 -121.5t-121.5 -294.5zM773 31h-461
v61h216v429q-1 -54 -18.5 -83.5t-64.5 -45t-133 -15.5v71q112 0 164 31.5t52 110.5h94v-498h151v-61z" />
    <glyph glyph-name="two.alt" horiz-adv-x="1064" 
d="M60 311q0 199 136.5 335.5t335.5 136.5t335.5 -136.5t136.5 -335.5t-136.5 -335.5t-335.5 -136.5t-335.5 136.5t-136.5 335.5zM116 310q0 -173 121.5 -294.5t294.5 -121.5t294.5 121.5t121.5 294.5t-121.5 294.5t-294.5 121.5t-294.5 -121.5t-121.5 -294.5zM748 416
q0 -41 -18 -80.5t-42 -68t-63 -59.5t-66 -47.5l-66.5 -39.5t-50.5 -30h317v-61h-461v54l20 8.5t49.5 24.5t69.5 39t73.5 50.5t69.5 61t49 69.5t20 76q0 51 -32 83t-96 32q-62 0 -92.5 -32t-30.5 -82q0 -33 17 -62t34 -42l17 -12l-96 -28q-3 2 -7.5 6t-16.5 18.5t-21 30.5
t-16.5 41t-7.5 52q0 71 58.5 126.5t163.5 55.5q108 0 166.5 -51.5t58.5 -132.5z" />
    <glyph glyph-name="three.alt" horiz-adv-x="1064" 
d="M60 311q0 199 136.5 335.5t335.5 136.5t335.5 -136.5t136.5 -335.5t-136.5 -335.5t-335.5 -136.5t-335.5 136.5t-136.5 335.5zM116 310q0 -173 121.5 -294.5t294.5 -121.5t294.5 121.5t121.5 294.5t-121.5 294.5t-294.5 121.5t-294.5 -121.5t-121.5 -294.5zM516 287h-36
v62h36q64 0 102.5 24.5t38.5 67.5q0 39 -33 63.5t-87 24.5q-41 0 -70.5 -13.5t-42 -33t-19 -39t-6.5 -33.5v-13l-96 29q1 7 3.5 19t18 42t38.5 53t70 42t108 19q95 0 154.5 -42.5t59.5 -104.5q0 -38 -17.5 -64.5t-44 -38t-46 -15.5t-35.5 -5q14 -1 28.5 -3t39.5 -11
t43.5 -23t32.5 -41t14 -63q0 -83 -68 -126t-170 -43q-71 0 -123.5 20t-77 48.5t-39.5 57t-17 48.5l-2 20l96 28v-16.5t7.5 -36.5t22.5 -45.5t49 -36t82 -16.5q66 0 103.5 25.5t37.5 73.5q0 96 -155 96z" />
    <glyph glyph-name="four.alt" horiz-adv-x="1064" 
d="M229 166v90l304 334h123v-362h113v-62h-113v-135h-93v135h-334zM563 522l-261 -294h261v294zM60 311q0 199 136.5 335.5t335.5 136.5t335.5 -136.5t136.5 -335.5t-136.5 -335.5t-335.5 -136.5t-335.5 136.5t-136.5 335.5zM116 310q0 -173 121.5 -294.5t294.5 -121.5
t294.5 121.5t121.5 294.5t-121.5 294.5t-294.5 121.5t-294.5 -121.5t-121.5 -294.5z" />
    <glyph glyph-name="five.alt" horiz-adv-x="1064" 
d="M771 215q0 -91 -65.5 -142.5t-175.5 -51.5q-70 0 -122 20t-76.5 48.5t-39 57t-16.5 48.5l-2 20l96 28v-16.5t7.5 -36.5t22 -45.5t48.5 -36t82 -16.5q65 0 103.5 34t38.5 89q0 54 -38.5 87.5t-103.5 33.5q-38 0 -67.5 -8.5t-40.5 -17.5l-10 -8h-96l52 288h377v-61h-297
l-34 -194q1 3 4.5 8t16 17.5t28 22t43.5 17.5t61 8q83 0 143.5 -54.5t60.5 -138.5zM60 311q0 199 136.5 335.5t335.5 136.5t335.5 -136.5t136.5 -335.5t-136.5 -335.5t-335.5 -136.5t-335.5 136.5t-136.5 335.5zM116 310q0 -173 121.5 -294.5t294.5 -121.5t294.5 121.5
t121.5 294.5t-121.5 294.5t-294.5 121.5t-294.5 -121.5t-121.5 -294.5z" />
    <glyph glyph-name="six.alt" horiz-adv-x="1064" 
d="M60 311q0 199 136.5 335.5t335.5 136.5t335.5 -136.5t136.5 -335.5t-136.5 -335.5t-335.5 -136.5t-335.5 136.5t-136.5 335.5zM116 310q0 -173 121.5 -294.5t294.5 -121.5t294.5 121.5t121.5 294.5t-121.5 294.5t-294.5 121.5t-294.5 -121.5t-121.5 -294.5zM569 391
q-73 0 -125.5 -30.5t-68.5 -87.5q-1 12 -1 38q0 97 41.5 157.5t118.5 60.5q33 0 58 -12t37.5 -29t20.5 -34.5t10 -29.5l2 -12l96 29q-1 7 -4.5 17.5t-20 38t-39 48.5t-65 38.5t-95.5 17.5q-120 0 -189.5 -80.5t-69.5 -209.5t68.5 -209.5t188.5 -80.5q101 0 167 52t66 133
q0 91 -57.5 138t-138.5 47zM532 92q-111 0 -146 120q12 48 51 78t95 30q66 0 100 -31.5t34 -82.5t-34 -82.5t-100 -31.5z" />
    <glyph glyph-name="seven.alt" horiz-adv-x="1064" 
d="M60 311q0 199 136.5 335.5t335.5 136.5t335.5 -136.5t136.5 -335.5t-136.5 -335.5t-335.5 -136.5t-335.5 136.5t-136.5 335.5zM116 310q0 -173 121.5 -294.5t294.5 -121.5t294.5 121.5t121.5 294.5t-121.5 294.5t-294.5 121.5t-294.5 -121.5t-121.5 -294.5zM807 590v-82
q-5 0 -13.5 -1.5t-34.5 -12t-51.5 -28t-60.5 -54t-65 -84.5t-60.5 -125.5t-52.5 -171.5h-101q20 93 50.5 170t61.5 126.5t68.5 88.5t65 59t57.5 33.5t41 16.5t19 4h-456v61h532z" />
    <glyph glyph-name="eight.alt" horiz-adv-x="1064" 
d="M60 311q0 199 136.5 335.5t335.5 136.5t335.5 -136.5t136.5 -335.5t-136.5 -335.5t-335.5 -136.5t-335.5 136.5t-136.5 335.5zM116 310q0 -173 121.5 -294.5t294.5 -121.5t294.5 121.5t121.5 294.5t-121.5 294.5t-294.5 121.5t-294.5 -121.5t-121.5 -294.5zM769 444
q0 -29 -13 -53t-30 -37t-39 -23t-33 -13t-19 -4q128 -14 151 -96q4 -15 4 -33q0 -81 -74 -122.5t-185 -41.5t-185 41.5t-74 122.5q0 31 14.5 56t31.5 38.5t43 25t34 13.5l21 5q-6 1 -15.5 3.5t-30 11.5t-36.5 21t-28.5 34.5t-12.5 50.5q0 69 68.5 113t169.5 44t169.5 -44
t68.5 -113zM692 185q0 32 -18.5 54.5t-48 31.5t-51.5 12.5t-43 3.5q-161 0 -161 -102q0 -48 44.5 -70.5t116.5 -22.5q71 0 116 22.5t45 70.5zM392 444q0 -28 15 -47.5t39.5 -28t44.5 -11.5t40 -3q139 0 139 90q0 36 -35 60.5t-104 24.5t-104 -24.5t-35 -60.5z" />
    <glyph glyph-name="nine.alt" horiz-adv-x="1064" 
d="M60 311q0 199 136.5 335.5t335.5 136.5t335.5 -136.5t136.5 -335.5t-136.5 -335.5t-335.5 -136.5t-335.5 136.5t-136.5 335.5zM116 310q0 -173 121.5 -294.5t294.5 -121.5t294.5 121.5t121.5 294.5t-121.5 294.5t-294.5 121.5t-294.5 -121.5t-121.5 -294.5zM494 230
q81 0 129.5 33t63.5 84q2 -24 2 -37q0 -97 -41.5 -157.5t-118.5 -60.5q-33 0 -58 12t-37.5 29.5t-20.5 35t-10 29.5l-2 12l-96 -29q1 -7 4.5 -17.5t20 -38t39 -48.5t65 -38.5t95.5 -17.5q120 0 189.5 80.5t69.5 208.5q0 130 -68.5 210.5t-188.5 80.5q-101 0 -167 -52.5
t-66 -133.5q0 -91 58 -138t138 -47zM531 529q110 0 145 -120q-12 -46 -50.5 -76.5t-94.5 -30.5q-66 0 -100 31t-34 82t34 82.5t100 31.5z" />
    <glyph glyph-name="acute.case" horiz-adv-x="727" 
d="M610 777h210l-229 -144h-117z" />
    <glyph glyph-name="grave.case" horiz-adv-x="727" 
d="M334 776h210l136 -143h-117z" />
    <glyph glyph-name="circumflex.case" horiz-adv-x="1204" 
d="M526 777h150l186 -144h-97l-164 62l-164 -62h-97z" />
    <glyph glyph-name="tilde.case" horiz-adv-x="1204" 
d="M692 725q27 0 45 16.5t23 32.5l5 17l40 -56l-3 -11.5t-11 -26t-21 -33t-33.5 -26t-47.5 -11.5q-46 0 -95.5 33t-82.5 33q-26 0 -44 -16.5t-23 -32.5l-5 -17l-40 56l3 11.5t11 26t21 33t33.5 26t47.5 11.5q45 0 95.5 -33t81.5 -33z" />
    <glyph glyph-name="dieresis.case" horiz-adv-x="358" 
d="M-10 627v150h138v-150h-138zM230 627v150h138v-150h-138z" />
    <glyph glyph-name="ring.case" horiz-adv-x="1204" 
d="M482 729q0 46 33.5 78.5t85.5 32.5q54 0 87.5 -31t33.5 -80q0 -45 -34.5 -77t-86.5 -32q-51 0 -85 32t-34 77zM558 730q0 -20 13 -32t31 -12t31 12.5t13 31.5q0 18 -13 31t-31 13t-31 -12t-13 -32z" />
    <glyph glyph-name="three.susp_prop" 
d="M452 123h-94v106h74q183 0 183 107q0 49 -39.5 79t-99.5 30q-42 0 -75.5 -10.5t-53 -27.5t-33.5 -37t-19.5 -40.5t-8 -37.5t-2.5 -28l1 -10l-187 51l3 14.5t12 37t25 52.5t44.5 55t66 52t94 37t125.5 15q149 0 240.5 -63.5t91.5 -160.5q0 -45 -20.5 -79t-52 -51.5
t-48.5 -24t-31 -9.5q11 -2 23 -5t41.5 -15.5t51 -30t39 -50t17.5 -73.5q0 -119 -103.5 -180.5t-260.5 -61.5q-62 0 -115.5 10t-91 26.5t-68.5 38.5t-50.5 45.5t-34.5 47.5t-22 46t-11 38.5t-5 26.5l-1 10l186 48q2 -1 -0.5 -12t2.5 -30.5t10 -42t21.5 -45.5t38.5 -41.5
t60.5 -30.5t87.5 -12q77 0 125 33t48 87q0 116 -184 116z" />
    </font>
</defs>
</svg>
